M48
; DRILL file {KiCad 7.0.8} date Fri Jan 10 21:38:39 2025
; FORMAT={-:-/ absolute / metric / decimal}
; #@! TF.CreationDate,2025-01-10T21:38:39+01:00
; #@! TF.GenerationSoftware,Kicad,Pcbnew,7.0.8
; #@! TF.FileFunction,MixedPlating,1,2
FMAT,2
METRIC
; #@! TA.AperFunction,Plated,PTH,ViaDrill
T1C0.300
; #@! TA.AperFunction,Plated,PTH,ViaDrill
T2C0.400
; #@! TA.AperFunction,Plated,PTH,ComponentDrill
T3C0.600
; #@! TA.AperFunction,Plated,PTH,ComponentDrill
T4C0.750
; #@! TA.AperFunction,Plated,PTH,ComponentDrill
T5C0.900
; #@! TA.AperFunction,Plated,PTH,ComponentDrill
T6C1.000
; #@! TA.AperFunction,Plated,PTH,ComponentDrill
T7C3.200
%
G90
G05
T1
X138.9Y-41.402
X142.5Y-27.7
X143.112Y-41.413
X145.2Y-30.3
X147.1Y-28.9
X153.8Y-65.6
X155.6Y-47.2
X155.9Y-41.8
X156.6Y-51.6
X156.9Y-42.8
X159.6Y-33.0
X160.0Y-33.8
X160.4Y-33.0
X160.4Y-34.6
X160.8Y-33.8
X160.8Y-35.4
X161.2Y-33.0
X161.2Y-34.6
X161.2Y-36.2
X161.6Y-33.8
X161.6Y-35.4
X161.8Y-41.4
X161.8Y-43.0
X161.9Y-52.8
X162.0Y-34.6
X162.0Y-36.2
X162.2Y-42.2
X162.4Y-35.4
X162.6Y-38.0
X162.6Y-39.6
X162.6Y-41.4
X162.6Y-43.0
X162.61Y-38.812
X162.8Y-36.2
X163.0Y-42.2
X163.4Y-41.4
X163.4Y-43.0
X163.8Y-42.2
X164.0Y-52.8
X164.2Y-41.4
X164.3Y-43.9
X164.4Y-31.0
X165.7Y-30.0
X165.7Y-79.6
X165.9Y-33.3
X165.9Y-36.6
X167.0Y-46.6
X167.8Y-92.3
X168.2Y-45.4
X168.25Y-42.5
X169.9Y-62.4
X170.1Y-46.6
X170.2Y-94.9
X170.7Y-39.6
X172.0Y-36.8
X172.8Y-86.9
X173.2Y-76.0
X173.3Y-66.6
X173.3Y-69.1
X174.407Y-65.749
X175.3Y-33.7
X175.3Y-36.1
X175.4Y-31.8
X175.8Y-64.7
X176.7Y-83.0
X177.2Y-65.8
X181.5Y-36.7
X182.6Y-55.9
X183.6Y-55.9
X186.3Y-74.5
X186.6Y-56.3
X187.0Y-75.2
X187.5Y-56.3
X187.7Y-75.9
T2
X168.43Y-66.565
X168.43Y-67.835
X171.2Y-70.6
X173.0Y-71.1
X175.194Y-89.233
T4
X180.5Y-46.0
X180.5Y-48.0
T5
X113.747Y-25.0
X116.287Y-25.0
X117.417Y-45.02
X118.517Y-66.24
X119.007Y-87.41
X119.277Y-108.52
X119.957Y-45.02
X121.057Y-66.24
X121.547Y-87.41
X121.817Y-108.52
X128.767Y-37.33
X131.308Y-37.33
X132.327Y-60.96
X133.748Y-83.44
X134.487Y-105.34
X134.748Y-25.0
X134.868Y-60.96
X136.287Y-83.44
X137.028Y-105.34
X137.287Y-25.0
X143.827Y-51.67
X146.368Y-51.67
X147.237Y-76.28
X148.917Y-99.58
X149.778Y-76.28
X151.457Y-99.58
X151.897Y-39.28
X154.438Y-39.28
X155.748Y-25.0
X158.287Y-25.0
X158.797Y-66.31
X161.338Y-66.31
X162.127Y-91.39
X164.667Y-91.39
X167.847Y-54.01
X170.387Y-54.01
X172.707Y-80.04
X173.927Y-40.01
X175.248Y-80.04
X176.468Y-40.01
X176.748Y-25.0
X179.287Y-25.0
X183.327Y-68.83
X185.867Y-68.83
X190.667Y-55.14
X193.207Y-55.14
X195.528Y-40.38
X197.748Y-25.0
X198.067Y-40.38
X200.287Y-25.0
T6
X113.0Y-55.0
X113.0Y-57.54
X145.0Y-23.0
X147.54Y-23.0
X147.8Y-88.125
X147.8Y-90.665
X175.15Y-45.835
X175.15Y-48.375
T7
X116.0Y-98.0
X122.0Y-32.0
X165.0Y-75.0
X188.0Y-26.0
T3
G00X172.945Y-89.204
M15
G01X173.369Y-89.628
M16
G05
G00X175.632Y-91.891
M15
G01X176.056Y-92.315
M16
G05
G00X179.054Y-83.094
M15
G01X179.478Y-83.519
M16
G05
G00X181.741Y-85.781
M15
G01X182.165Y-86.206
M16
G05
T0
M30
