%TF.GenerationSoftware,KiCad,Pcbnew,7.0.8*%
%TF.CreationDate,2025-01-10T21:38:43+01:00*%
%TF.ProjectId,UV_Disc_Charger,55565f44-6973-4635-9f43-686172676572,rev?*%
%TF.SameCoordinates,Original*%
%TF.FileFunction,Soldermask,Bot*%
%TF.FilePolarity,Negative*%
%FSLAX46Y46*%
G04 Gerber Fmt 4.6, Leading zero omitted, Abs format (unit mm)*
G04 Created by KiCad (PCBNEW 7.0.8) date 2025-01-10 21:38:43*
%MOMM*%
%LPD*%
G01*
G04 APERTURE LIST*
G04 Aperture macros list*
%AMRoundRect*
0 Rectangle with rounded corners*
0 $1 Rounding radius*
0 $2 $3 $4 $5 $6 $7 $8 $9 X,Y pos of 4 corners*
0 Add a 4 corners polygon primitive as box body*
4,1,4,$2,$3,$4,$5,$6,$7,$8,$9,$2,$3,0*
0 Add four circle primitives for the rounded corners*
1,1,$1+$1,$2,$3*
1,1,$1+$1,$4,$5*
1,1,$1+$1,$6,$7*
1,1,$1+$1,$8,$9*
0 Add four rect primitives between the rounded corners*
20,1,$1+$1,$2,$3,$4,$5,0*
20,1,$1+$1,$4,$5,$6,$7,0*
20,1,$1+$1,$6,$7,$8,$9,0*
20,1,$1+$1,$8,$9,$2,$3,0*%
%AMHorizOval*
0 Thick line with rounded ends*
0 $1 width*
0 $2 $3 position (X,Y) of the first rounded end (center of the circle)*
0 $4 $5 position (X,Y) of the second rounded end (center of the circle)*
0 Add line between two ends*
20,1,$1,$2,$3,$4,$5,0*
0 Add two circle primitives to create the rounded ends*
1,1,$1,$2,$3*
1,1,$1,$4,$5*%
G04 Aperture macros list end*
%ADD10R,1.700000X1.700000*%
%ADD11O,1.700000X1.700000*%
%ADD12R,1.800000X1.800000*%
%ADD13RoundRect,0.243750X0.243750X0.456250X-0.243750X0.456250X-0.243750X-0.456250X0.243750X-0.456250X0*%
%ADD14C,1.800000*%
%ADD15C,5.600000*%
%ADD16RoundRect,0.250000X-0.625000X0.350000X-0.625000X-0.350000X0.625000X-0.350000X0.625000X0.350000X0*%
%ADD17O,1.750000X1.200000*%
%ADD18HorizOval,1.100000X-0.212132X0.212132X0.212132X-0.212132X0*%
G04 APERTURE END LIST*
D10*
%TO.C,J6*%
X147800000Y-88125000D03*
D11*
X147800000Y-90665000D03*
%TD*%
D10*
%TO.C,J5*%
X113000000Y-55000000D03*
D11*
X113000000Y-57540000D03*
%TD*%
D10*
%TO.C,J3*%
X145000000Y-23000000D03*
D11*
X147540000Y-23000000D03*
%TD*%
D12*
%TO.C,D29*%
X185867500Y-68829998D03*
D13*
X185525000Y-70680000D03*
X183650000Y-70680000D03*
D14*
X183327500Y-68829998D03*
%TD*%
%TO.C,D28*%
X134487500Y-105339998D03*
D13*
X134810000Y-107190000D03*
X136685000Y-107190000D03*
D12*
X137027500Y-105339998D03*
%TD*%
%TO.C,D27*%
X164667500Y-91389998D03*
D13*
X164325000Y-93240000D03*
X162450000Y-93240000D03*
D14*
X162127500Y-91389998D03*
%TD*%
%TO.C,D26*%
X133747500Y-83439998D03*
D13*
X134070000Y-85290000D03*
X135945000Y-85290000D03*
D12*
X136287500Y-83439998D03*
%TD*%
%TO.C,D25*%
X149777500Y-76279998D03*
D13*
X149435000Y-78130000D03*
X147560000Y-78130000D03*
D14*
X147237500Y-76279998D03*
%TD*%
D12*
%TO.C,D24*%
X151457500Y-99579998D03*
D13*
X151115000Y-101430000D03*
X149240000Y-101430000D03*
D14*
X148917500Y-99579998D03*
%TD*%
D12*
%TO.C,D23*%
X175247500Y-80039998D03*
D13*
X174905000Y-81890000D03*
X173030000Y-81890000D03*
D14*
X172707500Y-80039998D03*
%TD*%
D12*
%TO.C,D22*%
X121817500Y-108519998D03*
D13*
X121475000Y-110370000D03*
X119600000Y-110370000D03*
D14*
X119277500Y-108519998D03*
%TD*%
D12*
%TO.C,D21*%
X161337500Y-66309998D03*
D13*
X160995000Y-68160000D03*
X159120000Y-68160000D03*
D14*
X158797500Y-66309998D03*
%TD*%
%TO.C,D20*%
X119007500Y-87409998D03*
D13*
X119330000Y-89260000D03*
X121205000Y-89260000D03*
D12*
X121547500Y-87409998D03*
%TD*%
%TO.C,D19*%
X146367500Y-51669998D03*
D13*
X146025000Y-53520000D03*
X144150000Y-53520000D03*
D14*
X143827500Y-51669998D03*
%TD*%
D12*
%TO.C,D18*%
X134867500Y-60959998D03*
D13*
X134525000Y-62810000D03*
X132650000Y-62810000D03*
D14*
X132327500Y-60959998D03*
%TD*%
D12*
%TO.C,D17*%
X121057500Y-66239998D03*
D13*
X120715000Y-68090000D03*
X118840000Y-68090000D03*
D14*
X118517500Y-66239998D03*
%TD*%
D12*
%TO.C,D16*%
X131307500Y-37329998D03*
D13*
X130965000Y-39180000D03*
X129090000Y-39180000D03*
D14*
X128767500Y-37329998D03*
%TD*%
D12*
%TO.C,D15*%
X119957500Y-45019998D03*
D13*
X119615000Y-46870000D03*
X117740000Y-46870000D03*
D14*
X117417500Y-45019998D03*
%TD*%
D12*
%TO.C,D14*%
X193207500Y-55139998D03*
D13*
X192865000Y-56990000D03*
X190990000Y-56990000D03*
D14*
X190667500Y-55139998D03*
%TD*%
D12*
%TO.C,D13*%
X198067500Y-40379998D03*
D13*
X197725000Y-42230000D03*
X195850000Y-42230000D03*
D14*
X195527500Y-40379998D03*
%TD*%
D12*
%TO.C,D12*%
X176467500Y-40009998D03*
D13*
X176125000Y-41860000D03*
X174250000Y-41860000D03*
D14*
X173927500Y-40009998D03*
%TD*%
D12*
%TO.C,D11*%
X200287500Y-24999998D03*
D13*
X199945000Y-26850000D03*
X198070000Y-26850000D03*
D14*
X197747500Y-24999998D03*
%TD*%
D12*
%TO.C,D10*%
X179287500Y-24999998D03*
D13*
X178945000Y-26850000D03*
X177070000Y-26850000D03*
D14*
X176747500Y-24999998D03*
%TD*%
D12*
%TO.C,D9*%
X170387500Y-54009998D03*
D13*
X170045000Y-55860000D03*
X168170000Y-55860000D03*
D14*
X167847500Y-54009998D03*
%TD*%
D12*
%TO.C,D8*%
X154437500Y-39279998D03*
D13*
X154095000Y-41130000D03*
X152220000Y-41130000D03*
D14*
X151897500Y-39279998D03*
%TD*%
D12*
%TO.C,D7*%
X158287500Y-24999998D03*
D13*
X157945000Y-26850000D03*
X156070000Y-26850000D03*
D14*
X155747500Y-24999998D03*
%TD*%
D12*
%TO.C,D6*%
X137287500Y-24999998D03*
D13*
X136945000Y-26850000D03*
X135070000Y-26850000D03*
D14*
X134747500Y-24999998D03*
%TD*%
D12*
%TO.C,D5*%
X116287500Y-24999998D03*
D13*
X115945000Y-26850000D03*
X114070000Y-26850000D03*
D14*
X113747500Y-24999998D03*
%TD*%
D10*
%TO.C,SW1*%
X175150000Y-48375000D03*
D11*
X175150000Y-45835000D03*
%TD*%
D15*
%TO.C,H4*%
X165000000Y-75000000D03*
%TD*%
%TO.C,H3*%
X116000000Y-98000000D03*
%TD*%
%TO.C,H2*%
X188000000Y-26000000D03*
%TD*%
D16*
%TO.C,J2*%
X180500000Y-46000000D03*
D17*
X180500000Y-48000000D03*
%TD*%
D18*
%TO.C,J1*%
X173156875Y-89415881D03*
X175843881Y-92102887D03*
X179266277Y-83306479D03*
X181953283Y-85993485D03*
%TD*%
D15*
%TO.C,H1*%
X122000000Y-32000000D03*
%TD*%
M02*
