%TF.GenerationSoftware,KiCad,Pcbnew,7.0.8*%
%TF.CreationDate,2025-01-10T21:38:43+01:00*%
%TF.ProjectId,UV_Disc_Charger,55565f44-6973-4635-9f43-686172676572,rev?*%
%TF.SameCoordinates,Original*%
%TF.FileFunction,Copper,L2,Bot*%
%TF.FilePolarity,Positive*%
%FSLAX46Y46*%
G04 Gerber Fmt 4.6, Leading zero omitted, Abs format (unit mm)*
G04 Created by KiCad (PCBNEW 7.0.8) date 2025-01-10 21:38:43*
%MOMM*%
%LPD*%
G01*
G04 APERTURE LIST*
G04 Aperture macros list*
%AMRoundRect*
0 Rectangle with rounded corners*
0 $1 Rounding radius*
0 $2 $3 $4 $5 $6 $7 $8 $9 X,Y pos of 4 corners*
0 Add a 4 corners polygon primitive as box body*
4,1,4,$2,$3,$4,$5,$6,$7,$8,$9,$2,$3,0*
0 Add four circle primitives for the rounded corners*
1,1,$1+$1,$2,$3*
1,1,$1+$1,$4,$5*
1,1,$1+$1,$6,$7*
1,1,$1+$1,$8,$9*
0 Add four rect primitives between the rounded corners*
20,1,$1+$1,$2,$3,$4,$5,0*
20,1,$1+$1,$4,$5,$6,$7,0*
20,1,$1+$1,$6,$7,$8,$9,0*
20,1,$1+$1,$8,$9,$2,$3,0*%
%AMHorizOval*
0 Thick line with rounded ends*
0 $1 width*
0 $2 $3 position (X,Y) of the first rounded end (center of the circle)*
0 $4 $5 position (X,Y) of the second rounded end (center of the circle)*
0 Add line between two ends*
20,1,$1,$2,$3,$4,$5,0*
0 Add two circle primitives to create the rounded ends*
1,1,$1,$2,$3*
1,1,$1,$4,$5*%
G04 Aperture macros list end*
%TA.AperFunction,ComponentPad*%
%ADD10R,1.700000X1.700000*%
%TD*%
%TA.AperFunction,ComponentPad*%
%ADD11O,1.700000X1.700000*%
%TD*%
%TA.AperFunction,ComponentPad*%
%ADD12R,1.800000X1.800000*%
%TD*%
%TA.AperFunction,SMDPad,CuDef*%
%ADD13RoundRect,0.243750X0.243750X0.456250X-0.243750X0.456250X-0.243750X-0.456250X0.243750X-0.456250X0*%
%TD*%
%TA.AperFunction,ComponentPad*%
%ADD14C,1.800000*%
%TD*%
%TA.AperFunction,ComponentPad*%
%ADD15C,5.600000*%
%TD*%
%TA.AperFunction,ComponentPad*%
%ADD16RoundRect,0.250000X-0.625000X0.350000X-0.625000X-0.350000X0.625000X-0.350000X0.625000X0.350000X0*%
%TD*%
%TA.AperFunction,ComponentPad*%
%ADD17O,1.750000X1.200000*%
%TD*%
%TA.AperFunction,ComponentPad*%
%ADD18HorizOval,1.100000X-0.212132X0.212132X0.212132X-0.212132X0*%
%TD*%
%TA.AperFunction,ViaPad*%
%ADD19C,0.700000*%
%TD*%
%TA.AperFunction,ViaPad*%
%ADD20C,0.800000*%
%TD*%
%TA.AperFunction,Conductor*%
%ADD21C,0.500000*%
%TD*%
%TA.AperFunction,Conductor*%
%ADD22C,0.300000*%
%TD*%
G04 APERTURE END LIST*
D10*
%TO.P,J6,1,Pin_1*%
%TO.N,+VSW*%
X147800000Y-88125000D03*
D11*
%TO.P,J6,2,Pin_2*%
%TO.N,GND*%
X147800000Y-90665000D03*
%TD*%
D10*
%TO.P,J5,1,Pin_1*%
%TO.N,+VSW*%
X113000000Y-55000000D03*
D11*
%TO.P,J5,2,Pin_2*%
%TO.N,GND*%
X113000000Y-57540000D03*
%TD*%
D10*
%TO.P,J3,1,Pin_1*%
%TO.N,+VSW*%
X145000000Y-23000000D03*
D11*
%TO.P,J3,2,Pin_2*%
%TO.N,GND*%
X147540000Y-23000000D03*
%TD*%
D12*
%TO.P,D29,1,K*%
%TO.N,GND*%
X185867500Y-68829998D03*
D13*
X185525000Y-70680000D03*
%TO.P,D29,2,A*%
%TO.N,Net-(D21-A)*%
X183650000Y-70680000D03*
D14*
X183327500Y-68829998D03*
%TD*%
%TO.P,D28,2,A*%
%TO.N,Net-(D20-A)*%
X134487500Y-105339998D03*
D13*
X134810000Y-107190000D03*
%TO.P,D28,1,K*%
%TO.N,GND*%
X136685000Y-107190000D03*
D12*
X137027500Y-105339998D03*
%TD*%
%TO.P,D27,1,K*%
%TO.N,GND*%
X164667500Y-91389998D03*
D13*
X164325000Y-93240000D03*
%TO.P,D27,2,A*%
%TO.N,Net-(D21-A)*%
X162450000Y-93240000D03*
D14*
X162127500Y-91389998D03*
%TD*%
%TO.P,D26,2,A*%
%TO.N,Net-(D20-A)*%
X133747500Y-83439998D03*
D13*
X134070000Y-85290000D03*
%TO.P,D26,1,K*%
%TO.N,GND*%
X135945000Y-85290000D03*
D12*
X136287500Y-83439998D03*
%TD*%
%TO.P,D25,1,K*%
%TO.N,GND*%
X149777500Y-76279998D03*
D13*
X149435000Y-78130000D03*
%TO.P,D25,2,A*%
%TO.N,Net-(D21-A)*%
X147560000Y-78130000D03*
D14*
X147237500Y-76279998D03*
%TD*%
D12*
%TO.P,D24,1,K*%
%TO.N,GND*%
X151457500Y-99579998D03*
D13*
X151115000Y-101430000D03*
%TO.P,D24,2,A*%
%TO.N,Net-(D20-A)*%
X149240000Y-101430000D03*
D14*
X148917500Y-99579998D03*
%TD*%
D12*
%TO.P,D23,1,K*%
%TO.N,GND*%
X175247500Y-80039998D03*
D13*
X174905000Y-81890000D03*
%TO.P,D23,2,A*%
%TO.N,Net-(D21-A)*%
X173030000Y-81890000D03*
D14*
X172707500Y-80039998D03*
%TD*%
D12*
%TO.P,D22,1,K*%
%TO.N,GND*%
X121817500Y-108519998D03*
D13*
X121475000Y-110370000D03*
%TO.P,D22,2,A*%
%TO.N,Net-(D20-A)*%
X119600000Y-110370000D03*
D14*
X119277500Y-108519998D03*
%TD*%
D12*
%TO.P,D21,1,K*%
%TO.N,GND*%
X161337500Y-66309998D03*
D13*
X160995000Y-68160000D03*
%TO.P,D21,2,A*%
%TO.N,Net-(D21-A)*%
X159120000Y-68160000D03*
D14*
X158797500Y-66309998D03*
%TD*%
%TO.P,D20,2,A*%
%TO.N,Net-(D20-A)*%
X119007500Y-87409998D03*
D13*
X119330000Y-89260000D03*
%TO.P,D20,1,K*%
%TO.N,GND*%
X121205000Y-89260000D03*
D12*
X121547500Y-87409998D03*
%TD*%
%TO.P,D19,1,K*%
%TO.N,GND*%
X146367500Y-51669998D03*
D13*
X146025000Y-53520000D03*
%TO.P,D19,2,A*%
%TO.N,Net-(D15-A)*%
X144150000Y-53520000D03*
D14*
X143827500Y-51669998D03*
%TD*%
D12*
%TO.P,D18,1,K*%
%TO.N,GND*%
X134867500Y-60959998D03*
D13*
X134525000Y-62810000D03*
%TO.P,D18,2,A*%
%TO.N,Net-(D15-A)*%
X132650000Y-62810000D03*
D14*
X132327500Y-60959998D03*
%TD*%
D12*
%TO.P,D17,1,K*%
%TO.N,GND*%
X121057500Y-66239998D03*
D13*
X120715000Y-68090000D03*
%TO.P,D17,2,A*%
%TO.N,Net-(D15-A)*%
X118840000Y-68090000D03*
D14*
X118517500Y-66239998D03*
%TD*%
D12*
%TO.P,D16,1,K*%
%TO.N,GND*%
X131307500Y-37329998D03*
D13*
X130965000Y-39180000D03*
%TO.P,D16,2,A*%
%TO.N,Net-(D15-A)*%
X129090000Y-39180000D03*
D14*
X128767500Y-37329998D03*
%TD*%
D12*
%TO.P,D15,1,K*%
%TO.N,GND*%
X119957500Y-45019998D03*
D13*
X119615000Y-46870000D03*
%TO.P,D15,2,A*%
%TO.N,Net-(D15-A)*%
X117740000Y-46870000D03*
D14*
X117417500Y-45019998D03*
%TD*%
D12*
%TO.P,D14,1,K*%
%TO.N,GND*%
X193207500Y-55139998D03*
D13*
X192865000Y-56990000D03*
%TO.P,D14,2,A*%
%TO.N,Net-(D10-A)*%
X190990000Y-56990000D03*
D14*
X190667500Y-55139998D03*
%TD*%
D12*
%TO.P,D13,1,K*%
%TO.N,GND*%
X198067500Y-40379998D03*
D13*
X197725000Y-42230000D03*
%TO.P,D13,2,A*%
%TO.N,Net-(D10-A)*%
X195850000Y-42230000D03*
D14*
X195527500Y-40379998D03*
%TD*%
D12*
%TO.P,D12,1,K*%
%TO.N,GND*%
X176467500Y-40009998D03*
D13*
X176125000Y-41860000D03*
%TO.P,D12,2,A*%
%TO.N,Net-(D10-A)*%
X174250000Y-41860000D03*
D14*
X173927500Y-40009998D03*
%TD*%
D12*
%TO.P,D11,1,K*%
%TO.N,GND*%
X200287500Y-24999998D03*
D13*
X199945000Y-26850000D03*
%TO.P,D11,2,A*%
%TO.N,Net-(D10-A)*%
X198070000Y-26850000D03*
D14*
X197747500Y-24999998D03*
%TD*%
D12*
%TO.P,D10,1,K*%
%TO.N,GND*%
X179287500Y-24999998D03*
D13*
X178945000Y-26850000D03*
%TO.P,D10,2,A*%
%TO.N,Net-(D10-A)*%
X177070000Y-26850000D03*
D14*
X176747500Y-24999998D03*
%TD*%
D12*
%TO.P,D9,1,K*%
%TO.N,GND*%
X170387500Y-54009998D03*
D13*
X170045000Y-55860000D03*
%TO.P,D9,2,A*%
%TO.N,Net-(D5-A)*%
X168170000Y-55860000D03*
D14*
X167847500Y-54009998D03*
%TD*%
D12*
%TO.P,D8,1,K*%
%TO.N,GND*%
X154437500Y-39279998D03*
D13*
X154095000Y-41130000D03*
%TO.P,D8,2,A*%
%TO.N,Net-(D5-A)*%
X152220000Y-41130000D03*
D14*
X151897500Y-39279998D03*
%TD*%
D12*
%TO.P,D7,1,K*%
%TO.N,GND*%
X158287500Y-24999998D03*
D13*
X157945000Y-26850000D03*
%TO.P,D7,2,A*%
%TO.N,Net-(D5-A)*%
X156070000Y-26850000D03*
D14*
X155747500Y-24999998D03*
%TD*%
D12*
%TO.P,D6,1,K*%
%TO.N,GND*%
X137287500Y-24999998D03*
D13*
X136945000Y-26850000D03*
%TO.P,D6,2,A*%
%TO.N,Net-(D5-A)*%
X135070000Y-26850000D03*
D14*
X134747500Y-24999998D03*
%TD*%
D12*
%TO.P,D5,1,K*%
%TO.N,GND*%
X116287500Y-24999998D03*
D13*
X115945000Y-26850000D03*
%TO.P,D5,2,A*%
%TO.N,Net-(D5-A)*%
X114070000Y-26850000D03*
D14*
X113747500Y-24999998D03*
%TD*%
D10*
%TO.P,SW1,1,A*%
%TO.N,Net-(SW1-A)*%
X175150000Y-48375000D03*
D11*
%TO.P,SW1,2,B*%
%TO.N,+BATT*%
X175150000Y-45835000D03*
%TD*%
D15*
%TO.P,H4,1*%
%TO.N,N/C*%
X165000000Y-75000000D03*
%TD*%
%TO.P,H3,1*%
%TO.N,N/C*%
X116000000Y-98000000D03*
%TD*%
%TO.P,H2,1*%
%TO.N,N/C*%
X188000000Y-26000000D03*
%TD*%
D16*
%TO.P,J2,1,Pin_1*%
%TO.N,+BATT*%
X180500000Y-46000000D03*
D17*
%TO.P,J2,2,Pin_2*%
%TO.N,-BATT*%
X180500000Y-48000000D03*
%TD*%
D18*
%TO.P,J1,S1,SHIELD*%
%TO.N,unconnected-(J1-SHIELD-PadS1)*%
X173156875Y-89415881D03*
X175843881Y-92102887D03*
X179266277Y-83306479D03*
X181953283Y-85993485D03*
%TD*%
D15*
%TO.P,H1,1*%
%TO.N,N/C*%
X122000000Y-32000000D03*
%TD*%
D19*
%TO.N,Net-(D5-A)*%
X155600000Y-47200000D03*
%TO.N,+VSW*%
X138900000Y-41401768D03*
X143112500Y-41412500D03*
X147100000Y-28900000D03*
%TO.N,GND*%
X176700000Y-83000000D03*
X172800000Y-86900000D03*
X170200000Y-94900000D03*
X167800000Y-92300000D03*
X182600000Y-55900000D03*
X183600000Y-55900000D03*
X187500000Y-56300000D03*
X186600000Y-56300000D03*
X186300000Y-74500000D03*
X187700000Y-75900000D03*
X187000000Y-75200000D03*
X173200000Y-76000000D03*
X173300000Y-69100000D03*
X177200000Y-65800000D03*
X175800000Y-64700000D03*
X174406654Y-65748929D03*
X173300000Y-66600000D03*
X169900000Y-62400000D03*
X156600000Y-51600000D03*
X155900000Y-41800000D03*
X156900000Y-42800000D03*
X167000000Y-46600000D03*
X168200000Y-45400000D03*
X170100000Y-46600000D03*
X172000000Y-36800000D03*
X170700000Y-39600000D03*
X165700000Y-30000000D03*
X164400000Y-31000000D03*
X165900000Y-33300000D03*
X165900000Y-36600000D03*
X175300000Y-33700000D03*
X175300000Y-36100000D03*
%TO.N,Net-(D21-A)*%
X165700000Y-79600000D03*
X153800000Y-65600000D03*
%TO.N,Net-(D5-A)*%
X142500000Y-27700000D03*
X145200000Y-30300000D03*
%TO.N,GND*%
X159600000Y-33000000D03*
X160400000Y-33000000D03*
X161200000Y-33000000D03*
X160000000Y-33800000D03*
X160400000Y-34600000D03*
X160800000Y-33800000D03*
X161600000Y-33800000D03*
X161800000Y-43000000D03*
X162600000Y-43000000D03*
X163400000Y-43000000D03*
X162200000Y-42200000D03*
X163000000Y-42200000D03*
X163800000Y-42200000D03*
X164200000Y-41400000D03*
X163400000Y-41400000D03*
X161800000Y-41400000D03*
X162600000Y-41400000D03*
X162600000Y-39600000D03*
X162610000Y-38812500D03*
X162600000Y-38000000D03*
X160800000Y-35400000D03*
X161200000Y-36200000D03*
X161200000Y-34600000D03*
X162000000Y-34600000D03*
X161600000Y-35400000D03*
X162400000Y-35400000D03*
X162000000Y-36200000D03*
X162800000Y-36200000D03*
X175400000Y-31800000D03*
%TO.N,Net-(D10-A)*%
X181500000Y-36700000D03*
%TO.N,+5V*%
X168250000Y-42500000D03*
X164300000Y-43900000D03*
%TO.N,Net-(Q1-G)*%
X161900000Y-52800000D03*
X164000000Y-52800000D03*
D20*
%TO.N,GND*%
X175193881Y-89232572D03*
%TO.N,Net-(U1-CHRG)*%
X171200000Y-70600000D03*
X168430000Y-67835000D03*
%TO.N,Net-(U1-STDBY)*%
X168430000Y-66565000D03*
X173000000Y-71100000D03*
%TD*%
D21*
%TO.N,+VSW*%
X138910732Y-41412500D02*
X143112500Y-41412500D01*
X138900000Y-41401768D02*
X138910732Y-41412500D01*
D22*
%TO.N,+5V*%
X166642893Y-43899995D02*
G75*
G03*
X166996447Y-43753553I7J499995D01*
G01*
D21*
%TO.N,Net-(D21-A)*%
X156646450Y-65746444D02*
G75*
G03*
X156292893Y-65600000I-353550J-353556D01*
G01*
X157063550Y-66163554D02*
G75*
G03*
X157417105Y-66309998I353550J353554D01*
G01*
%TO.N,Net-(D5-A)*%
X156069996Y-25529605D02*
G75*
G03*
X155923553Y-25176051I-499996J5D01*
G01*
X168169996Y-54539605D02*
G75*
G03*
X168023553Y-54186051I-499996J5D01*
G01*
X114069996Y-25529605D02*
G75*
G03*
X113923553Y-25176051I-499996J5D01*
G01*
X135069996Y-25529605D02*
G75*
G03*
X134923553Y-25176051I-499996J5D01*
G01*
X152219996Y-39809605D02*
G75*
G03*
X152073553Y-39456051I-499996J5D01*
G01*
X164585800Y-47785772D02*
G75*
G03*
X163171573Y-47200000I-1414200J-1414228D01*
G01*
X167847480Y-51875927D02*
G75*
G03*
X167261712Y-50461714I-1999980J27D01*
G01*
%TO.N,+VSW*%
X145000020Y-25971573D02*
G75*
G03*
X145585787Y-27385785I1999980J-27D01*
G01*
%TO.N,Net-(D10-A)*%
X177635534Y-36700024D02*
G75*
G03*
X175867767Y-37432233I-34J-2499976D01*
G01*
%TO.N,Net-(D21-A)*%
X153800000Y-65600000D02*
X156292893Y-65600000D01*
X156646447Y-65746447D02*
X157063552Y-66163552D01*
X157417105Y-66309998D02*
X158797500Y-66309998D01*
%TO.N,Net-(D5-A)*%
X163171573Y-47200000D02*
X155600000Y-47200000D01*
X167847500Y-54009998D02*
X167847500Y-51875927D01*
X167261713Y-50461713D02*
X164585786Y-47785786D01*
%TO.N,+VSW*%
X145000000Y-25971573D02*
X145000000Y-23000000D01*
X147100000Y-28900000D02*
X145585786Y-27385786D01*
%TO.N,Net-(D21-A)*%
X172707500Y-79449998D02*
X172707500Y-80039998D01*
X183327500Y-68829998D02*
X172707500Y-79449998D01*
X165700000Y-79600000D02*
X172267502Y-79600000D01*
X172267502Y-79600000D02*
X172707500Y-80039998D01*
%TO.N,Net-(D5-A)*%
X145100000Y-30300000D02*
X142500000Y-27700000D01*
X145200000Y-30300000D02*
X145100000Y-30300000D01*
%TO.N,Net-(D10-A)*%
X175867767Y-37432233D02*
X173927500Y-39372500D01*
X181500000Y-36700000D02*
X177635534Y-36700000D01*
X173927500Y-39372500D02*
X173927500Y-40009998D01*
D22*
%TO.N,+5V*%
X166996447Y-43753553D02*
X168250000Y-42500000D01*
X164300000Y-43900000D02*
X166642893Y-43900000D01*
%TO.N,Net-(Q1-G)*%
X164000000Y-52800000D02*
X161900000Y-52800000D01*
%TO.N,Net-(U1-STDBY)*%
X172965000Y-71100000D02*
X168430000Y-66565000D01*
X173000000Y-71100000D02*
X172965000Y-71100000D01*
%TO.N,Net-(U1-CHRG)*%
X171200000Y-70600000D02*
X171195000Y-70600000D01*
X171195000Y-70600000D02*
X168430000Y-67835000D01*
D21*
%TO.N,GND*%
X115945000Y-25342498D02*
X116287500Y-24999998D01*
X115945000Y-26850000D02*
X115945000Y-25342498D01*
%TO.N,Net-(D5-A)*%
X113923553Y-25176051D02*
X113747500Y-24999998D01*
X114070000Y-26850000D02*
X114070000Y-25529605D01*
%TO.N,GND*%
X119615000Y-45362498D02*
X119957500Y-45019998D01*
X119615000Y-46870000D02*
X119615000Y-45362498D01*
%TO.N,Net-(D15-A)*%
X117740000Y-45342498D02*
X117417500Y-45019998D01*
X117740000Y-46870000D02*
X117740000Y-45342498D01*
%TO.N,GND*%
X130965000Y-37672498D02*
X131307500Y-37329998D01*
X130965000Y-39180000D02*
X130965000Y-37672498D01*
%TO.N,Net-(D15-A)*%
X129090000Y-37652498D02*
X128767500Y-37329998D01*
X129090000Y-39180000D02*
X129090000Y-37652498D01*
%TO.N,GND*%
X136945000Y-25342498D02*
X137287500Y-24999998D01*
X136945000Y-26850000D02*
X136945000Y-25342498D01*
%TO.N,Net-(D5-A)*%
X135070000Y-26850000D02*
X135070000Y-25529605D01*
X134923553Y-25176051D02*
X134747500Y-24999998D01*
%TO.N,GND*%
X157945000Y-25342498D02*
X158287500Y-24999998D01*
X157945000Y-26850000D02*
X157945000Y-25342498D01*
%TO.N,Net-(D5-A)*%
X155923553Y-25176051D02*
X155747500Y-24999998D01*
X156070000Y-26850000D02*
X156070000Y-25529605D01*
%TO.N,GND*%
X154095000Y-39622498D02*
X154437500Y-39279998D01*
X154095000Y-41130000D02*
X154095000Y-39622498D01*
%TO.N,Net-(D5-A)*%
X152073553Y-39456051D02*
X151897500Y-39279998D01*
X152220000Y-41130000D02*
X152220000Y-39809605D01*
%TO.N,GND*%
X146025000Y-52012498D02*
X146367500Y-51669998D01*
X146025000Y-53520000D02*
X146025000Y-52012498D01*
%TO.N,Net-(D15-A)*%
X144150000Y-51992498D02*
X143827500Y-51669998D01*
X144150000Y-53520000D02*
X144150000Y-51992498D01*
%TO.N,GND*%
X134525000Y-61302498D02*
X134867500Y-60959998D01*
X134525000Y-62810000D02*
X134525000Y-61302498D01*
%TO.N,Net-(D15-A)*%
X132650000Y-61282498D02*
X132327500Y-60959998D01*
X132650000Y-62810000D02*
X132650000Y-61282498D01*
%TO.N,GND*%
X120715000Y-66582498D02*
X121057500Y-66239998D01*
X120715000Y-68090000D02*
X120715000Y-66582498D01*
%TO.N,Net-(D15-A)*%
X118840000Y-66562498D02*
X118517500Y-66239998D01*
X118840000Y-68090000D02*
X118840000Y-66562498D01*
%TO.N,GND*%
X164325000Y-91732498D02*
X164667500Y-91389998D01*
X164325000Y-93240000D02*
X164325000Y-91732498D01*
%TO.N,Net-(D21-A)*%
X162450000Y-91712498D02*
X162127500Y-91389998D01*
X162450000Y-93240000D02*
X162450000Y-91712498D01*
%TO.N,GND*%
X151115000Y-99922498D02*
X151457500Y-99579998D01*
X151115000Y-101430000D02*
X151115000Y-99922498D01*
%TO.N,Net-(D20-A)*%
X149240000Y-99902498D02*
X148917500Y-99579998D01*
X149240000Y-101430000D02*
X149240000Y-99902498D01*
%TO.N,GND*%
X136685000Y-105682498D02*
X137027500Y-105339998D01*
X136685000Y-107190000D02*
X136685000Y-105682498D01*
%TO.N,Net-(D20-A)*%
X134810000Y-105662498D02*
X134487500Y-105339998D01*
X134810000Y-107190000D02*
X134810000Y-105662498D01*
%TO.N,GND*%
X121475000Y-108862498D02*
X121817500Y-108519998D01*
X121475000Y-110370000D02*
X121475000Y-108862498D01*
%TO.N,Net-(D20-A)*%
X119600000Y-108842498D02*
X119277500Y-108519998D01*
X119600000Y-110370000D02*
X119600000Y-108842498D01*
%TO.N,GND*%
X121205000Y-87752498D02*
X121547500Y-87409998D01*
X121205000Y-89260000D02*
X121205000Y-87752498D01*
%TO.N,Net-(D20-A)*%
X119330000Y-87732498D02*
X119007500Y-87409998D01*
X119330000Y-89260000D02*
X119330000Y-87732498D01*
%TO.N,GND*%
X135945000Y-83782498D02*
X136287500Y-83439998D01*
X135945000Y-85290000D02*
X135945000Y-83782498D01*
%TO.N,Net-(D20-A)*%
X134070000Y-83762498D02*
X133747500Y-83439998D01*
X134070000Y-85290000D02*
X134070000Y-83762498D01*
%TO.N,GND*%
X149435000Y-76622498D02*
X149777500Y-76279998D01*
X149435000Y-78130000D02*
X149435000Y-76622498D01*
%TO.N,Net-(D21-A)*%
X147560000Y-78130000D02*
X147560000Y-76602498D01*
X147560000Y-76602498D02*
X147237500Y-76279998D01*
%TO.N,GND*%
X160995000Y-66652498D02*
X161337500Y-66309998D01*
X160995000Y-68160000D02*
X160995000Y-66652498D01*
%TO.N,Net-(D21-A)*%
X159120000Y-66632498D02*
X158797500Y-66309998D01*
X159120000Y-68160000D02*
X159120000Y-66632498D01*
%TO.N,GND*%
X170045000Y-54352498D02*
X170387500Y-54009998D01*
X170045000Y-55860000D02*
X170045000Y-54352498D01*
%TO.N,Net-(D5-A)*%
X168023553Y-54186051D02*
X167847500Y-54009998D01*
X168170000Y-55860000D02*
X168170000Y-54539605D01*
%TO.N,GND*%
X176125000Y-40352498D02*
X176467500Y-40009998D01*
X176125000Y-41860000D02*
X176125000Y-40352498D01*
%TO.N,Net-(D10-A)*%
X174250000Y-40332498D02*
X173927500Y-40009998D01*
X174250000Y-41860000D02*
X174250000Y-40332498D01*
%TO.N,GND*%
X178945000Y-25342498D02*
X179287500Y-24999998D01*
X178945000Y-26850000D02*
X178945000Y-25342498D01*
%TO.N,Net-(D10-A)*%
X177070000Y-25322498D02*
X176747500Y-24999998D01*
X177070000Y-26850000D02*
X177070000Y-25322498D01*
%TO.N,GND*%
X199945000Y-25342498D02*
X200287500Y-24999998D01*
X199945000Y-26850000D02*
X199945000Y-25342498D01*
%TO.N,Net-(D10-A)*%
X198070000Y-26850000D02*
X198070000Y-25322498D01*
X198070000Y-25322498D02*
X197747500Y-24999998D01*
%TO.N,GND*%
X197725000Y-40722498D02*
X198067500Y-40379998D01*
X197725000Y-42230000D02*
X197725000Y-40722498D01*
%TO.N,Net-(D10-A)*%
X195850000Y-40702498D02*
X195527500Y-40379998D01*
X195850000Y-42230000D02*
X195850000Y-40702498D01*
%TO.N,GND*%
X192865000Y-55482498D02*
X193207500Y-55139998D01*
X192865000Y-56990000D02*
X192865000Y-55482498D01*
%TO.N,Net-(D10-A)*%
X190990000Y-55462498D02*
X190667500Y-55139998D01*
X190990000Y-56990000D02*
X190990000Y-55462498D01*
%TO.N,GND*%
X185525000Y-69172498D02*
X185867500Y-68829998D01*
X185525000Y-70680000D02*
X185525000Y-69172498D01*
%TO.N,Net-(D21-A)*%
X183650000Y-69152498D02*
X183327500Y-68829998D01*
X183650000Y-70680000D02*
X183650000Y-69152498D01*
%TO.N,GND*%
X174905000Y-80382498D02*
X175247500Y-80039998D01*
X174905000Y-81890000D02*
X174905000Y-80382498D01*
%TO.N,Net-(D21-A)*%
X173030000Y-81890000D02*
X173030000Y-80362498D01*
X173030000Y-80362498D02*
X172707500Y-80039998D01*
%TD*%
%TA.AperFunction,Conductor*%
%TO.N,GND*%
G36*
X207001619Y-20000584D02*
G01*
X207133628Y-20007503D01*
X207317027Y-20017803D01*
X207323212Y-20018465D01*
X207475647Y-20042608D01*
X207638194Y-20070226D01*
X207643811Y-20071453D01*
X207796693Y-20112418D01*
X207889122Y-20139046D01*
X207951724Y-20157082D01*
X207956759Y-20158769D01*
X208106183Y-20216127D01*
X208254007Y-20277358D01*
X208258412Y-20279388D01*
X208324180Y-20312899D01*
X208401921Y-20352511D01*
X208477428Y-20394241D01*
X208541480Y-20429641D01*
X208545215Y-20431882D01*
X208619487Y-20480115D01*
X208680872Y-20519980D01*
X208768357Y-20582053D01*
X208810764Y-20612142D01*
X208813886Y-20614510D01*
X208938748Y-20715621D01*
X208941034Y-20717567D01*
X209058721Y-20822738D01*
X209061248Y-20825128D01*
X209174870Y-20938750D01*
X209177260Y-20941277D01*
X209282431Y-21058964D01*
X209284385Y-21061260D01*
X209385480Y-21186102D01*
X209387862Y-21189243D01*
X209480019Y-21319127D01*
X209533758Y-21401875D01*
X209568106Y-21454767D01*
X209570364Y-21458531D01*
X209647488Y-21598078D01*
X209720604Y-21741575D01*
X209722643Y-21745997D01*
X209783877Y-21893829D01*
X209841221Y-22043217D01*
X209842916Y-22048273D01*
X209887579Y-22203297D01*
X209928541Y-22356171D01*
X209929778Y-22361835D01*
X209957394Y-22524369D01*
X209981530Y-22676758D01*
X209982196Y-22682985D01*
X209992507Y-22866585D01*
X209999347Y-22997108D01*
X209999382Y-23002851D01*
X209920504Y-24961094D01*
X209803072Y-26920278D01*
X209676652Y-28507573D01*
X209646001Y-28889311D01*
X209504753Y-30310147D01*
X209450103Y-30854885D01*
X209291895Y-32181521D01*
X209215454Y-32816245D01*
X209039304Y-34081761D01*
X208942150Y-34772563D01*
X208747565Y-35994539D01*
X208630294Y-36723115D01*
X208416994Y-37912012D01*
X208280014Y-38667108D01*
X208047805Y-39829757D01*
X207891449Y-40603771D01*
X207640231Y-41744640D01*
X207464747Y-42532381D01*
X207194527Y-43654325D01*
X207000066Y-44452220D01*
X206710908Y-45557154D01*
X206497587Y-46362533D01*
X206189506Y-47452084D01*
X205957526Y-48262506D01*
X205630508Y-49338017D01*
X205380093Y-50151408D01*
X205034173Y-51213780D01*
X204765502Y-52028544D01*
X204400824Y-53078157D01*
X204113977Y-53893227D01*
X203730662Y-54930419D01*
X203425798Y-55744657D01*
X203023875Y-56769909D01*
X202701245Y-57582086D01*
X202280850Y-58595518D01*
X201940558Y-59404909D01*
X201501820Y-60406599D01*
X201144082Y-61212301D01*
X200687089Y-62202376D01*
X200312101Y-63003621D01*
X199837013Y-63982010D01*
X199444927Y-64778195D01*
X198951949Y-65744725D01*
X198542916Y-66535298D01*
X198032138Y-67490000D01*
X197606460Y-68274173D01*
X197077971Y-69217051D01*
X196635864Y-69994255D01*
X196089940Y-70924970D01*
X195631501Y-71694882D01*
X195068270Y-72613347D01*
X194593860Y-73375234D01*
X194013414Y-74281408D01*
X193523242Y-75034825D01*
X192925856Y-75928374D01*
X192420080Y-76672985D01*
X191805982Y-77553654D01*
X191284851Y-78289006D01*
X190654123Y-79156749D01*
X190118021Y-79882233D01*
X189470841Y-80736859D01*
X188919945Y-81452183D01*
X188256640Y-82293312D01*
X187691146Y-82998170D01*
X187011859Y-83825664D01*
X186432165Y-84519519D01*
X185737041Y-85333234D01*
X185143403Y-86015752D01*
X184432722Y-86815381D01*
X183825417Y-87486220D01*
X183099341Y-88271603D01*
X182478724Y-88930358D01*
X181737474Y-89701264D01*
X181103824Y-90347629D01*
X180347629Y-91103824D01*
X179701264Y-91737474D01*
X178930358Y-92478724D01*
X178271603Y-93099341D01*
X177486220Y-93825417D01*
X176815381Y-94432722D01*
X176015752Y-95143403D01*
X175333234Y-95737041D01*
X174519519Y-96432165D01*
X173825664Y-97011859D01*
X172998170Y-97691146D01*
X172293312Y-98256640D01*
X171452183Y-98919945D01*
X170736859Y-99470841D01*
X169882233Y-100118021D01*
X169156749Y-100654123D01*
X168289006Y-101284851D01*
X167553654Y-101805982D01*
X166672985Y-102420080D01*
X165928374Y-102925856D01*
X165034825Y-103523242D01*
X164281408Y-104013414D01*
X163375234Y-104593860D01*
X162613347Y-105068270D01*
X161694882Y-105631501D01*
X160924970Y-106089940D01*
X159994255Y-106635864D01*
X159217051Y-107077971D01*
X158274173Y-107606460D01*
X157490000Y-108032138D01*
X156535298Y-108542916D01*
X155744725Y-108951949D01*
X154778195Y-109444927D01*
X153982010Y-109837013D01*
X153003621Y-110312101D01*
X152202376Y-110687089D01*
X151212301Y-111144082D01*
X150406599Y-111501820D01*
X149404909Y-111940558D01*
X148595518Y-112280850D01*
X147582086Y-112701245D01*
X146769909Y-113023875D01*
X145744657Y-113425798D01*
X144930419Y-113730662D01*
X143893227Y-114113977D01*
X143078157Y-114400824D01*
X142028544Y-114765502D01*
X141213780Y-115034173D01*
X140151408Y-115380093D01*
X139338017Y-115630508D01*
X138262506Y-115957526D01*
X137452084Y-116189506D01*
X136362533Y-116497587D01*
X135557154Y-116710908D01*
X134452220Y-117000066D01*
X133654325Y-117194527D01*
X132532381Y-117464747D01*
X131744640Y-117640231D01*
X130603771Y-117891449D01*
X129829757Y-118047805D01*
X128667108Y-118280014D01*
X127912012Y-118416994D01*
X126723115Y-118630294D01*
X125994539Y-118747565D01*
X124772563Y-118942150D01*
X124081761Y-119039304D01*
X122816245Y-119215454D01*
X122181521Y-119291895D01*
X120854885Y-119450103D01*
X120310147Y-119504753D01*
X118889311Y-119646001D01*
X118507573Y-119676652D01*
X116920278Y-119803072D01*
X114961094Y-119920504D01*
X113002851Y-119999382D01*
X112997108Y-119999347D01*
X112866585Y-119992507D01*
X112682985Y-119982196D01*
X112676758Y-119981530D01*
X112524369Y-119957394D01*
X112361835Y-119929778D01*
X112356171Y-119928541D01*
X112203297Y-119887579D01*
X112048273Y-119842916D01*
X112043217Y-119841221D01*
X111893829Y-119783877D01*
X111745997Y-119722643D01*
X111741575Y-119720604D01*
X111598078Y-119647488D01*
X111458531Y-119570364D01*
X111454767Y-119568106D01*
X111401875Y-119533758D01*
X111319127Y-119480019D01*
X111189243Y-119387862D01*
X111186102Y-119385480D01*
X111061260Y-119284385D01*
X111058964Y-119282431D01*
X110941277Y-119177260D01*
X110938750Y-119174870D01*
X110825128Y-119061248D01*
X110822738Y-119058721D01*
X110717567Y-118941034D01*
X110715613Y-118938738D01*
X110676848Y-118890867D01*
X110614510Y-118813886D01*
X110612136Y-118810755D01*
X110519980Y-118680872D01*
X110487133Y-118630294D01*
X110431882Y-118545215D01*
X110429641Y-118541480D01*
X110360841Y-118416994D01*
X110352511Y-118401921D01*
X110312899Y-118324180D01*
X110279388Y-118258412D01*
X110277355Y-118254000D01*
X110216122Y-118106170D01*
X110158769Y-117956759D01*
X110157082Y-117951724D01*
X110112420Y-117796702D01*
X110107316Y-117777652D01*
X110071453Y-117643811D01*
X110070226Y-117638194D01*
X110042601Y-117475606D01*
X110018465Y-117323212D01*
X110017803Y-117317027D01*
X110007503Y-117133628D01*
X110000584Y-117001620D01*
X110000500Y-116998377D01*
X110000500Y-108520004D01*
X117872200Y-108520004D01*
X117891364Y-108751295D01*
X117891366Y-108751306D01*
X117948342Y-108976298D01*
X118041575Y-109188846D01*
X118168518Y-109383148D01*
X118201170Y-109418617D01*
X118213922Y-109435045D01*
X118591982Y-110016959D01*
X118611998Y-110083900D01*
X118612000Y-110084514D01*
X118612000Y-110875855D01*
X118622413Y-110977776D01*
X118677137Y-111142922D01*
X118677142Y-111142933D01*
X118768471Y-111290999D01*
X118768474Y-111291003D01*
X118891496Y-111414025D01*
X118891500Y-111414028D01*
X119039566Y-111505357D01*
X119039569Y-111505358D01*
X119039575Y-111505362D01*
X119204725Y-111560087D01*
X119306652Y-111570500D01*
X119306657Y-111570500D01*
X119893343Y-111570500D01*
X119893348Y-111570500D01*
X119995275Y-111560087D01*
X120160425Y-111505362D01*
X120308503Y-111414026D01*
X120431526Y-111291003D01*
X120522862Y-111142925D01*
X120577587Y-110977775D01*
X120588000Y-110875848D01*
X120588000Y-109864152D01*
X120577587Y-109762225D01*
X120552222Y-109685681D01*
X120550167Y-109677757D01*
X120544907Y-109650074D01*
X120512833Y-109556619D01*
X120508269Y-109493384D01*
X120603156Y-108990455D01*
X120605576Y-108981319D01*
X120605397Y-108981274D01*
X120612823Y-108951949D01*
X120663634Y-108751303D01*
X120676183Y-108599844D01*
X120676576Y-108596332D01*
X120677063Y-108592890D01*
X120678363Y-108579081D01*
X120678348Y-108576671D01*
X120678559Y-108571166D01*
X120682800Y-108519998D01*
X120663634Y-108288693D01*
X120644637Y-108213675D01*
X120606657Y-108063697D01*
X120513424Y-107851149D01*
X120386483Y-107656850D01*
X120386480Y-107656847D01*
X120386479Y-107656845D01*
X120229284Y-107486085D01*
X120229279Y-107486081D01*
X120229277Y-107486079D01*
X120046134Y-107343533D01*
X120046128Y-107343529D01*
X119842004Y-107233062D01*
X119841995Y-107233059D01*
X119622484Y-107157700D01*
X119450782Y-107129048D01*
X119393549Y-107119498D01*
X119161451Y-107119498D01*
X119115664Y-107127138D01*
X118932515Y-107157700D01*
X118713004Y-107233059D01*
X118712995Y-107233062D01*
X118508871Y-107343529D01*
X118508865Y-107343533D01*
X118325722Y-107486079D01*
X118325719Y-107486082D01*
X118168516Y-107656850D01*
X118041575Y-107851149D01*
X117948342Y-108063697D01*
X117891366Y-108288689D01*
X117891364Y-108288700D01*
X117872200Y-108519991D01*
X117872200Y-108520004D01*
X110000500Y-108520004D01*
X110000500Y-105340004D01*
X133082200Y-105340004D01*
X133101364Y-105571295D01*
X133101366Y-105571306D01*
X133158342Y-105796298D01*
X133251575Y-106008846D01*
X133378518Y-106203148D01*
X133411170Y-106238617D01*
X133423922Y-106255045D01*
X133801982Y-106836959D01*
X133821998Y-106903900D01*
X133822000Y-106904514D01*
X133822000Y-107695855D01*
X133832413Y-107797776D01*
X133887137Y-107962922D01*
X133887142Y-107962933D01*
X133978471Y-108110999D01*
X133978474Y-108111003D01*
X134101496Y-108234025D01*
X134101500Y-108234028D01*
X134249566Y-108325357D01*
X134249569Y-108325358D01*
X134249575Y-108325362D01*
X134414725Y-108380087D01*
X134516652Y-108390500D01*
X134516657Y-108390500D01*
X135103343Y-108390500D01*
X135103348Y-108390500D01*
X135205275Y-108380087D01*
X135370425Y-108325362D01*
X135518503Y-108234026D01*
X135641526Y-108111003D01*
X135732862Y-107962925D01*
X135787587Y-107797775D01*
X135798000Y-107695848D01*
X135798000Y-106684152D01*
X135787587Y-106582225D01*
X135762222Y-106505681D01*
X135760167Y-106497757D01*
X135754907Y-106470074D01*
X135722833Y-106376619D01*
X135718269Y-106313384D01*
X135813156Y-105810455D01*
X135815576Y-105801319D01*
X135815397Y-105801274D01*
X135822636Y-105772685D01*
X135873634Y-105571303D01*
X135886183Y-105419844D01*
X135886576Y-105416332D01*
X135887063Y-105412890D01*
X135888363Y-105399081D01*
X135888348Y-105396671D01*
X135888559Y-105391166D01*
X135892800Y-105339998D01*
X135873634Y-105108693D01*
X135816657Y-104883698D01*
X135723424Y-104671149D01*
X135672929Y-104593860D01*
X135596483Y-104476850D01*
X135596480Y-104476847D01*
X135596479Y-104476845D01*
X135439284Y-104306085D01*
X135439279Y-104306081D01*
X135439277Y-104306079D01*
X135256134Y-104163533D01*
X135256128Y-104163529D01*
X135052004Y-104053062D01*
X135051995Y-104053059D01*
X134832484Y-103977700D01*
X134660782Y-103949048D01*
X134603549Y-103939498D01*
X134371451Y-103939498D01*
X134325664Y-103947138D01*
X134142515Y-103977700D01*
X133923004Y-104053059D01*
X133922995Y-104053062D01*
X133718871Y-104163529D01*
X133718865Y-104163533D01*
X133535722Y-104306079D01*
X133535719Y-104306082D01*
X133378516Y-104476850D01*
X133251575Y-104671149D01*
X133158342Y-104883697D01*
X133101366Y-105108689D01*
X133101364Y-105108700D01*
X133082200Y-105339991D01*
X133082200Y-105340004D01*
X110000500Y-105340004D01*
X110000500Y-98000002D01*
X112694652Y-98000002D01*
X112714028Y-98357368D01*
X112714029Y-98357385D01*
X112771926Y-98710539D01*
X112771932Y-98710565D01*
X112867672Y-99055392D01*
X112867674Y-99055399D01*
X113000142Y-99387870D01*
X113000151Y-99387888D01*
X113167784Y-99704077D01*
X113167787Y-99704082D01*
X113167789Y-99704085D01*
X113240485Y-99811304D01*
X113368634Y-100000309D01*
X113368641Y-100000319D01*
X113579742Y-100248846D01*
X113600332Y-100273086D01*
X113860163Y-100519211D01*
X114145081Y-100735800D01*
X114451747Y-100920315D01*
X114451749Y-100920316D01*
X114451751Y-100920317D01*
X114451755Y-100920319D01*
X114460051Y-100924157D01*
X114776565Y-101070591D01*
X115115726Y-101184868D01*
X115465254Y-101261805D01*
X115821052Y-101300500D01*
X115821058Y-101300500D01*
X116178942Y-101300500D01*
X116178948Y-101300500D01*
X116534746Y-101261805D01*
X116884274Y-101184868D01*
X117223435Y-101070591D01*
X117548253Y-100920315D01*
X117854919Y-100735800D01*
X118139837Y-100519211D01*
X118399668Y-100273086D01*
X118631365Y-100000311D01*
X118832211Y-99704085D01*
X118897995Y-99580004D01*
X147512200Y-99580004D01*
X147531364Y-99811295D01*
X147531366Y-99811306D01*
X147588342Y-100036298D01*
X147681575Y-100248846D01*
X147808518Y-100443148D01*
X147841170Y-100478617D01*
X147853922Y-100495045D01*
X148227843Y-101070589D01*
X148231982Y-101076959D01*
X148251998Y-101143900D01*
X148252000Y-101144514D01*
X148252000Y-101935855D01*
X148262413Y-102037776D01*
X148317137Y-102202922D01*
X148317142Y-102202933D01*
X148408471Y-102350999D01*
X148408474Y-102351003D01*
X148531496Y-102474025D01*
X148531500Y-102474028D01*
X148679566Y-102565357D01*
X148679569Y-102565358D01*
X148679575Y-102565362D01*
X148844725Y-102620087D01*
X148946652Y-102630500D01*
X148946657Y-102630500D01*
X149533343Y-102630500D01*
X149533348Y-102630500D01*
X149635275Y-102620087D01*
X149800425Y-102565362D01*
X149948503Y-102474026D01*
X150071526Y-102351003D01*
X150162862Y-102202925D01*
X150217587Y-102037775D01*
X150228000Y-101935848D01*
X150228000Y-100924152D01*
X150217587Y-100822225D01*
X150192222Y-100745681D01*
X150190167Y-100737757D01*
X150184907Y-100710074D01*
X150152833Y-100616619D01*
X150148269Y-100553384D01*
X150243156Y-100050455D01*
X150245576Y-100041319D01*
X150245397Y-100041274D01*
X150255771Y-100000309D01*
X150303634Y-99811303D01*
X150316183Y-99659844D01*
X150316576Y-99656332D01*
X150317063Y-99652890D01*
X150318363Y-99639081D01*
X150318348Y-99636671D01*
X150318559Y-99631166D01*
X150322800Y-99579998D01*
X150303634Y-99348693D01*
X150303633Y-99348689D01*
X150246657Y-99123697D01*
X150153424Y-98911149D01*
X150026483Y-98716850D01*
X150026480Y-98716847D01*
X150026479Y-98716845D01*
X149869284Y-98546085D01*
X149869279Y-98546081D01*
X149869277Y-98546079D01*
X149686134Y-98403533D01*
X149686128Y-98403529D01*
X149482004Y-98293062D01*
X149481995Y-98293059D01*
X149262484Y-98217700D01*
X149090782Y-98189048D01*
X149033549Y-98179498D01*
X148801451Y-98179498D01*
X148755664Y-98187138D01*
X148572515Y-98217700D01*
X148353004Y-98293059D01*
X148352995Y-98293062D01*
X148148871Y-98403529D01*
X148148865Y-98403533D01*
X147965722Y-98546079D01*
X147965719Y-98546082D01*
X147965716Y-98546084D01*
X147965716Y-98546085D01*
X147906767Y-98610120D01*
X147808516Y-98716850D01*
X147681575Y-98911149D01*
X147588342Y-99123697D01*
X147531366Y-99348689D01*
X147531364Y-99348700D01*
X147512200Y-99579991D01*
X147512200Y-99580004D01*
X118897995Y-99580004D01*
X118999853Y-99387880D01*
X119132324Y-99055403D01*
X119228071Y-98710552D01*
X119255034Y-98546085D01*
X119285970Y-98357385D01*
X119285970Y-98357382D01*
X119285972Y-98357371D01*
X119305348Y-98000000D01*
X119285972Y-97642629D01*
X119228071Y-97289448D01*
X119132324Y-96944597D01*
X119089868Y-96838041D01*
X118999857Y-96612129D01*
X118999848Y-96612111D01*
X118832215Y-96295922D01*
X118832213Y-96295919D01*
X118832211Y-96295915D01*
X118631365Y-95999689D01*
X118631361Y-95999684D01*
X118631358Y-95999680D01*
X118399668Y-95726914D01*
X118139837Y-95480789D01*
X118139830Y-95480783D01*
X118139827Y-95480781D01*
X118054878Y-95416205D01*
X117854919Y-95264200D01*
X117548253Y-95079685D01*
X117548252Y-95079684D01*
X117548248Y-95079682D01*
X117548244Y-95079680D01*
X117223447Y-94929414D01*
X117223441Y-94929411D01*
X117223435Y-94929409D01*
X117053854Y-94872270D01*
X116884273Y-94815131D01*
X116534744Y-94738194D01*
X116178949Y-94699500D01*
X116178948Y-94699500D01*
X115821052Y-94699500D01*
X115821050Y-94699500D01*
X115465255Y-94738194D01*
X115115726Y-94815131D01*
X114859970Y-94901306D01*
X114776565Y-94929409D01*
X114776563Y-94929410D01*
X114776552Y-94929414D01*
X114451755Y-95079680D01*
X114451751Y-95079682D01*
X114223367Y-95217096D01*
X114145081Y-95264200D01*
X114056768Y-95331333D01*
X113860172Y-95480781D01*
X113860163Y-95480789D01*
X113600331Y-95726914D01*
X113368641Y-95999680D01*
X113368634Y-95999690D01*
X113167790Y-96295913D01*
X113167784Y-96295922D01*
X113000151Y-96612111D01*
X113000142Y-96612129D01*
X112867674Y-96944600D01*
X112867672Y-96944607D01*
X112771932Y-97289434D01*
X112771926Y-97289460D01*
X112714029Y-97642614D01*
X112714028Y-97642627D01*
X112714028Y-97642629D01*
X112706277Y-97785577D01*
X112694652Y-97999997D01*
X112694652Y-98000002D01*
X110000500Y-98000002D01*
X110000500Y-91390004D01*
X160722200Y-91390004D01*
X160741364Y-91621295D01*
X160741366Y-91621306D01*
X160798342Y-91846298D01*
X160891575Y-92058846D01*
X161018518Y-92253148D01*
X161051170Y-92288617D01*
X161063922Y-92305045D01*
X161441982Y-92886959D01*
X161461998Y-92953900D01*
X161462000Y-92954514D01*
X161462000Y-93745855D01*
X161472413Y-93847776D01*
X161527137Y-94012922D01*
X161527142Y-94012933D01*
X161618471Y-94160999D01*
X161618474Y-94161003D01*
X161741496Y-94284025D01*
X161741500Y-94284028D01*
X161889566Y-94375357D01*
X161889569Y-94375358D01*
X161889575Y-94375362D01*
X162054725Y-94430087D01*
X162156652Y-94440500D01*
X162156657Y-94440500D01*
X162743343Y-94440500D01*
X162743348Y-94440500D01*
X162845275Y-94430087D01*
X163010425Y-94375362D01*
X163158503Y-94284026D01*
X163281526Y-94161003D01*
X163372862Y-94012925D01*
X163427587Y-93847775D01*
X163438000Y-93745848D01*
X163438000Y-92734152D01*
X163427587Y-92632225D01*
X163402222Y-92555681D01*
X163400167Y-92547757D01*
X163394907Y-92520074D01*
X163362833Y-92426619D01*
X163358269Y-92363384D01*
X163447439Y-91890755D01*
X174576166Y-91890755D01*
X174596448Y-92096686D01*
X174656518Y-92294713D01*
X174693223Y-92363381D01*
X174727026Y-92426622D01*
X174754066Y-92477208D01*
X174852445Y-92597083D01*
X175349684Y-93094322D01*
X175349689Y-93094326D01*
X175349690Y-93094327D01*
X175469563Y-93192704D01*
X175652059Y-93290251D01*
X175850079Y-93350319D01*
X175850078Y-93350319D01*
X175870361Y-93352316D01*
X176056013Y-93370602D01*
X176261947Y-93350319D01*
X176459968Y-93290251D01*
X176642463Y-93192704D01*
X176802423Y-93061429D01*
X176933698Y-92901469D01*
X177031245Y-92718974D01*
X177091313Y-92520953D01*
X177111596Y-92315019D01*
X177091313Y-92109085D01*
X177031245Y-91911065D01*
X176933698Y-91728569D01*
X176835321Y-91608696D01*
X176835320Y-91608695D01*
X176835316Y-91608690D01*
X176338077Y-91111451D01*
X176218202Y-91013072D01*
X176218200Y-91013071D01*
X176218199Y-91013070D01*
X176069705Y-90933697D01*
X176035707Y-90915524D01*
X176035704Y-90915523D01*
X175837683Y-90855455D01*
X175837680Y-90855454D01*
X175837682Y-90855454D01*
X175631749Y-90835172D01*
X175425817Y-90855454D01*
X175227790Y-90915524D01*
X175092443Y-90987870D01*
X175045299Y-91013070D01*
X175045297Y-91013071D01*
X175045296Y-91013072D01*
X174885338Y-91144344D01*
X174754066Y-91304302D01*
X174656518Y-91486796D01*
X174596448Y-91684823D01*
X174576166Y-91890755D01*
X163447439Y-91890755D01*
X163453156Y-91860455D01*
X163455576Y-91851319D01*
X163455397Y-91851274D01*
X163497548Y-91684823D01*
X163513634Y-91621303D01*
X163526183Y-91469844D01*
X163526576Y-91466332D01*
X163527063Y-91462890D01*
X163528363Y-91449081D01*
X163528348Y-91446671D01*
X163528559Y-91441166D01*
X163532800Y-91389998D01*
X163513634Y-91158693D01*
X163499739Y-91103824D01*
X163456657Y-90933697D01*
X163363424Y-90721149D01*
X163236483Y-90526850D01*
X163236480Y-90526847D01*
X163236479Y-90526845D01*
X163079284Y-90356085D01*
X163079279Y-90356081D01*
X163079277Y-90356079D01*
X162896134Y-90213533D01*
X162896128Y-90213529D01*
X162692004Y-90103062D01*
X162691995Y-90103059D01*
X162472484Y-90027700D01*
X162300782Y-89999048D01*
X162243549Y-89989498D01*
X162011451Y-89989498D01*
X161965664Y-89997138D01*
X161782515Y-90027700D01*
X161563004Y-90103059D01*
X161562995Y-90103062D01*
X161358871Y-90213529D01*
X161358865Y-90213533D01*
X161175722Y-90356079D01*
X161175719Y-90356082D01*
X161018516Y-90526850D01*
X160891575Y-90721149D01*
X160798342Y-90933697D01*
X160741366Y-91158689D01*
X160741364Y-91158700D01*
X160722200Y-91389991D01*
X160722200Y-91390004D01*
X110000500Y-91390004D01*
X110000500Y-87410004D01*
X117602200Y-87410004D01*
X117621364Y-87641295D01*
X117621366Y-87641306D01*
X117678342Y-87866298D01*
X117771575Y-88078846D01*
X117898518Y-88273148D01*
X117931170Y-88308617D01*
X117943922Y-88325045D01*
X118321982Y-88906959D01*
X118341998Y-88973900D01*
X118342000Y-88974514D01*
X118342000Y-89765855D01*
X118352413Y-89867776D01*
X118407137Y-90032922D01*
X118407142Y-90032933D01*
X118498471Y-90180999D01*
X118498474Y-90181003D01*
X118621496Y-90304025D01*
X118621500Y-90304028D01*
X118769566Y-90395357D01*
X118769569Y-90395358D01*
X118769575Y-90395362D01*
X118934725Y-90450087D01*
X119036652Y-90460500D01*
X119036657Y-90460500D01*
X119623343Y-90460500D01*
X119623348Y-90460500D01*
X119725275Y-90450087D01*
X119890425Y-90395362D01*
X120038503Y-90304026D01*
X120161526Y-90181003D01*
X120252862Y-90032925D01*
X120307587Y-89867775D01*
X120318000Y-89765848D01*
X120318000Y-89022870D01*
X146449500Y-89022870D01*
X146449501Y-89022876D01*
X146455908Y-89082483D01*
X146506202Y-89217328D01*
X146506206Y-89217335D01*
X146592452Y-89332544D01*
X146592455Y-89332547D01*
X146707664Y-89418793D01*
X146707671Y-89418797D01*
X146842517Y-89469091D01*
X146842516Y-89469091D01*
X146849444Y-89469835D01*
X146902127Y-89475500D01*
X148697872Y-89475499D01*
X148757483Y-89469091D01*
X148892331Y-89418796D01*
X149007546Y-89332546D01*
X149093796Y-89217331D01*
X149098862Y-89203749D01*
X171889160Y-89203749D01*
X171909442Y-89409680D01*
X171969512Y-89607707D01*
X172067060Y-89790202D01*
X172165439Y-89910077D01*
X172662678Y-90407316D01*
X172662683Y-90407320D01*
X172662684Y-90407321D01*
X172782557Y-90505698D01*
X172965053Y-90603245D01*
X173163073Y-90663313D01*
X173163072Y-90663313D01*
X173183355Y-90665310D01*
X173369007Y-90683596D01*
X173574941Y-90663313D01*
X173772962Y-90603245D01*
X173955457Y-90505698D01*
X174115417Y-90374423D01*
X174246692Y-90214463D01*
X174344239Y-90031968D01*
X174404307Y-89833947D01*
X174424590Y-89628013D01*
X174404307Y-89422079D01*
X174344239Y-89224059D01*
X174246692Y-89041563D01*
X174191666Y-88974514D01*
X174148310Y-88921684D01*
X173651071Y-88424445D01*
X173531196Y-88326066D01*
X173531194Y-88326065D01*
X173531193Y-88326064D01*
X173429305Y-88271603D01*
X173348701Y-88228518D01*
X173348698Y-88228517D01*
X173150677Y-88168449D01*
X173150674Y-88168448D01*
X173150676Y-88168448D01*
X172944743Y-88148166D01*
X172738811Y-88168448D01*
X172540784Y-88228518D01*
X172405437Y-88300864D01*
X172358293Y-88326064D01*
X172358291Y-88326065D01*
X172358290Y-88326066D01*
X172198332Y-88457338D01*
X172067060Y-88617296D01*
X172067058Y-88617299D01*
X172048386Y-88652231D01*
X171969512Y-88799790D01*
X171909442Y-88997817D01*
X171889160Y-89203749D01*
X149098862Y-89203749D01*
X149144091Y-89082483D01*
X149150500Y-89022873D01*
X149150499Y-87227128D01*
X149144091Y-87167517D01*
X149093796Y-87032669D01*
X149093795Y-87032668D01*
X149093793Y-87032664D01*
X149007547Y-86917455D01*
X149007544Y-86917452D01*
X148892335Y-86831206D01*
X148892328Y-86831202D01*
X148757482Y-86780908D01*
X148757483Y-86780908D01*
X148697883Y-86774501D01*
X148697881Y-86774500D01*
X148697873Y-86774500D01*
X148697864Y-86774500D01*
X146902129Y-86774500D01*
X146902123Y-86774501D01*
X146842516Y-86780908D01*
X146707671Y-86831202D01*
X146707664Y-86831206D01*
X146592455Y-86917452D01*
X146592452Y-86917455D01*
X146506206Y-87032664D01*
X146506202Y-87032671D01*
X146455908Y-87167517D01*
X146449501Y-87227116D01*
X146449501Y-87227123D01*
X146449500Y-87227135D01*
X146449500Y-89022870D01*
X120318000Y-89022870D01*
X120318000Y-88754152D01*
X120307587Y-88652225D01*
X120282222Y-88575681D01*
X120280167Y-88567757D01*
X120274907Y-88540074D01*
X120242833Y-88446619D01*
X120238269Y-88383384D01*
X120333156Y-87880455D01*
X120335576Y-87871319D01*
X120335397Y-87871274D01*
X120342636Y-87842685D01*
X120393634Y-87641303D01*
X120406183Y-87489844D01*
X120406576Y-87486332D01*
X120407063Y-87482890D01*
X120408363Y-87469081D01*
X120408348Y-87466671D01*
X120408559Y-87461166D01*
X120412800Y-87409998D01*
X120393634Y-87178693D01*
X120390804Y-87167516D01*
X120336657Y-86953697D01*
X120243424Y-86741149D01*
X120116483Y-86546850D01*
X120116480Y-86546847D01*
X120116479Y-86546845D01*
X119959284Y-86376085D01*
X119959279Y-86376081D01*
X119959277Y-86376079D01*
X119776134Y-86233533D01*
X119776128Y-86233529D01*
X119572004Y-86123062D01*
X119571995Y-86123059D01*
X119352484Y-86047700D01*
X119161027Y-86015752D01*
X119123549Y-86009498D01*
X118891451Y-86009498D01*
X118853973Y-86015752D01*
X118662515Y-86047700D01*
X118443004Y-86123059D01*
X118442995Y-86123062D01*
X118238871Y-86233529D01*
X118238865Y-86233533D01*
X118055722Y-86376079D01*
X118055719Y-86376082D01*
X117898516Y-86546850D01*
X117771575Y-86741149D01*
X117678342Y-86953697D01*
X117621366Y-87178689D01*
X117621364Y-87178700D01*
X117602200Y-87409991D01*
X117602200Y-87410004D01*
X110000500Y-87410004D01*
X110000500Y-83440004D01*
X132342200Y-83440004D01*
X132361364Y-83671295D01*
X132361366Y-83671306D01*
X132418342Y-83896298D01*
X132511575Y-84108846D01*
X132638518Y-84303148D01*
X132671170Y-84338617D01*
X132683922Y-84355045D01*
X133061982Y-84936959D01*
X133081998Y-85003900D01*
X133082000Y-85004514D01*
X133082000Y-85795855D01*
X133092413Y-85897776D01*
X133147137Y-86062922D01*
X133147142Y-86062933D01*
X133238471Y-86210999D01*
X133238474Y-86211003D01*
X133361496Y-86334025D01*
X133361500Y-86334028D01*
X133509566Y-86425357D01*
X133509569Y-86425358D01*
X133509575Y-86425362D01*
X133674725Y-86480087D01*
X133776652Y-86490500D01*
X133776657Y-86490500D01*
X134363343Y-86490500D01*
X134363348Y-86490500D01*
X134465275Y-86480087D01*
X134630425Y-86425362D01*
X134778503Y-86334026D01*
X134901526Y-86211003D01*
X134992862Y-86062925D01*
X135047587Y-85897775D01*
X135058000Y-85795848D01*
X135058000Y-85781353D01*
X180685568Y-85781353D01*
X180705850Y-85987284D01*
X180765920Y-86185311D01*
X180863468Y-86367806D01*
X180961847Y-86487681D01*
X181459086Y-86984920D01*
X181459091Y-86984924D01*
X181459092Y-86984925D01*
X181578965Y-87083302D01*
X181761461Y-87180849D01*
X181959481Y-87240917D01*
X181959480Y-87240917D01*
X181979763Y-87242914D01*
X182165415Y-87261200D01*
X182371349Y-87240917D01*
X182569370Y-87180849D01*
X182751865Y-87083302D01*
X182911825Y-86952027D01*
X183043100Y-86792067D01*
X183140647Y-86609572D01*
X183200715Y-86411551D01*
X183220998Y-86205617D01*
X183200715Y-85999683D01*
X183140647Y-85801663D01*
X183043100Y-85619167D01*
X182944723Y-85499294D01*
X182944722Y-85499293D01*
X182944718Y-85499288D01*
X182447479Y-85002049D01*
X182327604Y-84903670D01*
X182327602Y-84903669D01*
X182327601Y-84903668D01*
X182255255Y-84864997D01*
X182145109Y-84806122D01*
X182145106Y-84806121D01*
X181947085Y-84746053D01*
X181947082Y-84746052D01*
X181947084Y-84746052D01*
X181741151Y-84725770D01*
X181535219Y-84746052D01*
X181337192Y-84806122D01*
X181201845Y-84878468D01*
X181154701Y-84903668D01*
X181154699Y-84903669D01*
X181154698Y-84903670D01*
X180994740Y-85034942D01*
X180863468Y-85194900D01*
X180765920Y-85377394D01*
X180705850Y-85575421D01*
X180685568Y-85781353D01*
X135058000Y-85781353D01*
X135058000Y-84784152D01*
X135047587Y-84682225D01*
X135022222Y-84605681D01*
X135020167Y-84597757D01*
X135014907Y-84570074D01*
X134982833Y-84476619D01*
X134978269Y-84413384D01*
X135073156Y-83910455D01*
X135075576Y-83901319D01*
X135075397Y-83901274D01*
X135100872Y-83800675D01*
X135133634Y-83671303D01*
X135146183Y-83519844D01*
X135146576Y-83516332D01*
X135147063Y-83512890D01*
X135148363Y-83499081D01*
X135148348Y-83496671D01*
X135148559Y-83491166D01*
X135152800Y-83439998D01*
X135133634Y-83208693D01*
X135109820Y-83114654D01*
X135104678Y-83094347D01*
X177998562Y-83094347D01*
X178018844Y-83300278D01*
X178048879Y-83399291D01*
X178061228Y-83440003D01*
X178078914Y-83498305D01*
X178137789Y-83608451D01*
X178171385Y-83671303D01*
X178176462Y-83680800D01*
X178274841Y-83800675D01*
X178772080Y-84297914D01*
X178772085Y-84297918D01*
X178772086Y-84297919D01*
X178891959Y-84396296D01*
X179074455Y-84493843D01*
X179272475Y-84553911D01*
X179272474Y-84553911D01*
X179292757Y-84555908D01*
X179478409Y-84574194D01*
X179684343Y-84553911D01*
X179882364Y-84493843D01*
X180064859Y-84396296D01*
X180224819Y-84265021D01*
X180356094Y-84105061D01*
X180453641Y-83922566D01*
X180513709Y-83724545D01*
X180533992Y-83518611D01*
X180513709Y-83312677D01*
X180453641Y-83114657D01*
X180356094Y-82932161D01*
X180257717Y-82812288D01*
X180257716Y-82812287D01*
X180257712Y-82812282D01*
X179760473Y-82315043D01*
X179640598Y-82216664D01*
X179640596Y-82216663D01*
X179640595Y-82216662D01*
X179568249Y-82177991D01*
X179458103Y-82119116D01*
X179458100Y-82119115D01*
X179260079Y-82059047D01*
X179260076Y-82059046D01*
X179260078Y-82059046D01*
X179054145Y-82038764D01*
X178848213Y-82059046D01*
X178650186Y-82119116D01*
X178514839Y-82191462D01*
X178467695Y-82216662D01*
X178467693Y-82216663D01*
X178467692Y-82216664D01*
X178307734Y-82347936D01*
X178176462Y-82507894D01*
X178078914Y-82690388D01*
X178018844Y-82888415D01*
X177998562Y-83094347D01*
X135104678Y-83094347D01*
X135076657Y-82983697D01*
X134983424Y-82771149D01*
X134856483Y-82576850D01*
X134856480Y-82576847D01*
X134856479Y-82576845D01*
X134699284Y-82406085D01*
X134699279Y-82406081D01*
X134699277Y-82406079D01*
X134516134Y-82263533D01*
X134516128Y-82263529D01*
X134312004Y-82153062D01*
X134311995Y-82153059D01*
X134092484Y-82077700D01*
X133920782Y-82049048D01*
X133863549Y-82039498D01*
X133631451Y-82039498D01*
X133585664Y-82047138D01*
X133402515Y-82077700D01*
X133183004Y-82153059D01*
X133182995Y-82153062D01*
X132978871Y-82263529D01*
X132978865Y-82263533D01*
X132795722Y-82406079D01*
X132795719Y-82406082D01*
X132638516Y-82576850D01*
X132511575Y-82771149D01*
X132418342Y-82983697D01*
X132361366Y-83208689D01*
X132361364Y-83208700D01*
X132342200Y-83439991D01*
X132342200Y-83440004D01*
X110000500Y-83440004D01*
X110000500Y-79600000D01*
X164844815Y-79600000D01*
X164863503Y-79777805D01*
X164863504Y-79777807D01*
X164918747Y-79947829D01*
X164918750Y-79947835D01*
X165008141Y-80102665D01*
X165023613Y-80119848D01*
X165127764Y-80235521D01*
X165127767Y-80235523D01*
X165127770Y-80235526D01*
X165272407Y-80340612D01*
X165435733Y-80413329D01*
X165610609Y-80450500D01*
X165610610Y-80450500D01*
X165789389Y-80450500D01*
X165789391Y-80450500D01*
X165825200Y-80442887D01*
X165829285Y-80442162D01*
X166461443Y-80351855D01*
X166461474Y-80351849D01*
X166462202Y-80351746D01*
X166479738Y-80350500D01*
X170812525Y-80350500D01*
X170879564Y-80370185D01*
X170890069Y-80377737D01*
X171664685Y-80998490D01*
X171691122Y-81027696D01*
X171856489Y-81282231D01*
X172021982Y-81536959D01*
X172041998Y-81603900D01*
X172042000Y-81604514D01*
X172042000Y-82395855D01*
X172052413Y-82497776D01*
X172107137Y-82662922D01*
X172107142Y-82662933D01*
X172198471Y-82810999D01*
X172198474Y-82811003D01*
X172321496Y-82934025D01*
X172321500Y-82934028D01*
X172469566Y-83025357D01*
X172469569Y-83025358D01*
X172469575Y-83025362D01*
X172634725Y-83080087D01*
X172736652Y-83090500D01*
X172736657Y-83090500D01*
X173323343Y-83090500D01*
X173323348Y-83090500D01*
X173425275Y-83080087D01*
X173590425Y-83025362D01*
X173738503Y-82934026D01*
X173861526Y-82811003D01*
X173952862Y-82662925D01*
X174007587Y-82497775D01*
X174018000Y-82395848D01*
X174018000Y-81384152D01*
X174007587Y-81282225D01*
X173982222Y-81205681D01*
X173980167Y-81197757D01*
X173974907Y-81170074D01*
X173942833Y-81076619D01*
X173938269Y-81013384D01*
X174033156Y-80510455D01*
X174035576Y-80501319D01*
X174035397Y-80501274D01*
X174073235Y-80351855D01*
X174093634Y-80271303D01*
X174106183Y-80119844D01*
X174106576Y-80116332D01*
X174107063Y-80112890D01*
X174107058Y-80112930D01*
X174106956Y-80114016D01*
X174109548Y-80100048D01*
X174109144Y-80099966D01*
X174110029Y-80095640D01*
X174110033Y-80095627D01*
X174253676Y-79001463D01*
X174281918Y-78937559D01*
X174288927Y-78929937D01*
X182450319Y-70768546D01*
X182511642Y-70735061D01*
X182581334Y-70740045D01*
X182637267Y-70781917D01*
X182661684Y-70847381D01*
X182662000Y-70856227D01*
X182662000Y-71185855D01*
X182672413Y-71287776D01*
X182727137Y-71452922D01*
X182727142Y-71452933D01*
X182818471Y-71600999D01*
X182818474Y-71601003D01*
X182941496Y-71724025D01*
X182941500Y-71724028D01*
X183089566Y-71815357D01*
X183089569Y-71815358D01*
X183089575Y-71815362D01*
X183254725Y-71870087D01*
X183356652Y-71880500D01*
X183356657Y-71880500D01*
X183943343Y-71880500D01*
X183943348Y-71880500D01*
X184045275Y-71870087D01*
X184210425Y-71815362D01*
X184358503Y-71724026D01*
X184481526Y-71601003D01*
X184572862Y-71452925D01*
X184627587Y-71287775D01*
X184638000Y-71185848D01*
X184638000Y-70174152D01*
X184627587Y-70072225D01*
X184602222Y-69995681D01*
X184600167Y-69987757D01*
X184594907Y-69960074D01*
X184562833Y-69866619D01*
X184558269Y-69803384D01*
X184653156Y-69300455D01*
X184655576Y-69291319D01*
X184655397Y-69291274D01*
X184672088Y-69225362D01*
X184713634Y-69061303D01*
X184724507Y-68930075D01*
X184726183Y-68909851D01*
X184726579Y-68906313D01*
X184727063Y-68902890D01*
X184728363Y-68889081D01*
X184728348Y-68886671D01*
X184728559Y-68881166D01*
X184732800Y-68829998D01*
X184713634Y-68598693D01*
X184656657Y-68373698D01*
X184622951Y-68296857D01*
X184563424Y-68161149D01*
X184436483Y-67966850D01*
X184436480Y-67966847D01*
X184436479Y-67966845D01*
X184279284Y-67796085D01*
X184279279Y-67796081D01*
X184279277Y-67796079D01*
X184096134Y-67653533D01*
X184096128Y-67653529D01*
X183892004Y-67543062D01*
X183891995Y-67543059D01*
X183672484Y-67467700D01*
X183500782Y-67439048D01*
X183443549Y-67429498D01*
X183211451Y-67429498D01*
X183165664Y-67437138D01*
X182982515Y-67467700D01*
X182763004Y-67543059D01*
X182762995Y-67543062D01*
X182558871Y-67653529D01*
X182558865Y-67653533D01*
X182375722Y-67796079D01*
X182375719Y-67796082D01*
X182375716Y-67796084D01*
X182375716Y-67796085D01*
X182316767Y-67860120D01*
X182218516Y-67966850D01*
X182091579Y-68161143D01*
X182091574Y-68161151D01*
X182046827Y-68263163D01*
X182042964Y-68270570D01*
X182026912Y-68296865D01*
X181455823Y-69627791D01*
X181429552Y-69666576D01*
X173124961Y-77971168D01*
X173118532Y-77976769D01*
X172190993Y-78678862D01*
X172131647Y-78703020D01*
X171578816Y-78772638D01*
X170986952Y-78847171D01*
X170980693Y-78848101D01*
X170980353Y-78848152D01*
X170962121Y-78849500D01*
X166479731Y-78849500D01*
X166462194Y-78848254D01*
X166461449Y-78848147D01*
X166461444Y-78848146D01*
X166031120Y-78786670D01*
X165829303Y-78757838D01*
X165825181Y-78757106D01*
X165789393Y-78749500D01*
X165789391Y-78749500D01*
X165772558Y-78749500D01*
X165765931Y-78749145D01*
X165758575Y-78748355D01*
X165748177Y-78747602D01*
X165748175Y-78747602D01*
X165658419Y-78749039D01*
X165651441Y-78749500D01*
X165610609Y-78749500D01*
X165579954Y-78756015D01*
X165435733Y-78786670D01*
X165435728Y-78786672D01*
X165272408Y-78859387D01*
X165127768Y-78964475D01*
X165008140Y-79097336D01*
X164918750Y-79252164D01*
X164918747Y-79252170D01*
X164863504Y-79422192D01*
X164863503Y-79422194D01*
X164844815Y-79600000D01*
X110000500Y-79600000D01*
X110000500Y-76280004D01*
X145832200Y-76280004D01*
X145851364Y-76511295D01*
X145851366Y-76511306D01*
X145908342Y-76736298D01*
X146001575Y-76948846D01*
X146128518Y-77143148D01*
X146161170Y-77178617D01*
X146173922Y-77195045D01*
X146551982Y-77776959D01*
X146571998Y-77843900D01*
X146572000Y-77844514D01*
X146572000Y-78635855D01*
X146582413Y-78737776D01*
X146637137Y-78902922D01*
X146637142Y-78902933D01*
X146728471Y-79050999D01*
X146728474Y-79051003D01*
X146851496Y-79174025D01*
X146851500Y-79174028D01*
X146999566Y-79265357D01*
X146999569Y-79265358D01*
X146999575Y-79265362D01*
X147164725Y-79320087D01*
X147266652Y-79330500D01*
X147266657Y-79330500D01*
X147853343Y-79330500D01*
X147853348Y-79330500D01*
X147955275Y-79320087D01*
X148120425Y-79265362D01*
X148268503Y-79174026D01*
X148391526Y-79051003D01*
X148482862Y-78902925D01*
X148537587Y-78737775D01*
X148548000Y-78635848D01*
X148548000Y-77624152D01*
X148537587Y-77522225D01*
X148512222Y-77445681D01*
X148510167Y-77437757D01*
X148504907Y-77410074D01*
X148472833Y-77316619D01*
X148468269Y-77253384D01*
X148563156Y-76750455D01*
X148565576Y-76741319D01*
X148565397Y-76741274D01*
X148574814Y-76704086D01*
X148623634Y-76511303D01*
X148636183Y-76359844D01*
X148636576Y-76356332D01*
X148637063Y-76352890D01*
X148638363Y-76339081D01*
X148638348Y-76336671D01*
X148638559Y-76331166D01*
X148642800Y-76279998D01*
X148623634Y-76048693D01*
X148566657Y-75823698D01*
X148517026Y-75710552D01*
X148473424Y-75611149D01*
X148346483Y-75416850D01*
X148346480Y-75416847D01*
X148346479Y-75416845D01*
X148189284Y-75246085D01*
X148189279Y-75246081D01*
X148189277Y-75246079D01*
X148006134Y-75103533D01*
X148006128Y-75103529D01*
X147814828Y-75000002D01*
X161694652Y-75000002D01*
X161714028Y-75357368D01*
X161714029Y-75357385D01*
X161771926Y-75710539D01*
X161771932Y-75710565D01*
X161867672Y-76055392D01*
X161867674Y-76055399D01*
X162000142Y-76387870D01*
X162000151Y-76387888D01*
X162167784Y-76704077D01*
X162167787Y-76704082D01*
X162167789Y-76704085D01*
X162193034Y-76741319D01*
X162368634Y-77000309D01*
X162368641Y-77000319D01*
X162489964Y-77143151D01*
X162600332Y-77273086D01*
X162860163Y-77519211D01*
X163145081Y-77735800D01*
X163451747Y-77920315D01*
X163451749Y-77920316D01*
X163451751Y-77920317D01*
X163451755Y-77920319D01*
X163636977Y-78006011D01*
X163776565Y-78070591D01*
X164115726Y-78184868D01*
X164465254Y-78261805D01*
X164821052Y-78300500D01*
X164821058Y-78300500D01*
X165178942Y-78300500D01*
X165178948Y-78300500D01*
X165534746Y-78261805D01*
X165884274Y-78184868D01*
X166223435Y-78070591D01*
X166548253Y-77920315D01*
X166854919Y-77735800D01*
X167139837Y-77519211D01*
X167399668Y-77273086D01*
X167631365Y-77000311D01*
X167832211Y-76704085D01*
X167999853Y-76387880D01*
X168132324Y-76055403D01*
X168228071Y-75710552D01*
X168285972Y-75357371D01*
X168305348Y-75000000D01*
X168285972Y-74642629D01*
X168228071Y-74289448D01*
X168132324Y-73944597D01*
X167999853Y-73612120D01*
X167925807Y-73472456D01*
X167832215Y-73295922D01*
X167832213Y-73295919D01*
X167832211Y-73295915D01*
X167631365Y-72999689D01*
X167631361Y-72999684D01*
X167631358Y-72999680D01*
X167399668Y-72726914D01*
X167139837Y-72480789D01*
X167139830Y-72480783D01*
X167139827Y-72480781D01*
X167072245Y-72429407D01*
X166854919Y-72264200D01*
X166548253Y-72079685D01*
X166548252Y-72079684D01*
X166548248Y-72079682D01*
X166548244Y-72079680D01*
X166223447Y-71929414D01*
X166223441Y-71929411D01*
X166223435Y-71929409D01*
X166047371Y-71870086D01*
X165884273Y-71815131D01*
X165534744Y-71738194D01*
X165178949Y-71699500D01*
X165178948Y-71699500D01*
X164821052Y-71699500D01*
X164821050Y-71699500D01*
X164465255Y-71738194D01*
X164115726Y-71815131D01*
X163859970Y-71901306D01*
X163776565Y-71929409D01*
X163776563Y-71929410D01*
X163776552Y-71929414D01*
X163451755Y-72079680D01*
X163451751Y-72079682D01*
X163223367Y-72217096D01*
X163145081Y-72264200D01*
X163056768Y-72331333D01*
X162860172Y-72480781D01*
X162860163Y-72480789D01*
X162600331Y-72726914D01*
X162368641Y-72999680D01*
X162368634Y-72999690D01*
X162167790Y-73295913D01*
X162167784Y-73295922D01*
X162000151Y-73612111D01*
X162000142Y-73612129D01*
X161867674Y-73944600D01*
X161867672Y-73944607D01*
X161771932Y-74289434D01*
X161771926Y-74289460D01*
X161714029Y-74642614D01*
X161714028Y-74642631D01*
X161694652Y-74999997D01*
X161694652Y-75000002D01*
X147814828Y-75000002D01*
X147802004Y-74993062D01*
X147801995Y-74993059D01*
X147582484Y-74917700D01*
X147410782Y-74889048D01*
X147353549Y-74879498D01*
X147121451Y-74879498D01*
X147075664Y-74887138D01*
X146892515Y-74917700D01*
X146673004Y-74993059D01*
X146672995Y-74993062D01*
X146468871Y-75103529D01*
X146468865Y-75103533D01*
X146285722Y-75246079D01*
X146285719Y-75246082D01*
X146128516Y-75416850D01*
X146001575Y-75611149D01*
X145908342Y-75823697D01*
X145851366Y-76048689D01*
X145851364Y-76048700D01*
X145832200Y-76279991D01*
X145832200Y-76280004D01*
X110000500Y-76280004D01*
X110000500Y-66240004D01*
X117112200Y-66240004D01*
X117131364Y-66471295D01*
X117131366Y-66471306D01*
X117188342Y-66696298D01*
X117281575Y-66908846D01*
X117408518Y-67103148D01*
X117441170Y-67138617D01*
X117453922Y-67155045D01*
X117831982Y-67736959D01*
X117851998Y-67803900D01*
X117852000Y-67804514D01*
X117852000Y-68595855D01*
X117862413Y-68697776D01*
X117917137Y-68862922D01*
X117917142Y-68862933D01*
X118008471Y-69010999D01*
X118008474Y-69011003D01*
X118131496Y-69134025D01*
X118131500Y-69134028D01*
X118279566Y-69225357D01*
X118279569Y-69225358D01*
X118279575Y-69225362D01*
X118444725Y-69280087D01*
X118546652Y-69290500D01*
X118546657Y-69290500D01*
X119133343Y-69290500D01*
X119133348Y-69290500D01*
X119235275Y-69280087D01*
X119400425Y-69225362D01*
X119548503Y-69134026D01*
X119671526Y-69011003D01*
X119762862Y-68862925D01*
X119817587Y-68697775D01*
X119828000Y-68595848D01*
X119828000Y-67584152D01*
X119817587Y-67482225D01*
X119792222Y-67405681D01*
X119790167Y-67397757D01*
X119784907Y-67370074D01*
X119752833Y-67276619D01*
X119748269Y-67213384D01*
X119843156Y-66710455D01*
X119845576Y-66701319D01*
X119845397Y-66701274D01*
X119861891Y-66636140D01*
X119903634Y-66471303D01*
X119916183Y-66319844D01*
X119916576Y-66316332D01*
X119917063Y-66312890D01*
X119918363Y-66299081D01*
X119918348Y-66296671D01*
X119918559Y-66291166D01*
X119922800Y-66239998D01*
X119903634Y-66008693D01*
X119888221Y-65947829D01*
X119846657Y-65783697D01*
X119766079Y-65600000D01*
X152944815Y-65600000D01*
X152963503Y-65777805D01*
X152963504Y-65777807D01*
X153018747Y-65947829D01*
X153018750Y-65947835D01*
X153108141Y-66102665D01*
X153149812Y-66148946D01*
X153227764Y-66235521D01*
X153227767Y-66235523D01*
X153227770Y-66235526D01*
X153372407Y-66340612D01*
X153535733Y-66413329D01*
X153710609Y-66450500D01*
X153710610Y-66450500D01*
X153889389Y-66450500D01*
X153889391Y-66450500D01*
X153925200Y-66442887D01*
X153929285Y-66442162D01*
X154561443Y-66351855D01*
X154561474Y-66351849D01*
X154562202Y-66351746D01*
X154579738Y-66350500D01*
X156137770Y-66350500D01*
X156204809Y-66370185D01*
X156225451Y-66386819D01*
X156474751Y-66636118D01*
X156474771Y-66636140D01*
X156496548Y-66657916D01*
X156496552Y-66657924D01*
X156532869Y-66694240D01*
X156532869Y-66694241D01*
X156602461Y-66763832D01*
X156761704Y-66879527D01*
X156937084Y-66968886D01*
X157124285Y-67029709D01*
X157318696Y-67060499D01*
X157417113Y-67060498D01*
X157547816Y-67060498D01*
X157614855Y-67080183D01*
X157651624Y-67116676D01*
X157688519Y-67173148D01*
X157688522Y-67173152D01*
X157721170Y-67208617D01*
X157733922Y-67225045D01*
X158110393Y-67804514D01*
X158111982Y-67806959D01*
X158131998Y-67873900D01*
X158132000Y-67874514D01*
X158132000Y-68665855D01*
X158142413Y-68767776D01*
X158197137Y-68932922D01*
X158197142Y-68932933D01*
X158288471Y-69080999D01*
X158288474Y-69081003D01*
X158411496Y-69204025D01*
X158411500Y-69204028D01*
X158559566Y-69295357D01*
X158559569Y-69295358D01*
X158559575Y-69295362D01*
X158724725Y-69350087D01*
X158826652Y-69360500D01*
X158826657Y-69360500D01*
X159413343Y-69360500D01*
X159413348Y-69360500D01*
X159515275Y-69350087D01*
X159680425Y-69295362D01*
X159828503Y-69204026D01*
X159951526Y-69081003D01*
X160042862Y-68932925D01*
X160097587Y-68767775D01*
X160108000Y-68665848D01*
X160108000Y-67835000D01*
X167524540Y-67835000D01*
X167544326Y-68023256D01*
X167544327Y-68023259D01*
X167602818Y-68203277D01*
X167602821Y-68203284D01*
X167697467Y-68367216D01*
X167824129Y-68507888D01*
X167977268Y-68619150D01*
X167977272Y-68619152D01*
X168030459Y-68642832D01*
X168050138Y-68653837D01*
X168063123Y-68662741D01*
X168586776Y-68921023D01*
X168619601Y-68944547D01*
X170089334Y-70414280D01*
X170112609Y-70446601D01*
X170372164Y-70966814D01*
X170372816Y-70968275D01*
X170372820Y-70968283D01*
X170372821Y-70968284D01*
X170373594Y-70969622D01*
X170379142Y-70979820D01*
X170390398Y-71000511D01*
X170393470Y-71005124D01*
X170393295Y-71005240D01*
X170398815Y-71013307D01*
X170467467Y-71132216D01*
X170515758Y-71185848D01*
X170594129Y-71272888D01*
X170747265Y-71384148D01*
X170747270Y-71384151D01*
X170920192Y-71461142D01*
X170920197Y-71461144D01*
X171105354Y-71500500D01*
X171105355Y-71500500D01*
X171294644Y-71500500D01*
X171294646Y-71500500D01*
X171479803Y-71461144D01*
X171652730Y-71384151D01*
X171805871Y-71272888D01*
X171852061Y-71221588D01*
X171911546Y-71184941D01*
X171981403Y-71186270D01*
X172039451Y-71225156D01*
X172053570Y-71246112D01*
X172179632Y-71481999D01*
X172193923Y-71507001D01*
X172196942Y-71511366D01*
X172196686Y-71511542D01*
X172203263Y-71521011D01*
X172267467Y-71632216D01*
X172350135Y-71724028D01*
X172394129Y-71772888D01*
X172547265Y-71884148D01*
X172547270Y-71884151D01*
X172720192Y-71961142D01*
X172720197Y-71961144D01*
X172905354Y-72000500D01*
X172905355Y-72000500D01*
X173094644Y-72000500D01*
X173094646Y-72000500D01*
X173279803Y-71961144D01*
X173452730Y-71884151D01*
X173605871Y-71772888D01*
X173732533Y-71632216D01*
X173827179Y-71468284D01*
X173885674Y-71288256D01*
X173905460Y-71100000D01*
X173885674Y-70911744D01*
X173827179Y-70731716D01*
X173732533Y-70567784D01*
X173605871Y-70427112D01*
X173605870Y-70427111D01*
X173452732Y-70315849D01*
X173386418Y-70286324D01*
X173370511Y-70277804D01*
X173349676Y-70264609D01*
X173349674Y-70264608D01*
X172826065Y-70029654D01*
X172789149Y-70004203D01*
X169539547Y-66754601D01*
X169516023Y-66721776D01*
X169278392Y-66239991D01*
X169258388Y-66199434D01*
X169257182Y-66196726D01*
X169257179Y-66196716D01*
X169254160Y-66191487D01*
X169240159Y-66165541D01*
X169237086Y-66160896D01*
X169237252Y-66160785D01*
X169231952Y-66153022D01*
X169162533Y-66032784D01*
X169035871Y-65892112D01*
X169035870Y-65892111D01*
X168882734Y-65780851D01*
X168882729Y-65780848D01*
X168709807Y-65703857D01*
X168709802Y-65703855D01*
X168564001Y-65672865D01*
X168524646Y-65664500D01*
X168335354Y-65664500D01*
X168302897Y-65671398D01*
X168150197Y-65703855D01*
X168150192Y-65703857D01*
X167977270Y-65780848D01*
X167977265Y-65780851D01*
X167824129Y-65892111D01*
X167697466Y-66032785D01*
X167602821Y-66196715D01*
X167602818Y-66196722D01*
X167546457Y-66370185D01*
X167544326Y-66376744D01*
X167524540Y-66565000D01*
X167544326Y-66753256D01*
X167544327Y-66753259D01*
X167602818Y-66933277D01*
X167602821Y-66933284D01*
X167697467Y-67097216D01*
X167702811Y-67103151D01*
X167715307Y-67117030D01*
X167745535Y-67180022D01*
X167736909Y-67249357D01*
X167715307Y-67282970D01*
X167697466Y-67302785D01*
X167602821Y-67466715D01*
X167602818Y-67466722D01*
X167544327Y-67646740D01*
X167544326Y-67646744D01*
X167524540Y-67835000D01*
X160108000Y-67835000D01*
X160108000Y-67654152D01*
X160097587Y-67552225D01*
X160072222Y-67475681D01*
X160070167Y-67467757D01*
X160064907Y-67440074D01*
X160032833Y-67346619D01*
X160028269Y-67283384D01*
X160123156Y-66780455D01*
X160125576Y-66771319D01*
X160125397Y-66771274D01*
X160143544Y-66699614D01*
X160183634Y-66541303D01*
X160196183Y-66389844D01*
X160196576Y-66386332D01*
X160197063Y-66382890D01*
X160198363Y-66369081D01*
X160198348Y-66366671D01*
X160198559Y-66361166D01*
X160199443Y-66350500D01*
X160202800Y-66309998D01*
X160183634Y-66078693D01*
X160165909Y-66008700D01*
X160126657Y-65853697D01*
X160033424Y-65641149D01*
X159906483Y-65446850D01*
X159906480Y-65446847D01*
X159906479Y-65446845D01*
X159749284Y-65276085D01*
X159749279Y-65276081D01*
X159749277Y-65276079D01*
X159566134Y-65133533D01*
X159566128Y-65133529D01*
X159362004Y-65023062D01*
X159361995Y-65023059D01*
X159142484Y-64947700D01*
X158970782Y-64919048D01*
X158913549Y-64909498D01*
X158681451Y-64909498D01*
X158635664Y-64917138D01*
X158452515Y-64947700D01*
X158233004Y-65023059D01*
X158232995Y-65023062D01*
X158028871Y-65133529D01*
X158028865Y-65133533D01*
X157845722Y-65276079D01*
X157845719Y-65276082D01*
X157845716Y-65276084D01*
X157845716Y-65276085D01*
X157688521Y-65446845D01*
X157688519Y-65446846D01*
X157688516Y-65446851D01*
X157661268Y-65488556D01*
X157608121Y-65533911D01*
X157538889Y-65543333D01*
X157475554Y-65513830D01*
X157469780Y-65508413D01*
X157383559Y-65422192D01*
X157235046Y-65273678D01*
X157235028Y-65273658D01*
X157217150Y-65255781D01*
X157217141Y-65255765D01*
X157107540Y-65146166D01*
X157107536Y-65146162D01*
X156948290Y-65030467D01*
X156948291Y-65030467D01*
X156772922Y-64941115D01*
X156772905Y-64941108D01*
X156585712Y-64880288D01*
X156391305Y-64849498D01*
X156391300Y-64849498D01*
X156292882Y-64849500D01*
X154579731Y-64849500D01*
X154562194Y-64848254D01*
X154561449Y-64848147D01*
X154561444Y-64848146D01*
X154131120Y-64786670D01*
X153929303Y-64757838D01*
X153925181Y-64757106D01*
X153889393Y-64749500D01*
X153889391Y-64749500D01*
X153872558Y-64749500D01*
X153865931Y-64749145D01*
X153858575Y-64748355D01*
X153848177Y-64747602D01*
X153848175Y-64747602D01*
X153758419Y-64749039D01*
X153751441Y-64749500D01*
X153710609Y-64749500D01*
X153679954Y-64756015D01*
X153535733Y-64786670D01*
X153535728Y-64786672D01*
X153372408Y-64859387D01*
X153227768Y-64964475D01*
X153108140Y-65097336D01*
X153018750Y-65252164D01*
X153018747Y-65252170D01*
X152963504Y-65422192D01*
X152963503Y-65422194D01*
X152944815Y-65600000D01*
X119766079Y-65600000D01*
X119753424Y-65571149D01*
X119626483Y-65376850D01*
X119626480Y-65376847D01*
X119626479Y-65376845D01*
X119469284Y-65206085D01*
X119469279Y-65206081D01*
X119469277Y-65206079D01*
X119286134Y-65063533D01*
X119286128Y-65063529D01*
X119082004Y-64953062D01*
X119081995Y-64953059D01*
X118862484Y-64877700D01*
X118685374Y-64848146D01*
X118633549Y-64839498D01*
X118401451Y-64839498D01*
X118355664Y-64847138D01*
X118172515Y-64877700D01*
X117953004Y-64953059D01*
X117952995Y-64953062D01*
X117748871Y-65063529D01*
X117748865Y-65063533D01*
X117565722Y-65206079D01*
X117565719Y-65206082D01*
X117565716Y-65206084D01*
X117565716Y-65206085D01*
X117523297Y-65252165D01*
X117408516Y-65376850D01*
X117281575Y-65571149D01*
X117188342Y-65783697D01*
X117131366Y-66008689D01*
X117131364Y-66008700D01*
X117112200Y-66239991D01*
X117112200Y-66240004D01*
X110000500Y-66240004D01*
X110000500Y-60960004D01*
X130922200Y-60960004D01*
X130941364Y-61191295D01*
X130941366Y-61191306D01*
X130998342Y-61416298D01*
X131091575Y-61628846D01*
X131218518Y-61823148D01*
X131251170Y-61858617D01*
X131263922Y-61875045D01*
X131641982Y-62456959D01*
X131661998Y-62523900D01*
X131662000Y-62524514D01*
X131662000Y-63315855D01*
X131672413Y-63417776D01*
X131727137Y-63582922D01*
X131727142Y-63582933D01*
X131818471Y-63730999D01*
X131818474Y-63731003D01*
X131941496Y-63854025D01*
X131941500Y-63854028D01*
X132089566Y-63945357D01*
X132089569Y-63945358D01*
X132089575Y-63945362D01*
X132254725Y-64000087D01*
X132356652Y-64010500D01*
X132356657Y-64010500D01*
X132943343Y-64010500D01*
X132943348Y-64010500D01*
X133045275Y-64000087D01*
X133210425Y-63945362D01*
X133358503Y-63854026D01*
X133481526Y-63731003D01*
X133572862Y-63582925D01*
X133627587Y-63417775D01*
X133638000Y-63315848D01*
X133638000Y-62304152D01*
X133627587Y-62202225D01*
X133602222Y-62125681D01*
X133600167Y-62117757D01*
X133594907Y-62090074D01*
X133562833Y-61996619D01*
X133558269Y-61933384D01*
X133653156Y-61430455D01*
X133655576Y-61421319D01*
X133655397Y-61421274D01*
X133662636Y-61392685D01*
X133713634Y-61191303D01*
X133726183Y-61039844D01*
X133726576Y-61036332D01*
X133727063Y-61032890D01*
X133728363Y-61019081D01*
X133728348Y-61016671D01*
X133728559Y-61011166D01*
X133728910Y-61006931D01*
X133732800Y-60959998D01*
X133713634Y-60728693D01*
X133656657Y-60503698D01*
X133614065Y-60406599D01*
X133563424Y-60291149D01*
X133436483Y-60096850D01*
X133436480Y-60096847D01*
X133436479Y-60096845D01*
X133279284Y-59926085D01*
X133279279Y-59926081D01*
X133279277Y-59926079D01*
X133096134Y-59783533D01*
X133096128Y-59783529D01*
X132892004Y-59673062D01*
X132891995Y-59673059D01*
X132672484Y-59597700D01*
X132500782Y-59569048D01*
X132443549Y-59559498D01*
X132211451Y-59559498D01*
X132165664Y-59567138D01*
X131982515Y-59597700D01*
X131763004Y-59673059D01*
X131762995Y-59673062D01*
X131558871Y-59783529D01*
X131558865Y-59783533D01*
X131375722Y-59926079D01*
X131375719Y-59926082D01*
X131218516Y-60096850D01*
X131091575Y-60291149D01*
X130998342Y-60503697D01*
X130941366Y-60728689D01*
X130941364Y-60728700D01*
X130922200Y-60959991D01*
X130922200Y-60960004D01*
X110000500Y-60960004D01*
X110000500Y-55897870D01*
X111649500Y-55897870D01*
X111649501Y-55897876D01*
X111655908Y-55957483D01*
X111706202Y-56092328D01*
X111706206Y-56092335D01*
X111792452Y-56207544D01*
X111792455Y-56207547D01*
X111907664Y-56293793D01*
X111907671Y-56293797D01*
X112042517Y-56344091D01*
X112042516Y-56344091D01*
X112049444Y-56344835D01*
X112102127Y-56350500D01*
X113897872Y-56350499D01*
X113957483Y-56344091D01*
X114092331Y-56293796D01*
X114207546Y-56207546D01*
X114293796Y-56092331D01*
X114344091Y-55957483D01*
X114350500Y-55897873D01*
X114350499Y-54102128D01*
X114344091Y-54042517D01*
X114337876Y-54025855D01*
X114293797Y-53907671D01*
X114293793Y-53907664D01*
X114207547Y-53792455D01*
X114207544Y-53792452D01*
X114092335Y-53706206D01*
X114092328Y-53706202D01*
X113957482Y-53655908D01*
X113957483Y-53655908D01*
X113897883Y-53649501D01*
X113897881Y-53649500D01*
X113897873Y-53649500D01*
X113897864Y-53649500D01*
X112102129Y-53649500D01*
X112102123Y-53649501D01*
X112042516Y-53655908D01*
X111907671Y-53706202D01*
X111907664Y-53706206D01*
X111792455Y-53792452D01*
X111792452Y-53792455D01*
X111706206Y-53907664D01*
X111706202Y-53907671D01*
X111655908Y-54042517D01*
X111650820Y-54089848D01*
X111649501Y-54102123D01*
X111649500Y-54102135D01*
X111649500Y-55897870D01*
X110000500Y-55897870D01*
X110000500Y-51670004D01*
X142422200Y-51670004D01*
X142441364Y-51901295D01*
X142441366Y-51901306D01*
X142498342Y-52126298D01*
X142591575Y-52338846D01*
X142718518Y-52533148D01*
X142751170Y-52568617D01*
X142763922Y-52585045D01*
X143141982Y-53166959D01*
X143161998Y-53233900D01*
X143162000Y-53234514D01*
X143162000Y-54025855D01*
X143172413Y-54127776D01*
X143227137Y-54292922D01*
X143227142Y-54292933D01*
X143318471Y-54440999D01*
X143318474Y-54441003D01*
X143441496Y-54564025D01*
X143441500Y-54564028D01*
X143589566Y-54655357D01*
X143589569Y-54655358D01*
X143589575Y-54655362D01*
X143754725Y-54710087D01*
X143856652Y-54720500D01*
X143856657Y-54720500D01*
X144443343Y-54720500D01*
X144443348Y-54720500D01*
X144545275Y-54710087D01*
X144710425Y-54655362D01*
X144858503Y-54564026D01*
X144981526Y-54441003D01*
X145072862Y-54292925D01*
X145127587Y-54127775D01*
X145138000Y-54025848D01*
X145138000Y-53014152D01*
X145127587Y-52912225D01*
X145102222Y-52835681D01*
X145100167Y-52827757D01*
X145094907Y-52800074D01*
X145094882Y-52800000D01*
X161044815Y-52800000D01*
X161063503Y-52977805D01*
X161063504Y-52977807D01*
X161118747Y-53147829D01*
X161118750Y-53147835D01*
X161208141Y-53302665D01*
X161249812Y-53348946D01*
X161327764Y-53435521D01*
X161327767Y-53435523D01*
X161327770Y-53435526D01*
X161472407Y-53540612D01*
X161635733Y-53613329D01*
X161810609Y-53650500D01*
X161810610Y-53650500D01*
X161989389Y-53650500D01*
X161989391Y-53650500D01*
X162164267Y-53613329D01*
X162168794Y-53611313D01*
X162187882Y-53604938D01*
X162187868Y-53604891D01*
X162189777Y-53604306D01*
X162191494Y-53603733D01*
X162192091Y-53603594D01*
X162192104Y-53603593D01*
X162674243Y-53455935D01*
X162710554Y-53450500D01*
X163189446Y-53450500D01*
X163225756Y-53455935D01*
X163707895Y-53603593D01*
X163714465Y-53605398D01*
X163732043Y-53611686D01*
X163735733Y-53613329D01*
X163910609Y-53650500D01*
X163910610Y-53650500D01*
X164089389Y-53650500D01*
X164089391Y-53650500D01*
X164264267Y-53613329D01*
X164427593Y-53540612D01*
X164572230Y-53435526D01*
X164691859Y-53302665D01*
X164781250Y-53147835D01*
X164836497Y-52977803D01*
X164855185Y-52800000D01*
X164836497Y-52622197D01*
X164781250Y-52452165D01*
X164691859Y-52297335D01*
X164645003Y-52245296D01*
X164572235Y-52164478D01*
X164572232Y-52164476D01*
X164572231Y-52164475D01*
X164572230Y-52164474D01*
X164427593Y-52059388D01*
X164264267Y-51986671D01*
X164264265Y-51986670D01*
X164114316Y-51954798D01*
X164089391Y-51949500D01*
X163910609Y-51949500D01*
X163885684Y-51954798D01*
X163735733Y-51986670D01*
X163735721Y-51986674D01*
X163731187Y-51988693D01*
X163712116Y-51995063D01*
X163712130Y-51995109D01*
X163710323Y-51995662D01*
X163708546Y-51996256D01*
X163707899Y-51996404D01*
X163225754Y-52144064D01*
X163189443Y-52149500D01*
X162710557Y-52149500D01*
X162674246Y-52144064D01*
X162192099Y-51996405D01*
X162185524Y-51994598D01*
X162167957Y-51988314D01*
X162164265Y-51986670D01*
X162014316Y-51954798D01*
X161989391Y-51949500D01*
X161810609Y-51949500D01*
X161785684Y-51954798D01*
X161635733Y-51986670D01*
X161635728Y-51986672D01*
X161472408Y-52059387D01*
X161327768Y-52164475D01*
X161208140Y-52297336D01*
X161118750Y-52452164D01*
X161118747Y-52452170D01*
X161063504Y-52622192D01*
X161063503Y-52622194D01*
X161044815Y-52800000D01*
X145094882Y-52800000D01*
X145062833Y-52706619D01*
X145058269Y-52643384D01*
X145153156Y-52140455D01*
X145155576Y-52131319D01*
X145155397Y-52131274D01*
X145169294Y-52076396D01*
X145213634Y-51901303D01*
X145226183Y-51749844D01*
X145226576Y-51746332D01*
X145227063Y-51742890D01*
X145228363Y-51729081D01*
X145228348Y-51726671D01*
X145228559Y-51721166D01*
X145232800Y-51669998D01*
X145213634Y-51438693D01*
X145156657Y-51213698D01*
X145153637Y-51206814D01*
X145063424Y-51001149D01*
X144936483Y-50806850D01*
X144936480Y-50806847D01*
X144936479Y-50806845D01*
X144779284Y-50636085D01*
X144779279Y-50636081D01*
X144779277Y-50636079D01*
X144596134Y-50493533D01*
X144596128Y-50493529D01*
X144392004Y-50383062D01*
X144391995Y-50383059D01*
X144172484Y-50307700D01*
X144000782Y-50279048D01*
X143943549Y-50269498D01*
X143711451Y-50269498D01*
X143665664Y-50277138D01*
X143482515Y-50307700D01*
X143263004Y-50383059D01*
X143262995Y-50383062D01*
X143058871Y-50493529D01*
X143058865Y-50493533D01*
X142875722Y-50636079D01*
X142875719Y-50636082D01*
X142718516Y-50806850D01*
X142591575Y-51001149D01*
X142498342Y-51213697D01*
X142441366Y-51438689D01*
X142441364Y-51438700D01*
X142422200Y-51669991D01*
X142422200Y-51670004D01*
X110000500Y-51670004D01*
X110000500Y-45020004D01*
X116012200Y-45020004D01*
X116031364Y-45251295D01*
X116031366Y-45251306D01*
X116088342Y-45476298D01*
X116181575Y-45688846D01*
X116308518Y-45883148D01*
X116341170Y-45918617D01*
X116353922Y-45935045D01*
X116722780Y-46502796D01*
X116731982Y-46516959D01*
X116751998Y-46583900D01*
X116752000Y-46584514D01*
X116752000Y-47375855D01*
X116762413Y-47477776D01*
X116817137Y-47642922D01*
X116817142Y-47642933D01*
X116908471Y-47790999D01*
X116908474Y-47791003D01*
X117031496Y-47914025D01*
X117031500Y-47914028D01*
X117179566Y-48005357D01*
X117179569Y-48005358D01*
X117179575Y-48005362D01*
X117344725Y-48060087D01*
X117446652Y-48070500D01*
X117446657Y-48070500D01*
X118033343Y-48070500D01*
X118033348Y-48070500D01*
X118135275Y-48060087D01*
X118300425Y-48005362D01*
X118448503Y-47914026D01*
X118571526Y-47791003D01*
X118662862Y-47642925D01*
X118717587Y-47477775D01*
X118728000Y-47375848D01*
X118728000Y-47200000D01*
X154744815Y-47200000D01*
X154763503Y-47377805D01*
X154763504Y-47377807D01*
X154818747Y-47547829D01*
X154818750Y-47547835D01*
X154908141Y-47702665D01*
X154941186Y-47739365D01*
X155027764Y-47835521D01*
X155027767Y-47835523D01*
X155027770Y-47835526D01*
X155172407Y-47940612D01*
X155335733Y-48013329D01*
X155510609Y-48050500D01*
X155510610Y-48050500D01*
X155689389Y-48050500D01*
X155689391Y-48050500D01*
X155725200Y-48042887D01*
X155729285Y-48042162D01*
X156361443Y-47951855D01*
X156361474Y-47951849D01*
X156362202Y-47951746D01*
X156379738Y-47950500D01*
X163092697Y-47950500D01*
X163092702Y-47950501D01*
X163169144Y-47950500D01*
X163174009Y-47950690D01*
X163357327Y-47965116D01*
X163376534Y-47968158D01*
X163548213Y-48009372D01*
X163566712Y-48015382D01*
X163729832Y-48082946D01*
X163747170Y-48091780D01*
X163897706Y-48184026D01*
X163913448Y-48195463D01*
X164053080Y-48314718D01*
X164056656Y-48318024D01*
X166729296Y-50990664D01*
X166732603Y-50994241D01*
X166852019Y-51134062D01*
X166863456Y-51149804D01*
X166955703Y-51300341D01*
X166964536Y-51317678D01*
X167032096Y-51480786D01*
X167038109Y-51499293D01*
X167079320Y-51670961D01*
X167082364Y-51690179D01*
X167096808Y-51873746D01*
X167096999Y-51878611D01*
X167096999Y-51958536D01*
X167097000Y-51958553D01*
X167097000Y-52076394D01*
X167088151Y-52122396D01*
X166616646Y-53302665D01*
X166550862Y-53467334D01*
X166550861Y-53467338D01*
X166532605Y-53520643D01*
X166530728Y-53525460D01*
X166518343Y-53553694D01*
X166461366Y-53778689D01*
X166461364Y-53778700D01*
X166442200Y-54009991D01*
X166442200Y-54010004D01*
X166461364Y-54241295D01*
X166461366Y-54241306D01*
X166518342Y-54466298D01*
X166611575Y-54678846D01*
X166738518Y-54873148D01*
X166771170Y-54908617D01*
X166783922Y-54925045D01*
X167073848Y-55371303D01*
X167161982Y-55506959D01*
X167181998Y-55573900D01*
X167182000Y-55574514D01*
X167182000Y-56365855D01*
X167192413Y-56467776D01*
X167247137Y-56632922D01*
X167247142Y-56632933D01*
X167338471Y-56780999D01*
X167338474Y-56781003D01*
X167461496Y-56904025D01*
X167461500Y-56904028D01*
X167609566Y-56995357D01*
X167609569Y-56995358D01*
X167609575Y-56995362D01*
X167774725Y-57050087D01*
X167876652Y-57060500D01*
X167876657Y-57060500D01*
X168463343Y-57060500D01*
X168463348Y-57060500D01*
X168565275Y-57050087D01*
X168730425Y-56995362D01*
X168878503Y-56904026D01*
X169001526Y-56781003D01*
X169092862Y-56632925D01*
X169147587Y-56467775D01*
X169158000Y-56365848D01*
X169158000Y-55354152D01*
X169147587Y-55252225D01*
X169122222Y-55175681D01*
X169120167Y-55167757D01*
X169114907Y-55140074D01*
X169114883Y-55140004D01*
X189262200Y-55140004D01*
X189281364Y-55371295D01*
X189281366Y-55371306D01*
X189338342Y-55596298D01*
X189431575Y-55808846D01*
X189558518Y-56003148D01*
X189591170Y-56038617D01*
X189603922Y-56055045D01*
X189981982Y-56636959D01*
X190001998Y-56703900D01*
X190002000Y-56704514D01*
X190002000Y-57495855D01*
X190012413Y-57597776D01*
X190067137Y-57762922D01*
X190067142Y-57762933D01*
X190158471Y-57910999D01*
X190158474Y-57911003D01*
X190281496Y-58034025D01*
X190281500Y-58034028D01*
X190429566Y-58125357D01*
X190429569Y-58125358D01*
X190429575Y-58125362D01*
X190594725Y-58180087D01*
X190696652Y-58190500D01*
X190696657Y-58190500D01*
X191283343Y-58190500D01*
X191283348Y-58190500D01*
X191385275Y-58180087D01*
X191550425Y-58125362D01*
X191698503Y-58034026D01*
X191821526Y-57911003D01*
X191912862Y-57762925D01*
X191967587Y-57597775D01*
X191978000Y-57495848D01*
X191978000Y-56484152D01*
X191967587Y-56382225D01*
X191942222Y-56305681D01*
X191940167Y-56297757D01*
X191934907Y-56270074D01*
X191902833Y-56176619D01*
X191898269Y-56113384D01*
X191993156Y-55610455D01*
X191995576Y-55601319D01*
X191995397Y-55601274D01*
X192019281Y-55506959D01*
X192053634Y-55371303D01*
X192066183Y-55219844D01*
X192066576Y-55216332D01*
X192067063Y-55212890D01*
X192068363Y-55199081D01*
X192068348Y-55196671D01*
X192068559Y-55191166D01*
X192069842Y-55175687D01*
X192072800Y-55139998D01*
X192053634Y-54908693D01*
X192053615Y-54908617D01*
X191996657Y-54683697D01*
X191903424Y-54471149D01*
X191776483Y-54276850D01*
X191776480Y-54276847D01*
X191776479Y-54276845D01*
X191619284Y-54106085D01*
X191619279Y-54106081D01*
X191619277Y-54106079D01*
X191436134Y-53963533D01*
X191436128Y-53963529D01*
X191232004Y-53853062D01*
X191231995Y-53853059D01*
X191012484Y-53777700D01*
X190840782Y-53749048D01*
X190783549Y-53739498D01*
X190551451Y-53739498D01*
X190505664Y-53747138D01*
X190322515Y-53777700D01*
X190103004Y-53853059D01*
X190102995Y-53853062D01*
X189898871Y-53963529D01*
X189898865Y-53963533D01*
X189715722Y-54106079D01*
X189715719Y-54106082D01*
X189558516Y-54276850D01*
X189431575Y-54471149D01*
X189338342Y-54683697D01*
X189281366Y-54908689D01*
X189281364Y-54908700D01*
X189262200Y-55139991D01*
X189262200Y-55140004D01*
X169114883Y-55140004D01*
X169082833Y-55046619D01*
X169078269Y-54983384D01*
X169173156Y-54480455D01*
X169175576Y-54471319D01*
X169175397Y-54471274D01*
X169224633Y-54276845D01*
X169233634Y-54241303D01*
X169246183Y-54089844D01*
X169246576Y-54086332D01*
X169247063Y-54082890D01*
X169248363Y-54069081D01*
X169248348Y-54066671D01*
X169248559Y-54061166D01*
X169252800Y-54009998D01*
X169233634Y-53778693D01*
X169176657Y-53553698D01*
X169155124Y-53504609D01*
X169148153Y-53483942D01*
X169144138Y-53467338D01*
X169144133Y-53467321D01*
X168606849Y-52122398D01*
X168598000Y-52076396D01*
X168598000Y-51830697D01*
X168597980Y-51830031D01*
X168597982Y-51740814D01*
X168571496Y-51471869D01*
X168518777Y-51206814D01*
X168440332Y-50948204D01*
X168336916Y-50698528D01*
X168209525Y-50460190D01*
X168059387Y-50235487D01*
X167990386Y-50151408D01*
X167887945Y-50026581D01*
X167856982Y-49995617D01*
X167856956Y-49995588D01*
X165154784Y-47293416D01*
X165154752Y-47293358D01*
X165116477Y-47255084D01*
X165116478Y-47255084D01*
X165020930Y-47159537D01*
X164812023Y-46988096D01*
X164812019Y-46988093D01*
X164812015Y-46988090D01*
X164587320Y-46837957D01*
X164587313Y-46837954D01*
X164551208Y-46818656D01*
X164513953Y-46798743D01*
X164348979Y-46710564D01*
X164348975Y-46710563D01*
X164099311Y-46607152D01*
X164099303Y-46607149D01*
X163840696Y-46528704D01*
X163575631Y-46475983D01*
X163386142Y-46457322D01*
X163306687Y-46449498D01*
X163306684Y-46449498D01*
X163171563Y-46449500D01*
X156379731Y-46449500D01*
X156362194Y-46448254D01*
X156361449Y-46448147D01*
X156361444Y-46448146D01*
X155931120Y-46386670D01*
X155729303Y-46357838D01*
X155725181Y-46357106D01*
X155689393Y-46349500D01*
X155689391Y-46349500D01*
X155672558Y-46349500D01*
X155665931Y-46349145D01*
X155658575Y-46348355D01*
X155648177Y-46347602D01*
X155648175Y-46347602D01*
X155558419Y-46349039D01*
X155551441Y-46349500D01*
X155510609Y-46349500D01*
X155479954Y-46356015D01*
X155335733Y-46386670D01*
X155335728Y-46386672D01*
X155172408Y-46459387D01*
X155027768Y-46564475D01*
X154908140Y-46697336D01*
X154818750Y-46852164D01*
X154818747Y-46852170D01*
X154763504Y-47022192D01*
X154763503Y-47022194D01*
X154744815Y-47200000D01*
X118728000Y-47200000D01*
X118728000Y-46364152D01*
X118717587Y-46262225D01*
X118692222Y-46185681D01*
X118690167Y-46177757D01*
X118684907Y-46150074D01*
X118652833Y-46056619D01*
X118648269Y-45993384D01*
X118678151Y-45835000D01*
X173794341Y-45835000D01*
X173814936Y-46070403D01*
X173814938Y-46070413D01*
X173876094Y-46298655D01*
X173876096Y-46298659D01*
X173876097Y-46298663D01*
X173923352Y-46400001D01*
X173975965Y-46512830D01*
X173975967Y-46512834D01*
X174042008Y-46607149D01*
X174111501Y-46706396D01*
X174111506Y-46706402D01*
X174233430Y-46828326D01*
X174266915Y-46889649D01*
X174261931Y-46959341D01*
X174220059Y-47015274D01*
X174189083Y-47032189D01*
X174057669Y-47081203D01*
X174057664Y-47081206D01*
X173942455Y-47167452D01*
X173942452Y-47167455D01*
X173856206Y-47282664D01*
X173856202Y-47282671D01*
X173805908Y-47417517D01*
X173799501Y-47477116D01*
X173799501Y-47477123D01*
X173799500Y-47477135D01*
X173799500Y-49272870D01*
X173799501Y-49272876D01*
X173805908Y-49332483D01*
X173856202Y-49467328D01*
X173856206Y-49467335D01*
X173942452Y-49582544D01*
X173942455Y-49582547D01*
X174057664Y-49668793D01*
X174057671Y-49668797D01*
X174192517Y-49719091D01*
X174192516Y-49719091D01*
X174199444Y-49719835D01*
X174252127Y-49725500D01*
X176047872Y-49725499D01*
X176107483Y-49719091D01*
X176242331Y-49668796D01*
X176357546Y-49582546D01*
X176443796Y-49467331D01*
X176494091Y-49332483D01*
X176500500Y-49272873D01*
X176500499Y-47947401D01*
X179120746Y-47947401D01*
X179130745Y-48157327D01*
X179180296Y-48361578D01*
X179180298Y-48361582D01*
X179267598Y-48552743D01*
X179267601Y-48552748D01*
X179267602Y-48552750D01*
X179267604Y-48552753D01*
X179330627Y-48641256D01*
X179389515Y-48723953D01*
X179389520Y-48723959D01*
X179541620Y-48868985D01*
X179636578Y-48930011D01*
X179718428Y-48982613D01*
X179913543Y-49060725D01*
X179971265Y-49071850D01*
X180119914Y-49100500D01*
X180119915Y-49100500D01*
X180827419Y-49100500D01*
X180827425Y-49100500D01*
X180984218Y-49085528D01*
X181185875Y-49026316D01*
X181372682Y-48930011D01*
X181537886Y-48800092D01*
X181675519Y-48641256D01*
X181780604Y-48459244D01*
X181849344Y-48260633D01*
X181879254Y-48052602D01*
X181869254Y-47842670D01*
X181819704Y-47638424D01*
X181819701Y-47638417D01*
X181732401Y-47447256D01*
X181732398Y-47447251D01*
X181732397Y-47447250D01*
X181732396Y-47447247D01*
X181610486Y-47276048D01*
X181588512Y-47255096D01*
X181507917Y-47178249D01*
X181472982Y-47117740D01*
X181476307Y-47047950D01*
X181516835Y-46991036D01*
X181528384Y-46982971D01*
X181593656Y-46942712D01*
X181717712Y-46818656D01*
X181809814Y-46669334D01*
X181864999Y-46502797D01*
X181875500Y-46400009D01*
X181875499Y-45599992D01*
X181864999Y-45497203D01*
X181809814Y-45330666D01*
X181717712Y-45181344D01*
X181593656Y-45057288D01*
X181444334Y-44965186D01*
X181277797Y-44910001D01*
X181277795Y-44910000D01*
X181175010Y-44899500D01*
X179824998Y-44899500D01*
X179824981Y-44899501D01*
X179722203Y-44910000D01*
X179722200Y-44910001D01*
X179555668Y-44965185D01*
X179555663Y-44965187D01*
X179406342Y-45057289D01*
X179282289Y-45181342D01*
X179190187Y-45330663D01*
X179190185Y-45330668D01*
X179162349Y-45414670D01*
X179135001Y-45497203D01*
X179135001Y-45497204D01*
X179135000Y-45497204D01*
X179124500Y-45599983D01*
X179124500Y-46400001D01*
X179124501Y-46400019D01*
X179135000Y-46502796D01*
X179135001Y-46502799D01*
X179190185Y-46669331D01*
X179190187Y-46669336D01*
X179282289Y-46818657D01*
X179406344Y-46942712D01*
X179469739Y-46981814D01*
X179516464Y-47033762D01*
X179527687Y-47102724D01*
X179499844Y-47166806D01*
X179481296Y-47184822D01*
X179462118Y-47199903D01*
X179462112Y-47199909D01*
X179324478Y-47358746D01*
X179219398Y-47540750D01*
X179150656Y-47739365D01*
X179150656Y-47739367D01*
X179125545Y-47914025D01*
X179120746Y-47947401D01*
X176500499Y-47947401D01*
X176500499Y-47477128D01*
X176494091Y-47417517D01*
X176479279Y-47377805D01*
X176443797Y-47282671D01*
X176443793Y-47282664D01*
X176357547Y-47167455D01*
X176357544Y-47167452D01*
X176242335Y-47081206D01*
X176242328Y-47081202D01*
X176110917Y-47032189D01*
X176054983Y-46990318D01*
X176030566Y-46924853D01*
X176045418Y-46856580D01*
X176066563Y-46828332D01*
X176188495Y-46706401D01*
X176324035Y-46512830D01*
X176423903Y-46298663D01*
X176485063Y-46070408D01*
X176505659Y-45835000D01*
X176485063Y-45599592D01*
X176423903Y-45371337D01*
X176324035Y-45157171D01*
X176283898Y-45099848D01*
X176188494Y-44963597D01*
X176021402Y-44796506D01*
X176021395Y-44796501D01*
X176010238Y-44788689D01*
X175955699Y-44750500D01*
X175827834Y-44660967D01*
X175827830Y-44660965D01*
X175784183Y-44640612D01*
X175613663Y-44561097D01*
X175613659Y-44561096D01*
X175613655Y-44561094D01*
X175385413Y-44499938D01*
X175385403Y-44499936D01*
X175150001Y-44479341D01*
X175149999Y-44479341D01*
X174914596Y-44499936D01*
X174914586Y-44499938D01*
X174686344Y-44561094D01*
X174686335Y-44561098D01*
X174472171Y-44660964D01*
X174472169Y-44660965D01*
X174278597Y-44796505D01*
X174111505Y-44963597D01*
X173975965Y-45157169D01*
X173975964Y-45157171D01*
X173876098Y-45371335D01*
X173876094Y-45371344D01*
X173814938Y-45599586D01*
X173814936Y-45599596D01*
X173794341Y-45834999D01*
X173794341Y-45835000D01*
X118678151Y-45835000D01*
X118743156Y-45490455D01*
X118745576Y-45481319D01*
X118745397Y-45481274D01*
X118773237Y-45371335D01*
X118803634Y-45251303D01*
X118816183Y-45099844D01*
X118816576Y-45096332D01*
X118817063Y-45092890D01*
X118818363Y-45079081D01*
X118818348Y-45076671D01*
X118818559Y-45071166D01*
X118822800Y-45019998D01*
X118803634Y-44788693D01*
X118771288Y-44660964D01*
X118746657Y-44563697D01*
X118653424Y-44351149D01*
X118526483Y-44156850D01*
X118526480Y-44156847D01*
X118526479Y-44156845D01*
X118369284Y-43986085D01*
X118369279Y-43986081D01*
X118369277Y-43986079D01*
X118258683Y-43900000D01*
X163444815Y-43900000D01*
X163463503Y-44077805D01*
X163463504Y-44077807D01*
X163518747Y-44247829D01*
X163518750Y-44247835D01*
X163608141Y-44402665D01*
X163649812Y-44448946D01*
X163727764Y-44535521D01*
X163727767Y-44535523D01*
X163727770Y-44535526D01*
X163872407Y-44640612D01*
X164035733Y-44713329D01*
X164210609Y-44750500D01*
X164210610Y-44750500D01*
X164389389Y-44750500D01*
X164389391Y-44750500D01*
X164564267Y-44713329D01*
X164568794Y-44711313D01*
X164587882Y-44704938D01*
X164587868Y-44704891D01*
X164589777Y-44704306D01*
X164591494Y-44703733D01*
X164592091Y-44703594D01*
X164592104Y-44703593D01*
X165074243Y-44555935D01*
X165110554Y-44550500D01*
X166686072Y-44550500D01*
X166686193Y-44550495D01*
X166733430Y-44550497D01*
X166912294Y-44522170D01*
X167084525Y-44466211D01*
X167245881Y-44383998D01*
X167245880Y-44383998D01*
X167245883Y-44383997D01*
X167312258Y-44335773D01*
X167392390Y-44277556D01*
X167456416Y-44213530D01*
X167508243Y-44161704D01*
X167508243Y-44161702D01*
X167518448Y-44151498D01*
X167518452Y-44151493D01*
X168136825Y-43533119D01*
X168166337Y-43511292D01*
X168611678Y-43274774D01*
X168637146Y-43260286D01*
X168637146Y-43260285D01*
X168641783Y-43257648D01*
X168641943Y-43257930D01*
X168654456Y-43250912D01*
X168677593Y-43240612D01*
X168822230Y-43135526D01*
X168941859Y-43002665D01*
X169031250Y-42847835D01*
X169086497Y-42677803D01*
X169105185Y-42500000D01*
X169086497Y-42322197D01*
X169035211Y-42164355D01*
X169031252Y-42152170D01*
X169031249Y-42152164D01*
X168941859Y-41997335D01*
X168867871Y-41915163D01*
X168822235Y-41864478D01*
X168822232Y-41864476D01*
X168822231Y-41864475D01*
X168822230Y-41864474D01*
X168677593Y-41759388D01*
X168514267Y-41686671D01*
X168514265Y-41686670D01*
X168386594Y-41659533D01*
X168339391Y-41649500D01*
X168160609Y-41649500D01*
X168129954Y-41656015D01*
X167985733Y-41686670D01*
X167985728Y-41686672D01*
X167822408Y-41759387D01*
X167677768Y-41864475D01*
X167558139Y-41997336D01*
X167484130Y-42125524D01*
X167480498Y-42131101D01*
X167475231Y-42138310D01*
X167475216Y-42138334D01*
X167238705Y-42583660D01*
X167216873Y-42613179D01*
X166616872Y-43213181D01*
X166555549Y-43246666D01*
X166529191Y-43249500D01*
X165110557Y-43249500D01*
X165074246Y-43244064D01*
X164592099Y-43096405D01*
X164585524Y-43094598D01*
X164567957Y-43088314D01*
X164564265Y-43086670D01*
X164436594Y-43059533D01*
X164389391Y-43049500D01*
X164210609Y-43049500D01*
X164179954Y-43056015D01*
X164035733Y-43086670D01*
X164035728Y-43086672D01*
X163872408Y-43159387D01*
X163727768Y-43264475D01*
X163608140Y-43397336D01*
X163518750Y-43552164D01*
X163518747Y-43552170D01*
X163463504Y-43722192D01*
X163463503Y-43722194D01*
X163444815Y-43900000D01*
X118258683Y-43900000D01*
X118186134Y-43843533D01*
X118186128Y-43843529D01*
X117982004Y-43733062D01*
X117981995Y-43733059D01*
X117762484Y-43657700D01*
X117590782Y-43629048D01*
X117533549Y-43619498D01*
X117301451Y-43619498D01*
X117255664Y-43627138D01*
X117072515Y-43657700D01*
X116853004Y-43733059D01*
X116852995Y-43733062D01*
X116648871Y-43843529D01*
X116648865Y-43843533D01*
X116465722Y-43986079D01*
X116465719Y-43986082D01*
X116308516Y-44156850D01*
X116181575Y-44351149D01*
X116088342Y-44563697D01*
X116031366Y-44788689D01*
X116031364Y-44788700D01*
X116012200Y-45019991D01*
X116012200Y-45020004D01*
X110000500Y-45020004D01*
X110000500Y-41401768D01*
X138044815Y-41401768D01*
X138063503Y-41579573D01*
X138063504Y-41579575D01*
X138118747Y-41749597D01*
X138118750Y-41749603D01*
X138208141Y-41904433D01*
X138243677Y-41943900D01*
X138327764Y-42037289D01*
X138327767Y-42037291D01*
X138327770Y-42037294D01*
X138472407Y-42142380D01*
X138635733Y-42215097D01*
X138810609Y-42252268D01*
X138810610Y-42252268D01*
X138989385Y-42252268D01*
X138989391Y-42252268D01*
X139014277Y-42246977D01*
X139019288Y-42246126D01*
X139651789Y-42165220D01*
X139657434Y-42164372D01*
X139675835Y-42163000D01*
X142332762Y-42163000D01*
X142350298Y-42164246D01*
X142351053Y-42164353D01*
X142351057Y-42164355D01*
X142983195Y-42254659D01*
X142987293Y-42255386D01*
X143023109Y-42263000D01*
X143039954Y-42263000D01*
X143046589Y-42263355D01*
X143053773Y-42264129D01*
X143064127Y-42264883D01*
X143128778Y-42263859D01*
X143154070Y-42263460D01*
X143161055Y-42263000D01*
X143201889Y-42263000D01*
X143201891Y-42263000D01*
X143376767Y-42225829D01*
X143540093Y-42153112D01*
X143684730Y-42048026D01*
X143804359Y-41915165D01*
X143893750Y-41760335D01*
X143948997Y-41590303D01*
X143967685Y-41412500D01*
X143948997Y-41234697D01*
X143893750Y-41064665D01*
X143804359Y-40909835D01*
X143757503Y-40857796D01*
X143684735Y-40776978D01*
X143684732Y-40776976D01*
X143684731Y-40776975D01*
X143684730Y-40776974D01*
X143540093Y-40671888D01*
X143376767Y-40599171D01*
X143376765Y-40599170D01*
X143239740Y-40570045D01*
X143201891Y-40562000D01*
X143023109Y-40562000D01*
X143023105Y-40562000D01*
X142987300Y-40569609D01*
X142983179Y-40570341D01*
X142350300Y-40660754D01*
X142332763Y-40662000D01*
X139679011Y-40662000D01*
X139659581Y-40660468D01*
X139044054Y-40562800D01*
X139040881Y-40562211D01*
X138989392Y-40551268D01*
X138989391Y-40551268D01*
X138971900Y-40551268D01*
X138966951Y-40551070D01*
X138952019Y-40549875D01*
X138856587Y-40551039D01*
X138853070Y-40551268D01*
X138810609Y-40551268D01*
X138779954Y-40557783D01*
X138635733Y-40588438D01*
X138635728Y-40588440D01*
X138472408Y-40661155D01*
X138327768Y-40766243D01*
X138208140Y-40899104D01*
X138118750Y-41053932D01*
X138118747Y-41053938D01*
X138063504Y-41223960D01*
X138063503Y-41223962D01*
X138044815Y-41401768D01*
X110000500Y-41401768D01*
X110000500Y-37330004D01*
X127362200Y-37330004D01*
X127381364Y-37561295D01*
X127381366Y-37561306D01*
X127438342Y-37786298D01*
X127531575Y-37998846D01*
X127658518Y-38193148D01*
X127691170Y-38228617D01*
X127703922Y-38245045D01*
X128081982Y-38826959D01*
X128101998Y-38893900D01*
X128102000Y-38894514D01*
X128102000Y-39685855D01*
X128112413Y-39787776D01*
X128167137Y-39952922D01*
X128167142Y-39952933D01*
X128258471Y-40100999D01*
X128258474Y-40101003D01*
X128381496Y-40224025D01*
X128381500Y-40224028D01*
X128529566Y-40315357D01*
X128529569Y-40315358D01*
X128529575Y-40315362D01*
X128694725Y-40370087D01*
X128796652Y-40380500D01*
X128796657Y-40380500D01*
X129383343Y-40380500D01*
X129383348Y-40380500D01*
X129485275Y-40370087D01*
X129650425Y-40315362D01*
X129798503Y-40224026D01*
X129921526Y-40101003D01*
X130012862Y-39952925D01*
X130067587Y-39787775D01*
X130078000Y-39685848D01*
X130078000Y-39280004D01*
X150492200Y-39280004D01*
X150511364Y-39511295D01*
X150511366Y-39511306D01*
X150568342Y-39736298D01*
X150661575Y-39948846D01*
X150788518Y-40143148D01*
X150821170Y-40178617D01*
X150833922Y-40195045D01*
X150852752Y-40224028D01*
X151136485Y-40660754D01*
X151211982Y-40776959D01*
X151231998Y-40843900D01*
X151232000Y-40844514D01*
X151232000Y-41635855D01*
X151242413Y-41737776D01*
X151297137Y-41902922D01*
X151297142Y-41902933D01*
X151388471Y-42050999D01*
X151388474Y-42051003D01*
X151511496Y-42174025D01*
X151511500Y-42174028D01*
X151659566Y-42265357D01*
X151659569Y-42265358D01*
X151659575Y-42265362D01*
X151824725Y-42320087D01*
X151926652Y-42330500D01*
X151926657Y-42330500D01*
X152513343Y-42330500D01*
X152513348Y-42330500D01*
X152615275Y-42320087D01*
X152780425Y-42265362D01*
X152928503Y-42174026D01*
X153051526Y-42051003D01*
X153142862Y-41902925D01*
X153197587Y-41737775D01*
X153208000Y-41635848D01*
X153208000Y-40624152D01*
X153197587Y-40522225D01*
X153172222Y-40445681D01*
X153170167Y-40437757D01*
X153164907Y-40410074D01*
X153132833Y-40316619D01*
X153128269Y-40253384D01*
X153174187Y-40010004D01*
X172522200Y-40010004D01*
X172541364Y-40241295D01*
X172541366Y-40241306D01*
X172598342Y-40466298D01*
X172691575Y-40678846D01*
X172818518Y-40873148D01*
X172818521Y-40873151D01*
X172842412Y-40899104D01*
X172851170Y-40908617D01*
X172863922Y-40925045D01*
X173183291Y-41416622D01*
X173241982Y-41506959D01*
X173261998Y-41573900D01*
X173262000Y-41574514D01*
X173262000Y-42365855D01*
X173272413Y-42467776D01*
X173327137Y-42632922D01*
X173327142Y-42632933D01*
X173418471Y-42780999D01*
X173418474Y-42781003D01*
X173541496Y-42904025D01*
X173541500Y-42904028D01*
X173689566Y-42995357D01*
X173689569Y-42995358D01*
X173689575Y-42995362D01*
X173854725Y-43050087D01*
X173956652Y-43060500D01*
X173956657Y-43060500D01*
X174543343Y-43060500D01*
X174543348Y-43060500D01*
X174645275Y-43050087D01*
X174810425Y-42995362D01*
X174958503Y-42904026D01*
X175081526Y-42781003D01*
X175172862Y-42632925D01*
X175227587Y-42467775D01*
X175238000Y-42365848D01*
X175238000Y-41354152D01*
X175227587Y-41252225D01*
X175202222Y-41175681D01*
X175200167Y-41167757D01*
X175194907Y-41140074D01*
X175162833Y-41046619D01*
X175158269Y-40983384D01*
X175253156Y-40480455D01*
X175255576Y-40471319D01*
X175255397Y-40471274D01*
X175270895Y-40410074D01*
X175278510Y-40380004D01*
X194122200Y-40380004D01*
X194141364Y-40611295D01*
X194141366Y-40611306D01*
X194198342Y-40836298D01*
X194291575Y-41048846D01*
X194418518Y-41243148D01*
X194451170Y-41278617D01*
X194463922Y-41295045D01*
X194756016Y-41744640D01*
X194841982Y-41876959D01*
X194861998Y-41943900D01*
X194862000Y-41944514D01*
X194862000Y-42735855D01*
X194872413Y-42837776D01*
X194927137Y-43002922D01*
X194927142Y-43002933D01*
X195018471Y-43150999D01*
X195018474Y-43151003D01*
X195141496Y-43274025D01*
X195141500Y-43274028D01*
X195289566Y-43365357D01*
X195289569Y-43365358D01*
X195289575Y-43365362D01*
X195454725Y-43420087D01*
X195556652Y-43430500D01*
X195556657Y-43430500D01*
X196143343Y-43430500D01*
X196143348Y-43430500D01*
X196245275Y-43420087D01*
X196410425Y-43365362D01*
X196558503Y-43274026D01*
X196681526Y-43151003D01*
X196772862Y-43002925D01*
X196827587Y-42837775D01*
X196838000Y-42735848D01*
X196838000Y-41724152D01*
X196827587Y-41622225D01*
X196802222Y-41545681D01*
X196800167Y-41537757D01*
X196794907Y-41510074D01*
X196762833Y-41416619D01*
X196758269Y-41353384D01*
X196853156Y-40850455D01*
X196855576Y-40841319D01*
X196855397Y-40841274D01*
X196871679Y-40776978D01*
X196913634Y-40611303D01*
X196926183Y-40459844D01*
X196926576Y-40456332D01*
X196927063Y-40452890D01*
X196928363Y-40439081D01*
X196928348Y-40436671D01*
X196928559Y-40431166D01*
X196930307Y-40410074D01*
X196932800Y-40379998D01*
X196913634Y-40148693D01*
X196889739Y-40054336D01*
X196856657Y-39923697D01*
X196763424Y-39711149D01*
X196636483Y-39516850D01*
X196636480Y-39516847D01*
X196636479Y-39516845D01*
X196479284Y-39346085D01*
X196479279Y-39346081D01*
X196479277Y-39346079D01*
X196296134Y-39203533D01*
X196296128Y-39203529D01*
X196092004Y-39093062D01*
X196091995Y-39093059D01*
X195872484Y-39017700D01*
X195700782Y-38989048D01*
X195643549Y-38979498D01*
X195411451Y-38979498D01*
X195365664Y-38987138D01*
X195182515Y-39017700D01*
X194963004Y-39093059D01*
X194962995Y-39093062D01*
X194758871Y-39203529D01*
X194758865Y-39203533D01*
X194575722Y-39346079D01*
X194575719Y-39346082D01*
X194575716Y-39346084D01*
X194575716Y-39346085D01*
X194516767Y-39410120D01*
X194418516Y-39516850D01*
X194291575Y-39711149D01*
X194198342Y-39923697D01*
X194141366Y-40148689D01*
X194141364Y-40148700D01*
X194122200Y-40379991D01*
X194122200Y-40380004D01*
X175278510Y-40380004D01*
X175313634Y-40241303D01*
X175326183Y-40089844D01*
X175326576Y-40086332D01*
X175327063Y-40082890D01*
X175328363Y-40069081D01*
X175328362Y-40069080D01*
X175328458Y-40068072D01*
X175330792Y-40054339D01*
X175330772Y-40054336D01*
X175331526Y-40049977D01*
X175331525Y-40049977D01*
X175331528Y-40049969D01*
X175440948Y-38960012D01*
X175467231Y-38895276D01*
X175476638Y-38884728D01*
X176397020Y-37964347D01*
X176399948Y-37961604D01*
X176567452Y-37814709D01*
X176573865Y-37809788D01*
X176757403Y-37687155D01*
X176764423Y-37683103D01*
X176962375Y-37585486D01*
X176969876Y-37582379D01*
X177178882Y-37511433D01*
X177186703Y-37509338D01*
X177403190Y-37466279D01*
X177411226Y-37465222D01*
X177633862Y-37450632D01*
X177637914Y-37450500D01*
X177714405Y-37450501D01*
X177714410Y-37450500D01*
X180720262Y-37450500D01*
X180737798Y-37451746D01*
X180738553Y-37451853D01*
X180738557Y-37451855D01*
X181370695Y-37542159D01*
X181374793Y-37542886D01*
X181410609Y-37550500D01*
X181427454Y-37550500D01*
X181434089Y-37550855D01*
X181441273Y-37551629D01*
X181451627Y-37552383D01*
X181516278Y-37551359D01*
X181541570Y-37550960D01*
X181548555Y-37550500D01*
X181589389Y-37550500D01*
X181589391Y-37550500D01*
X181764267Y-37513329D01*
X181927593Y-37440612D01*
X182072230Y-37335526D01*
X182077208Y-37329998D01*
X182098148Y-37306741D01*
X182191859Y-37202665D01*
X182281250Y-37047835D01*
X182336497Y-36877803D01*
X182355185Y-36700000D01*
X182336497Y-36522197D01*
X182281250Y-36352165D01*
X182191859Y-36197335D01*
X182145003Y-36145296D01*
X182072235Y-36064478D01*
X182072232Y-36064476D01*
X182072231Y-36064475D01*
X182072230Y-36064474D01*
X181927593Y-35959388D01*
X181764267Y-35886671D01*
X181764265Y-35886670D01*
X181627240Y-35857545D01*
X181589391Y-35849500D01*
X181410609Y-35849500D01*
X181410605Y-35849500D01*
X181374800Y-35857109D01*
X181370679Y-35857841D01*
X180737800Y-35948254D01*
X180720263Y-35949500D01*
X177590381Y-35949500D01*
X177589575Y-35949522D01*
X177475861Y-35949522D01*
X177475860Y-35949522D01*
X177475858Y-35949522D01*
X177375674Y-35959388D01*
X177158027Y-35980821D01*
X177158022Y-35980821D01*
X176844779Y-36043125D01*
X176844777Y-36043125D01*
X176539166Y-36135829D01*
X176539163Y-36135830D01*
X176496423Y-36153533D01*
X176244104Y-36258043D01*
X176244100Y-36258044D01*
X175962440Y-36408590D01*
X175962435Y-36408593D01*
X175696890Y-36586021D01*
X175696883Y-36586027D01*
X175449999Y-36788634D01*
X175392045Y-36846586D01*
X175360829Y-36877803D01*
X175337088Y-36901544D01*
X175281311Y-36957321D01*
X175281309Y-36957323D01*
X174305497Y-37933133D01*
X174287296Y-37948158D01*
X174285592Y-37949310D01*
X173169265Y-38826455D01*
X173164878Y-38829603D01*
X173158878Y-38833524D01*
X172975717Y-38976084D01*
X172953329Y-39000403D01*
X172907181Y-39048751D01*
X172901227Y-39056592D01*
X172897464Y-39061088D01*
X172818519Y-39146847D01*
X172691575Y-39341149D01*
X172598342Y-39553697D01*
X172541366Y-39778689D01*
X172541364Y-39778700D01*
X172522200Y-40009991D01*
X172522200Y-40010004D01*
X153174187Y-40010004D01*
X153223156Y-39750455D01*
X153225576Y-39741319D01*
X153225397Y-39741274D01*
X153239434Y-39685842D01*
X153283634Y-39511303D01*
X153296183Y-39359844D01*
X153296576Y-39356332D01*
X153297063Y-39352890D01*
X153298363Y-39339081D01*
X153298348Y-39336671D01*
X153298559Y-39331166D01*
X153302800Y-39279998D01*
X153283634Y-39048693D01*
X153235286Y-38857771D01*
X153226657Y-38823697D01*
X153133424Y-38611149D01*
X153006483Y-38416850D01*
X153006480Y-38416847D01*
X153006479Y-38416845D01*
X152849284Y-38246085D01*
X152849279Y-38246081D01*
X152849277Y-38246079D01*
X152666134Y-38103533D01*
X152666128Y-38103529D01*
X152462004Y-37993062D01*
X152461995Y-37993059D01*
X152242484Y-37917700D01*
X152070782Y-37889048D01*
X152013549Y-37879498D01*
X151781451Y-37879498D01*
X151735664Y-37887138D01*
X151552515Y-37917700D01*
X151333004Y-37993059D01*
X151332995Y-37993062D01*
X151128871Y-38103529D01*
X151128865Y-38103533D01*
X150945722Y-38246079D01*
X150945719Y-38246082D01*
X150788516Y-38416850D01*
X150661575Y-38611149D01*
X150568342Y-38823697D01*
X150511366Y-39048689D01*
X150511364Y-39048700D01*
X150492200Y-39279991D01*
X150492200Y-39280004D01*
X130078000Y-39280004D01*
X130078000Y-38674152D01*
X130067587Y-38572225D01*
X130042222Y-38495681D01*
X130040167Y-38487757D01*
X130034907Y-38460074D01*
X130002833Y-38366619D01*
X129998269Y-38303384D01*
X130093156Y-37800455D01*
X130095576Y-37791319D01*
X130095397Y-37791274D01*
X130121762Y-37687162D01*
X130153634Y-37561303D01*
X130166183Y-37409844D01*
X130166576Y-37406332D01*
X130167063Y-37402890D01*
X130168363Y-37389081D01*
X130168348Y-37386671D01*
X130168559Y-37381166D01*
X130172800Y-37329998D01*
X130153634Y-37098693D01*
X130117834Y-36957323D01*
X130096657Y-36873697D01*
X130003424Y-36661149D01*
X129876483Y-36466850D01*
X129876480Y-36466847D01*
X129876479Y-36466845D01*
X129719284Y-36296085D01*
X129719279Y-36296081D01*
X129719277Y-36296079D01*
X129536134Y-36153533D01*
X129536128Y-36153529D01*
X129332004Y-36043062D01*
X129331995Y-36043059D01*
X129112484Y-35967700D01*
X128940782Y-35939048D01*
X128883549Y-35929498D01*
X128651451Y-35929498D01*
X128605664Y-35937138D01*
X128422515Y-35967700D01*
X128203004Y-36043059D01*
X128202995Y-36043062D01*
X127998871Y-36153529D01*
X127998865Y-36153533D01*
X127815722Y-36296079D01*
X127815719Y-36296082D01*
X127658516Y-36466850D01*
X127531575Y-36661149D01*
X127438342Y-36873697D01*
X127381366Y-37098689D01*
X127381364Y-37098700D01*
X127362200Y-37329991D01*
X127362200Y-37330004D01*
X110000500Y-37330004D01*
X110000500Y-32000002D01*
X118694652Y-32000002D01*
X118714028Y-32357368D01*
X118714029Y-32357385D01*
X118771926Y-32710539D01*
X118771932Y-32710565D01*
X118867672Y-33055392D01*
X118867674Y-33055399D01*
X119000142Y-33387870D01*
X119000151Y-33387888D01*
X119167784Y-33704077D01*
X119167790Y-33704086D01*
X119368634Y-34000309D01*
X119368641Y-34000319D01*
X119437819Y-34081761D01*
X119600332Y-34273086D01*
X119860163Y-34519211D01*
X120145081Y-34735800D01*
X120451747Y-34920315D01*
X120451749Y-34920316D01*
X120451751Y-34920317D01*
X120451755Y-34920319D01*
X120776552Y-35070585D01*
X120776565Y-35070591D01*
X121115726Y-35184868D01*
X121465254Y-35261805D01*
X121821052Y-35300500D01*
X121821058Y-35300500D01*
X122178942Y-35300500D01*
X122178948Y-35300500D01*
X122534746Y-35261805D01*
X122884274Y-35184868D01*
X123223435Y-35070591D01*
X123548253Y-34920315D01*
X123854919Y-34735800D01*
X124139837Y-34519211D01*
X124399668Y-34273086D01*
X124631365Y-34000311D01*
X124832211Y-33704085D01*
X124999853Y-33387880D01*
X125132324Y-33055403D01*
X125228071Y-32710552D01*
X125285972Y-32357371D01*
X125305348Y-32000000D01*
X125285972Y-31642629D01*
X125228071Y-31289448D01*
X125132324Y-30944597D01*
X125075772Y-30802663D01*
X124999857Y-30612129D01*
X124999848Y-30612111D01*
X124832215Y-30295922D01*
X124832213Y-30295919D01*
X124832211Y-30295915D01*
X124631365Y-29999689D01*
X124631361Y-29999684D01*
X124631358Y-29999680D01*
X124399668Y-29726914D01*
X124308558Y-29640610D01*
X124139837Y-29480789D01*
X124139830Y-29480783D01*
X124139827Y-29480781D01*
X124068282Y-29426394D01*
X123854919Y-29264200D01*
X123548253Y-29079685D01*
X123548252Y-29079684D01*
X123548248Y-29079682D01*
X123548244Y-29079680D01*
X123223447Y-28929414D01*
X123223441Y-28929411D01*
X123223435Y-28929409D01*
X123053854Y-28872270D01*
X122884273Y-28815131D01*
X122534744Y-28738194D01*
X122178949Y-28699500D01*
X122178948Y-28699500D01*
X121821052Y-28699500D01*
X121821050Y-28699500D01*
X121465255Y-28738194D01*
X121115726Y-28815131D01*
X120859970Y-28901306D01*
X120776565Y-28929409D01*
X120776563Y-28929410D01*
X120776552Y-28929414D01*
X120451755Y-29079680D01*
X120451751Y-29079682D01*
X120223367Y-29217096D01*
X120145081Y-29264200D01*
X120097329Y-29300500D01*
X119860172Y-29480781D01*
X119860163Y-29480789D01*
X119600331Y-29726914D01*
X119368641Y-29999680D01*
X119368634Y-29999690D01*
X119167790Y-30295913D01*
X119167784Y-30295922D01*
X119000151Y-30612111D01*
X119000142Y-30612129D01*
X118867674Y-30944600D01*
X118867672Y-30944607D01*
X118771932Y-31289434D01*
X118771926Y-31289460D01*
X118714029Y-31642614D01*
X118714028Y-31642631D01*
X118694652Y-31999997D01*
X118694652Y-32000002D01*
X110000500Y-32000002D01*
X110000500Y-25000004D01*
X112342200Y-25000004D01*
X112361364Y-25231295D01*
X112361366Y-25231306D01*
X112418342Y-25456298D01*
X112511575Y-25668846D01*
X112638518Y-25863148D01*
X112671170Y-25898617D01*
X112683922Y-25915045D01*
X113061982Y-26496959D01*
X113081998Y-26563900D01*
X113082000Y-26564514D01*
X113082000Y-27355855D01*
X113092413Y-27457776D01*
X113147137Y-27622922D01*
X113147142Y-27622933D01*
X113238471Y-27770999D01*
X113238474Y-27771003D01*
X113361496Y-27894025D01*
X113361500Y-27894028D01*
X113509566Y-27985357D01*
X113509569Y-27985358D01*
X113509575Y-27985362D01*
X113674725Y-28040087D01*
X113776652Y-28050500D01*
X113776657Y-28050500D01*
X114363343Y-28050500D01*
X114363348Y-28050500D01*
X114465275Y-28040087D01*
X114630425Y-27985362D01*
X114778503Y-27894026D01*
X114901526Y-27771003D01*
X114992862Y-27622925D01*
X115047587Y-27457775D01*
X115058000Y-27355848D01*
X115058000Y-26344152D01*
X115047587Y-26242225D01*
X115022222Y-26165681D01*
X115020167Y-26157757D01*
X115014907Y-26130074D01*
X114982833Y-26036619D01*
X114978269Y-25973384D01*
X115073156Y-25470455D01*
X115075576Y-25461319D01*
X115075397Y-25461274D01*
X115082636Y-25432685D01*
X115133634Y-25231303D01*
X115146183Y-25079844D01*
X115146576Y-25076332D01*
X115147063Y-25072890D01*
X115148363Y-25059081D01*
X115148348Y-25056671D01*
X115148559Y-25051166D01*
X115152800Y-25000004D01*
X133342200Y-25000004D01*
X133361364Y-25231295D01*
X133361366Y-25231306D01*
X133418342Y-25456298D01*
X133511575Y-25668846D01*
X133638518Y-25863148D01*
X133671170Y-25898617D01*
X133683922Y-25915045D01*
X134061982Y-26496959D01*
X134081998Y-26563900D01*
X134082000Y-26564514D01*
X134082000Y-27355855D01*
X134092413Y-27457776D01*
X134147137Y-27622922D01*
X134147142Y-27622933D01*
X134238471Y-27770999D01*
X134238474Y-27771003D01*
X134361496Y-27894025D01*
X134361500Y-27894028D01*
X134509566Y-27985357D01*
X134509569Y-27985358D01*
X134509575Y-27985362D01*
X134674725Y-28040087D01*
X134776652Y-28050500D01*
X134776657Y-28050500D01*
X135363343Y-28050500D01*
X135363348Y-28050500D01*
X135465275Y-28040087D01*
X135630425Y-27985362D01*
X135778503Y-27894026D01*
X135901526Y-27771003D01*
X135945321Y-27700000D01*
X141644815Y-27700000D01*
X141663503Y-27877805D01*
X141663504Y-27877807D01*
X141718747Y-28047829D01*
X141718750Y-28047835D01*
X141808141Y-28202665D01*
X141927770Y-28335526D01*
X141950516Y-28352052D01*
X141954704Y-28355382D01*
X141959964Y-28359948D01*
X141959973Y-28359957D01*
X142506779Y-28770062D01*
X142506796Y-28770074D01*
X142507389Y-28770519D01*
X142520670Y-28782038D01*
X144099888Y-30361255D01*
X144114552Y-30378925D01*
X144123409Y-30391873D01*
X144123411Y-30391875D01*
X144123413Y-30391878D01*
X144575432Y-30884219D01*
X144579337Y-30888301D01*
X144579339Y-30888302D01*
X144611846Y-30918244D01*
X144615921Y-30922366D01*
X144627770Y-30935526D01*
X144772407Y-31040612D01*
X144935733Y-31113329D01*
X145110609Y-31150500D01*
X145110610Y-31150500D01*
X145289389Y-31150500D01*
X145289391Y-31150500D01*
X145464267Y-31113329D01*
X145627593Y-31040612D01*
X145772230Y-30935526D01*
X145784080Y-30922366D01*
X145814751Y-30888302D01*
X145891859Y-30802665D01*
X145981250Y-30647835D01*
X146036497Y-30477803D01*
X146055185Y-30300000D01*
X146036497Y-30122197D01*
X145981250Y-29952165D01*
X145891859Y-29797335D01*
X145845003Y-29745296D01*
X145772235Y-29664478D01*
X145772232Y-29664476D01*
X145772231Y-29664475D01*
X145772230Y-29664474D01*
X145627593Y-29559388D01*
X145627592Y-29559387D01*
X145627590Y-29559386D01*
X145604194Y-29548969D01*
X145584836Y-29537270D01*
X145584413Y-29537887D01*
X145580759Y-29535379D01*
X145580758Y-29535378D01*
X145149960Y-29282910D01*
X145124980Y-29263612D01*
X143582039Y-27720671D01*
X143570520Y-27707390D01*
X143207069Y-27222788D01*
X143202972Y-27216583D01*
X143191859Y-27197335D01*
X143170487Y-27173600D01*
X143166966Y-27169319D01*
X143154710Y-27152977D01*
X143143738Y-27139355D01*
X143136956Y-27131509D01*
X143104264Y-27099834D01*
X143101331Y-27096792D01*
X143072232Y-27064476D01*
X143072231Y-27064475D01*
X143072230Y-27064474D01*
X142927593Y-26959388D01*
X142764267Y-26886671D01*
X142764265Y-26886670D01*
X142623871Y-26856829D01*
X142589391Y-26849500D01*
X142410609Y-26849500D01*
X142384230Y-26855107D01*
X142235733Y-26886670D01*
X142235728Y-26886672D01*
X142072408Y-26959387D01*
X141927768Y-27064475D01*
X141808140Y-27197336D01*
X141718750Y-27352164D01*
X141718747Y-27352170D01*
X141663504Y-27522192D01*
X141663503Y-27522194D01*
X141644815Y-27700000D01*
X135945321Y-27700000D01*
X135992862Y-27622925D01*
X136047587Y-27457775D01*
X136058000Y-27355848D01*
X136058000Y-26344152D01*
X136047587Y-26242225D01*
X136022222Y-26165681D01*
X136020167Y-26157757D01*
X136014907Y-26130074D01*
X135982833Y-26036619D01*
X135978269Y-25973384D01*
X136073156Y-25470455D01*
X136075576Y-25461319D01*
X136075397Y-25461274D01*
X136082636Y-25432685D01*
X136133634Y-25231303D01*
X136146183Y-25079844D01*
X136146576Y-25076332D01*
X136147063Y-25072890D01*
X136148363Y-25059081D01*
X136148348Y-25056671D01*
X136148559Y-25051166D01*
X136152800Y-24999998D01*
X136133634Y-24768693D01*
X136076657Y-24543698D01*
X135983424Y-24331149D01*
X135864787Y-24149561D01*
X135856483Y-24136850D01*
X135856480Y-24136847D01*
X135856479Y-24136845D01*
X135699284Y-23966085D01*
X135699279Y-23966081D01*
X135699277Y-23966079D01*
X135516134Y-23823533D01*
X135516128Y-23823529D01*
X135504278Y-23817116D01*
X143649233Y-23817116D01*
X143649307Y-23818043D01*
X143649500Y-23822927D01*
X143649500Y-23897868D01*
X143649501Y-23897877D01*
X143655908Y-23957481D01*
X143668754Y-23991923D01*
X143670325Y-23996726D01*
X143677298Y-24021397D01*
X143677300Y-24021400D01*
X143684776Y-24036052D01*
X143687640Y-24042561D01*
X143698555Y-24071824D01*
X143706204Y-24092331D01*
X143718750Y-24109091D01*
X143722759Y-24114446D01*
X143733939Y-24132389D01*
X143742700Y-24149556D01*
X144007690Y-24524959D01*
X144179738Y-24768693D01*
X144226804Y-24835369D01*
X144249383Y-24901490D01*
X144249500Y-24906878D01*
X144249500Y-26016817D01*
X144249518Y-26017478D01*
X144249518Y-26106682D01*
X144249518Y-26106686D01*
X144255462Y-26167046D01*
X144276002Y-26375617D01*
X144276003Y-26375624D01*
X144328723Y-26640686D01*
X144328724Y-26640692D01*
X144407168Y-26899296D01*
X144407171Y-26899304D01*
X144510581Y-27148966D01*
X144510582Y-27148970D01*
X144637971Y-27387304D01*
X144637980Y-27387319D01*
X144788102Y-27611998D01*
X144788113Y-27612014D01*
X144959552Y-27820916D01*
X144990717Y-27852082D01*
X144990758Y-27852127D01*
X146017961Y-28879329D01*
X146029480Y-28892610D01*
X146029935Y-28893217D01*
X146029937Y-28893220D01*
X146057079Y-28929409D01*
X146392928Y-29377209D01*
X146397024Y-29383412D01*
X146405217Y-29397602D01*
X146408141Y-29402665D01*
X146429517Y-29426405D01*
X146433036Y-29430684D01*
X146445320Y-29447064D01*
X146456359Y-29460761D01*
X146463176Y-29468643D01*
X146495849Y-29500290D01*
X146498775Y-29503324D01*
X146527637Y-29535379D01*
X146527770Y-29535526D01*
X146672407Y-29640612D01*
X146835733Y-29713329D01*
X147010609Y-29750500D01*
X147010610Y-29750500D01*
X147189389Y-29750500D01*
X147189391Y-29750500D01*
X147364267Y-29713329D01*
X147527593Y-29640612D01*
X147672230Y-29535526D01*
X147672363Y-29535379D01*
X147703971Y-29500274D01*
X147791859Y-29402665D01*
X147881250Y-29247835D01*
X147936497Y-29077803D01*
X147955185Y-28900000D01*
X147936497Y-28722197D01*
X147881250Y-28552165D01*
X147791859Y-28397335D01*
X147672230Y-28264474D01*
X147649494Y-28247955D01*
X147645300Y-28244621D01*
X147640020Y-28240037D01*
X147092608Y-27829478D01*
X147079327Y-27817959D01*
X146118197Y-26856829D01*
X146114899Y-26853262D01*
X145995477Y-26713432D01*
X145984045Y-26697697D01*
X145891796Y-26547157D01*
X145882963Y-26529820D01*
X145815401Y-26366706D01*
X145809392Y-26348211D01*
X145768178Y-26176531D01*
X145765136Y-26157326D01*
X145755638Y-26036622D01*
X145750691Y-25973752D01*
X145750500Y-25968886D01*
X145750500Y-25941322D01*
X145750501Y-25892702D01*
X145750500Y-25892697D01*
X145750500Y-25000004D01*
X154342200Y-25000004D01*
X154361364Y-25231295D01*
X154361366Y-25231306D01*
X154418342Y-25456298D01*
X154511575Y-25668846D01*
X154638518Y-25863148D01*
X154671170Y-25898617D01*
X154683922Y-25915045D01*
X155061982Y-26496959D01*
X155081998Y-26563900D01*
X155082000Y-26564514D01*
X155082000Y-27355855D01*
X155092413Y-27457776D01*
X155147137Y-27622922D01*
X155147142Y-27622933D01*
X155238471Y-27770999D01*
X155238474Y-27771003D01*
X155361496Y-27894025D01*
X155361500Y-27894028D01*
X155509566Y-27985357D01*
X155509569Y-27985358D01*
X155509575Y-27985362D01*
X155674725Y-28040087D01*
X155776652Y-28050500D01*
X155776657Y-28050500D01*
X156363343Y-28050500D01*
X156363348Y-28050500D01*
X156465275Y-28040087D01*
X156630425Y-27985362D01*
X156778503Y-27894026D01*
X156901526Y-27771003D01*
X156992862Y-27622925D01*
X157047587Y-27457775D01*
X157058000Y-27355848D01*
X157058000Y-26344152D01*
X157047587Y-26242225D01*
X157022222Y-26165681D01*
X157020167Y-26157757D01*
X157014907Y-26130074D01*
X156982833Y-26036619D01*
X156978269Y-25973384D01*
X157073156Y-25470455D01*
X157075576Y-25461319D01*
X157075397Y-25461274D01*
X157082636Y-25432685D01*
X157133634Y-25231303D01*
X157146183Y-25079844D01*
X157146576Y-25076332D01*
X157147063Y-25072890D01*
X157148363Y-25059081D01*
X157148348Y-25056671D01*
X157148559Y-25051166D01*
X157152800Y-25000004D01*
X175342200Y-25000004D01*
X175361364Y-25231295D01*
X175361366Y-25231306D01*
X175418342Y-25456298D01*
X175511575Y-25668846D01*
X175638518Y-25863148D01*
X175671170Y-25898617D01*
X175683922Y-25915045D01*
X176061982Y-26496959D01*
X176081998Y-26563900D01*
X176082000Y-26564514D01*
X176082000Y-27355855D01*
X176092413Y-27457776D01*
X176147137Y-27622922D01*
X176147142Y-27622933D01*
X176238471Y-27770999D01*
X176238474Y-27771003D01*
X176361496Y-27894025D01*
X176361500Y-27894028D01*
X176509566Y-27985357D01*
X176509569Y-27985358D01*
X176509575Y-27985362D01*
X176674725Y-28040087D01*
X176776652Y-28050500D01*
X176776657Y-28050500D01*
X177363343Y-28050500D01*
X177363348Y-28050500D01*
X177465275Y-28040087D01*
X177630425Y-27985362D01*
X177778503Y-27894026D01*
X177901526Y-27771003D01*
X177992862Y-27622925D01*
X178047587Y-27457775D01*
X178058000Y-27355848D01*
X178058000Y-26344152D01*
X178047587Y-26242225D01*
X178022222Y-26165681D01*
X178020167Y-26157757D01*
X178014907Y-26130074D01*
X177982833Y-26036619D01*
X177980190Y-26000002D01*
X184694652Y-26000002D01*
X184714028Y-26357368D01*
X184714029Y-26357385D01*
X184771926Y-26710539D01*
X184771932Y-26710565D01*
X184867672Y-27055392D01*
X184867674Y-27055399D01*
X185000142Y-27387870D01*
X185000151Y-27387888D01*
X185167784Y-27704077D01*
X185167787Y-27704082D01*
X185167789Y-27704085D01*
X185358499Y-27985362D01*
X185368634Y-28000309D01*
X185368641Y-28000319D01*
X185578990Y-28247960D01*
X185600332Y-28273086D01*
X185860163Y-28519211D01*
X186145081Y-28735800D01*
X186451747Y-28920315D01*
X186451749Y-28920316D01*
X186451751Y-28920317D01*
X186451755Y-28920319D01*
X186471414Y-28929414D01*
X186776565Y-29070591D01*
X187115726Y-29184868D01*
X187465254Y-29261805D01*
X187821052Y-29300500D01*
X187821058Y-29300500D01*
X188178942Y-29300500D01*
X188178948Y-29300500D01*
X188534746Y-29261805D01*
X188884274Y-29184868D01*
X189223435Y-29070591D01*
X189548253Y-28920315D01*
X189854919Y-28735800D01*
X190139837Y-28519211D01*
X190399668Y-28273086D01*
X190631365Y-28000311D01*
X190832211Y-27704085D01*
X190999853Y-27387880D01*
X191000083Y-27387304D01*
X191014084Y-27352164D01*
X191132324Y-27055403D01*
X191228071Y-26710552D01*
X191256222Y-26538839D01*
X191285970Y-26357385D01*
X191285970Y-26357382D01*
X191285972Y-26357371D01*
X191304436Y-26016817D01*
X191305348Y-26000002D01*
X191305348Y-25999997D01*
X191297928Y-25863148D01*
X191285972Y-25642629D01*
X191256240Y-25461274D01*
X191228073Y-25289460D01*
X191228072Y-25289459D01*
X191228071Y-25289448D01*
X191167944Y-25072890D01*
X191147708Y-25000004D01*
X196342200Y-25000004D01*
X196361364Y-25231295D01*
X196361366Y-25231306D01*
X196418342Y-25456298D01*
X196511575Y-25668846D01*
X196638518Y-25863148D01*
X196671170Y-25898617D01*
X196683922Y-25915045D01*
X197061982Y-26496959D01*
X197081998Y-26563900D01*
X197082000Y-26564514D01*
X197082000Y-27355855D01*
X197092413Y-27457776D01*
X197147137Y-27622922D01*
X197147142Y-27622933D01*
X197238471Y-27770999D01*
X197238474Y-27771003D01*
X197361496Y-27894025D01*
X197361500Y-27894028D01*
X197509566Y-27985357D01*
X197509569Y-27985358D01*
X197509575Y-27985362D01*
X197674725Y-28040087D01*
X197776652Y-28050500D01*
X197776657Y-28050500D01*
X198363343Y-28050500D01*
X198363348Y-28050500D01*
X198465275Y-28040087D01*
X198630425Y-27985362D01*
X198778503Y-27894026D01*
X198901526Y-27771003D01*
X198992862Y-27622925D01*
X199047587Y-27457775D01*
X199058000Y-27355848D01*
X199058000Y-26344152D01*
X199047587Y-26242225D01*
X199022222Y-26165681D01*
X199020167Y-26157757D01*
X199014907Y-26130074D01*
X198982833Y-26036619D01*
X198978269Y-25973384D01*
X199073156Y-25470455D01*
X199075576Y-25461319D01*
X199075397Y-25461274D01*
X199082636Y-25432685D01*
X199133634Y-25231303D01*
X199146183Y-25079844D01*
X199146576Y-25076332D01*
X199147063Y-25072890D01*
X199148363Y-25059081D01*
X199148348Y-25056671D01*
X199148559Y-25051166D01*
X199152800Y-24999998D01*
X199133634Y-24768693D01*
X199076657Y-24543698D01*
X198983424Y-24331149D01*
X198864787Y-24149561D01*
X198856483Y-24136850D01*
X198856480Y-24136847D01*
X198856479Y-24136845D01*
X198699284Y-23966085D01*
X198699279Y-23966081D01*
X198699277Y-23966079D01*
X198516134Y-23823533D01*
X198516128Y-23823529D01*
X198312004Y-23713062D01*
X198311995Y-23713059D01*
X198092484Y-23637700D01*
X197920782Y-23609048D01*
X197863549Y-23599498D01*
X197631451Y-23599498D01*
X197585664Y-23607138D01*
X197402515Y-23637700D01*
X197183004Y-23713059D01*
X197182995Y-23713062D01*
X196978871Y-23823529D01*
X196978865Y-23823533D01*
X196795722Y-23966079D01*
X196795719Y-23966082D01*
X196795716Y-23966084D01*
X196795716Y-23966085D01*
X196764781Y-23999690D01*
X196638516Y-24136850D01*
X196511575Y-24331149D01*
X196418342Y-24543697D01*
X196361366Y-24768689D01*
X196361364Y-24768700D01*
X196342200Y-24999991D01*
X196342200Y-25000004D01*
X191147708Y-25000004D01*
X191132327Y-24944607D01*
X191132325Y-24944600D01*
X191115148Y-24901490D01*
X191062240Y-24768700D01*
X190999857Y-24612129D01*
X190999848Y-24612111D01*
X190832215Y-24295922D01*
X190832213Y-24295919D01*
X190832211Y-24295915D01*
X190631365Y-23999689D01*
X190631361Y-23999684D01*
X190631358Y-23999680D01*
X190399668Y-23726914D01*
X190305486Y-23637700D01*
X190139837Y-23480789D01*
X190139830Y-23480783D01*
X190139827Y-23480781D01*
X190072245Y-23429407D01*
X189854919Y-23264200D01*
X189548253Y-23079685D01*
X189548252Y-23079684D01*
X189548248Y-23079682D01*
X189548244Y-23079680D01*
X189223447Y-22929414D01*
X189223441Y-22929411D01*
X189223435Y-22929409D01*
X189036981Y-22866585D01*
X188884273Y-22815131D01*
X188534744Y-22738194D01*
X188178949Y-22699500D01*
X188178948Y-22699500D01*
X187821052Y-22699500D01*
X187821050Y-22699500D01*
X187465255Y-22738194D01*
X187115726Y-22815131D01*
X186859970Y-22901306D01*
X186776565Y-22929409D01*
X186776563Y-22929410D01*
X186776552Y-22929414D01*
X186451755Y-23079680D01*
X186451751Y-23079682D01*
X186223367Y-23217096D01*
X186145081Y-23264200D01*
X186056768Y-23331333D01*
X185860172Y-23480781D01*
X185860163Y-23480789D01*
X185600331Y-23726914D01*
X185368641Y-23999680D01*
X185368634Y-23999690D01*
X185167790Y-24295913D01*
X185167784Y-24295922D01*
X185000151Y-24612111D01*
X185000142Y-24612129D01*
X184867674Y-24944600D01*
X184867672Y-24944607D01*
X184771932Y-25289434D01*
X184771926Y-25289460D01*
X184714029Y-25642614D01*
X184714028Y-25642631D01*
X184694652Y-25999997D01*
X184694652Y-26000002D01*
X177980190Y-26000002D01*
X177978269Y-25973384D01*
X178073156Y-25470455D01*
X178075576Y-25461319D01*
X178075397Y-25461274D01*
X178082636Y-25432685D01*
X178133634Y-25231303D01*
X178146183Y-25079844D01*
X178146576Y-25076332D01*
X178147063Y-25072890D01*
X178148363Y-25059081D01*
X178148348Y-25056671D01*
X178148559Y-25051166D01*
X178152800Y-24999998D01*
X178133634Y-24768693D01*
X178076657Y-24543698D01*
X177983424Y-24331149D01*
X177864787Y-24149561D01*
X177856483Y-24136850D01*
X177856480Y-24136847D01*
X177856479Y-24136845D01*
X177699284Y-23966085D01*
X177699279Y-23966081D01*
X177699277Y-23966079D01*
X177516134Y-23823533D01*
X177516128Y-23823529D01*
X177312004Y-23713062D01*
X177311995Y-23713059D01*
X177092484Y-23637700D01*
X176920782Y-23609048D01*
X176863549Y-23599498D01*
X176631451Y-23599498D01*
X176585664Y-23607138D01*
X176402515Y-23637700D01*
X176183004Y-23713059D01*
X176182995Y-23713062D01*
X175978871Y-23823529D01*
X175978865Y-23823533D01*
X175795722Y-23966079D01*
X175795719Y-23966082D01*
X175795716Y-23966084D01*
X175795716Y-23966085D01*
X175764781Y-23999690D01*
X175638516Y-24136850D01*
X175511575Y-24331149D01*
X175418342Y-24543697D01*
X175361366Y-24768689D01*
X175361364Y-24768700D01*
X175342200Y-24999991D01*
X175342200Y-25000004D01*
X157152800Y-25000004D01*
X157152800Y-24999998D01*
X157133634Y-24768693D01*
X157076657Y-24543698D01*
X156983424Y-24331149D01*
X156864787Y-24149561D01*
X156856483Y-24136850D01*
X156856480Y-24136847D01*
X156856479Y-24136845D01*
X156699284Y-23966085D01*
X156699279Y-23966081D01*
X156699277Y-23966079D01*
X156516134Y-23823533D01*
X156516128Y-23823529D01*
X156312004Y-23713062D01*
X156311995Y-23713059D01*
X156092484Y-23637700D01*
X155920782Y-23609048D01*
X155863549Y-23599498D01*
X155631451Y-23599498D01*
X155585664Y-23607138D01*
X155402515Y-23637700D01*
X155183004Y-23713059D01*
X155182995Y-23713062D01*
X154978871Y-23823529D01*
X154978865Y-23823533D01*
X154795722Y-23966079D01*
X154795719Y-23966082D01*
X154795716Y-23966084D01*
X154795716Y-23966085D01*
X154764781Y-23999690D01*
X154638516Y-24136850D01*
X154511575Y-24331149D01*
X154418342Y-24543697D01*
X154361366Y-24768689D01*
X154361364Y-24768700D01*
X154342200Y-24999991D01*
X154342200Y-25000004D01*
X145750500Y-25000004D01*
X145750500Y-24906877D01*
X145770185Y-24839838D01*
X145773190Y-24835375D01*
X146153987Y-24295915D01*
X146257296Y-24149561D01*
X146259084Y-24146968D01*
X146263466Y-24140618D01*
X146268874Y-24129432D01*
X146281238Y-24109104D01*
X146293796Y-24092331D01*
X146316351Y-24031856D01*
X146318609Y-24026570D01*
X146326097Y-24011085D01*
X146328238Y-24004345D01*
X146330622Y-23994737D01*
X146332700Y-23988019D01*
X146344091Y-23957483D01*
X146350500Y-23897873D01*
X146350499Y-22102128D01*
X146344091Y-22042517D01*
X146293796Y-21907669D01*
X146293795Y-21907668D01*
X146293793Y-21907664D01*
X146207547Y-21792455D01*
X146207544Y-21792452D01*
X146092335Y-21706206D01*
X146092328Y-21706202D01*
X145957482Y-21655908D01*
X145957483Y-21655908D01*
X145897883Y-21649501D01*
X145897881Y-21649500D01*
X145897873Y-21649500D01*
X145897864Y-21649500D01*
X144102129Y-21649500D01*
X144102123Y-21649501D01*
X144042516Y-21655908D01*
X143907671Y-21706202D01*
X143907664Y-21706206D01*
X143792455Y-21792452D01*
X143792452Y-21792455D01*
X143706206Y-21907664D01*
X143706202Y-21907671D01*
X143655908Y-22042517D01*
X143652620Y-22073104D01*
X143649501Y-22102123D01*
X143649500Y-22102135D01*
X143649500Y-23810962D01*
X143649375Y-23814897D01*
X143649233Y-23817116D01*
X135504278Y-23817116D01*
X135312004Y-23713062D01*
X135311995Y-23713059D01*
X135092484Y-23637700D01*
X134920782Y-23609048D01*
X134863549Y-23599498D01*
X134631451Y-23599498D01*
X134585664Y-23607138D01*
X134402515Y-23637700D01*
X134183004Y-23713059D01*
X134182995Y-23713062D01*
X133978871Y-23823529D01*
X133978865Y-23823533D01*
X133795722Y-23966079D01*
X133795719Y-23966082D01*
X133795716Y-23966084D01*
X133795716Y-23966085D01*
X133764781Y-23999690D01*
X133638516Y-24136850D01*
X133511575Y-24331149D01*
X133418342Y-24543697D01*
X133361366Y-24768689D01*
X133361364Y-24768700D01*
X133342200Y-24999991D01*
X133342200Y-25000004D01*
X115152800Y-25000004D01*
X115152800Y-24999998D01*
X115133634Y-24768693D01*
X115076657Y-24543698D01*
X114983424Y-24331149D01*
X114864787Y-24149561D01*
X114856483Y-24136850D01*
X114856480Y-24136847D01*
X114856479Y-24136845D01*
X114699284Y-23966085D01*
X114699279Y-23966081D01*
X114699277Y-23966079D01*
X114516134Y-23823533D01*
X114516128Y-23823529D01*
X114312004Y-23713062D01*
X114311995Y-23713059D01*
X114092484Y-23637700D01*
X113920782Y-23609048D01*
X113863549Y-23599498D01*
X113631451Y-23599498D01*
X113585664Y-23607138D01*
X113402515Y-23637700D01*
X113183004Y-23713059D01*
X113182995Y-23713062D01*
X112978871Y-23823529D01*
X112978865Y-23823533D01*
X112795722Y-23966079D01*
X112795719Y-23966082D01*
X112795716Y-23966084D01*
X112795716Y-23966085D01*
X112764781Y-23999690D01*
X112638516Y-24136850D01*
X112511575Y-24331149D01*
X112418342Y-24543697D01*
X112361366Y-24768689D01*
X112361364Y-24768700D01*
X112342200Y-24999991D01*
X112342200Y-25000004D01*
X110000500Y-25000004D01*
X110000500Y-23001622D01*
X110000585Y-22998376D01*
X110007494Y-22866540D01*
X110017803Y-22682968D01*
X110018464Y-22676791D01*
X110042611Y-22524331D01*
X110070227Y-22361796D01*
X110071451Y-22356196D01*
X110112425Y-22203279D01*
X110157083Y-22048268D01*
X110158764Y-22043254D01*
X110216127Y-21893815D01*
X110277366Y-21745972D01*
X110279379Y-21741606D01*
X110352511Y-21598078D01*
X110359688Y-21585090D01*
X110429655Y-21458494D01*
X110431867Y-21454808D01*
X110519980Y-21319127D01*
X110534130Y-21299182D01*
X110612154Y-21189220D01*
X110614486Y-21186143D01*
X110715655Y-21061209D01*
X110717537Y-21058998D01*
X110822773Y-20941239D01*
X110825092Y-20938787D01*
X110938787Y-20825092D01*
X110941239Y-20822773D01*
X111058998Y-20717537D01*
X111061209Y-20715655D01*
X111186143Y-20614486D01*
X111189220Y-20612154D01*
X111319127Y-20519980D01*
X111329046Y-20513537D01*
X111454808Y-20431867D01*
X111458494Y-20429655D01*
X111598078Y-20352511D01*
X111610063Y-20346403D01*
X111741606Y-20279379D01*
X111745972Y-20277366D01*
X111893815Y-20216127D01*
X112043254Y-20158764D01*
X112048268Y-20157083D01*
X112203279Y-20112425D01*
X112356196Y-20071451D01*
X112361796Y-20070227D01*
X112524284Y-20042618D01*
X112676791Y-20018464D01*
X112682968Y-20017803D01*
X112866566Y-20007493D01*
X112998380Y-20000584D01*
X113001622Y-20000500D01*
X206998378Y-20000500D01*
X207001619Y-20000584D01*
G37*
%TD.AperFunction*%
%TD*%
%TA.AperFunction,Conductor*%
%TO.N,+VSW*%
G36*
X138913492Y-41053908D02*
G01*
X139588000Y-41160934D01*
X139595632Y-41165615D01*
X139597865Y-41172489D01*
X139597865Y-41652201D01*
X139594438Y-41660474D01*
X139587650Y-41663806D01*
X138913147Y-41750086D01*
X138904505Y-41747737D01*
X138900057Y-41739966D01*
X138899962Y-41738514D01*
X138899715Y-41652201D01*
X138899000Y-41401768D01*
X138899960Y-41065428D01*
X138903411Y-41057167D01*
X138911693Y-41053764D01*
X138913492Y-41053908D01*
G37*
%TD.AperFunction*%
%TD*%
%TA.AperFunction,Conductor*%
%TO.N,+VSW*%
G36*
X143107858Y-41066624D02*
G01*
X143112420Y-41074329D01*
X143112538Y-41075951D01*
X143113500Y-41412500D01*
X143112538Y-41749048D01*
X143109087Y-41757312D01*
X143100805Y-41760715D01*
X143099183Y-41760597D01*
X142422545Y-41663935D01*
X142414840Y-41659373D01*
X142412500Y-41652353D01*
X142412500Y-41172647D01*
X142415927Y-41164374D01*
X142422545Y-41161065D01*
X143099184Y-41064402D01*
X143107858Y-41066624D01*
G37*
%TD.AperFunction*%
%TD*%
%TA.AperFunction,Conductor*%
%TO.N,Net-(D21-A)*%
G36*
X153813311Y-65251901D02*
G01*
X154489955Y-65348565D01*
X154497660Y-65353127D01*
X154500000Y-65360147D01*
X154500000Y-65839853D01*
X154496573Y-65848126D01*
X154489955Y-65851435D01*
X153813316Y-65948097D01*
X153804641Y-65945875D01*
X153800079Y-65938170D01*
X153799961Y-65936556D01*
X153799000Y-65600000D01*
X153799961Y-65263449D01*
X153803412Y-65255187D01*
X153811694Y-65251784D01*
X153813311Y-65251901D01*
G37*
%TD.AperFunction*%
%TD*%
%TA.AperFunction,Conductor*%
%TO.N,Net-(D5-A)*%
G36*
X155613311Y-46851901D02*
G01*
X156289955Y-46948565D01*
X156297660Y-46953127D01*
X156300000Y-46960147D01*
X156300000Y-47439853D01*
X156296573Y-47448126D01*
X156289955Y-47451435D01*
X155613316Y-47548097D01*
X155604641Y-47545875D01*
X155600079Y-47538170D01*
X155599961Y-47536556D01*
X155599000Y-47200000D01*
X155599961Y-46863449D01*
X155603412Y-46855187D01*
X155611694Y-46851784D01*
X155613311Y-46851901D01*
G37*
%TD.AperFunction*%
%TD*%
%TA.AperFunction,Conductor*%
%TO.N,Net-(D5-A)*%
G36*
X168097848Y-52213425D02*
G01*
X168100440Y-52217358D01*
X168674710Y-53654865D01*
X168674597Y-53663819D01*
X168668333Y-53670010D01*
X167851988Y-54009133D01*
X167843034Y-54009142D01*
X167843012Y-54009133D01*
X167026666Y-53670010D01*
X167020340Y-53663671D01*
X167020289Y-53654866D01*
X167594560Y-52217356D01*
X167600811Y-52210946D01*
X167605425Y-52209998D01*
X168089575Y-52209998D01*
X168097848Y-52213425D01*
G37*
%TD.AperFunction*%
%TD*%
%TA.AperFunction,Conductor*%
%TO.N,+VSW*%
G36*
X145008266Y-23007276D02*
G01*
X145672701Y-23672492D01*
X145843039Y-23843031D01*
X145846461Y-23851306D01*
X145844320Y-23858046D01*
X145253496Y-24695047D01*
X145245925Y-24699830D01*
X145243937Y-24700000D01*
X144756063Y-24700000D01*
X144747790Y-24696573D01*
X144746504Y-24695047D01*
X144564711Y-24437508D01*
X144155678Y-23858044D01*
X144153708Y-23849311D01*
X144156959Y-23843032D01*
X144991723Y-23007286D01*
X144999993Y-23003855D01*
X145008266Y-23007276D01*
G37*
%TD.AperFunction*%
%TD*%
%TA.AperFunction,Conductor*%
%TO.N,+VSW*%
G36*
X146789920Y-28234337D02*
G01*
X147336726Y-28644442D01*
X147341288Y-28652147D01*
X147339066Y-28660822D01*
X147338003Y-28662051D01*
X147100707Y-28900707D01*
X146862051Y-29138003D01*
X146853769Y-29141406D01*
X146845505Y-29137955D01*
X146844442Y-29136726D01*
X146434337Y-28589920D01*
X146432115Y-28581245D01*
X146435423Y-28574629D01*
X146774628Y-28235423D01*
X146782900Y-28231997D01*
X146789920Y-28234337D01*
G37*
%TD.AperFunction*%
%TD*%
%TA.AperFunction,Conductor*%
%TO.N,Net-(D21-A)*%
G36*
X182506673Y-68489987D02*
G01*
X183323714Y-68827435D01*
X183330053Y-68833761D01*
X183330062Y-68833783D01*
X183667509Y-69650822D01*
X183667500Y-69659776D01*
X183661309Y-69666040D01*
X182238767Y-70276440D01*
X182229812Y-70276553D01*
X182225880Y-70273961D01*
X181883536Y-69931617D01*
X181880109Y-69923344D01*
X181881057Y-69918730D01*
X181989484Y-69666040D01*
X182491457Y-68496187D01*
X182497868Y-68489937D01*
X182506673Y-68489987D01*
G37*
%TD.AperFunction*%
%TD*%
%TA.AperFunction,Conductor*%
%TO.N,Net-(D21-A)*%
G36*
X173432894Y-78385465D02*
G01*
X173775162Y-78727733D01*
X173778589Y-78736006D01*
X173778489Y-78737529D01*
X173608834Y-80029829D01*
X173604360Y-80037586D01*
X173597243Y-80040006D01*
X172711651Y-80040701D01*
X172703377Y-80037282D01*
X172080579Y-79413098D01*
X172077161Y-79404821D01*
X172080597Y-79396552D01*
X172081793Y-79395510D01*
X173417561Y-78384408D01*
X173426224Y-78382148D01*
X173432894Y-78385465D01*
G37*
%TD.AperFunction*%
%TD*%
%TA.AperFunction,Conductor*%
%TO.N,Net-(D21-A)*%
G36*
X165713311Y-79251901D02*
G01*
X166389955Y-79348565D01*
X166397660Y-79353127D01*
X166400000Y-79360147D01*
X166400000Y-79839853D01*
X166396573Y-79848126D01*
X166389955Y-79851435D01*
X165713316Y-79948097D01*
X165704641Y-79945875D01*
X165700079Y-79938170D01*
X165699961Y-79936556D01*
X165699000Y-79600000D01*
X165699961Y-79263449D01*
X165703412Y-79255187D01*
X165711694Y-79251784D01*
X165713311Y-79251901D01*
G37*
%TD.AperFunction*%
%TD*%
%TA.AperFunction,Conductor*%
%TO.N,Net-(D21-A)*%
G36*
X172702989Y-79144019D02*
G01*
X172707422Y-79151799D01*
X172707514Y-79153248D01*
X172708494Y-80035138D01*
X172705076Y-80043415D01*
X172705061Y-80043431D01*
X172078515Y-80668994D01*
X172070239Y-80672414D01*
X172062931Y-80669844D01*
X171044258Y-79853512D01*
X171039945Y-79845664D01*
X171039875Y-79844382D01*
X171039875Y-79360318D01*
X171043302Y-79352045D01*
X171050110Y-79348710D01*
X172694353Y-79141653D01*
X172702989Y-79144019D01*
G37*
%TD.AperFunction*%
%TD*%
%TA.AperFunction,Conductor*%
%TO.N,Net-(D5-A)*%
G36*
X142754494Y-27462043D02*
G01*
X142755557Y-27463273D01*
X143165662Y-28010079D01*
X143167884Y-28018754D01*
X143164575Y-28025372D01*
X142825372Y-28364575D01*
X142817099Y-28368002D01*
X142810079Y-28365662D01*
X142263273Y-27955557D01*
X142258711Y-27947852D01*
X142260933Y-27939177D01*
X142261978Y-27937967D01*
X142499293Y-27699293D01*
X142737951Y-27461994D01*
X142746230Y-27458593D01*
X142754494Y-27462043D01*
G37*
%TD.AperFunction*%
%TD*%
%TA.AperFunction,Conductor*%
%TO.N,Net-(D5-A)*%
G36*
X144849545Y-29692764D02*
G01*
X145053968Y-29812565D01*
X145325169Y-29971502D01*
X145330573Y-29978640D01*
X145330073Y-29986044D01*
X145201604Y-30298523D01*
X145199032Y-30302371D01*
X144961146Y-30538902D01*
X144952864Y-30542305D01*
X144944600Y-30538854D01*
X144944291Y-30538531D01*
X144495774Y-30050004D01*
X144492705Y-30041594D01*
X144496120Y-30033821D01*
X144835357Y-29694584D01*
X144843629Y-29691158D01*
X144849545Y-29692764D01*
G37*
%TD.AperFunction*%
%TD*%
%TA.AperFunction,Conductor*%
%TO.N,Net-(D10-A)*%
G36*
X174613409Y-38347718D02*
G01*
X174955699Y-38690008D01*
X174959126Y-38698281D01*
X174959067Y-38699450D01*
X174828556Y-39999475D01*
X174824320Y-40007364D01*
X174816924Y-40010006D01*
X173931651Y-40010701D01*
X173923377Y-40007282D01*
X173300407Y-39382926D01*
X173296990Y-39374650D01*
X173300426Y-39366381D01*
X173301450Y-39365472D01*
X174597907Y-38346790D01*
X174606530Y-38344374D01*
X174613409Y-38347718D01*
G37*
%TD.AperFunction*%
%TD*%
%TA.AperFunction,Conductor*%
%TO.N,Net-(D10-A)*%
G36*
X181495358Y-36354124D02*
G01*
X181499920Y-36361829D01*
X181500038Y-36363451D01*
X181501000Y-36700000D01*
X181500038Y-37036548D01*
X181496587Y-37044812D01*
X181488305Y-37048215D01*
X181486683Y-37048097D01*
X180810045Y-36951435D01*
X180802340Y-36946873D01*
X180800000Y-36939853D01*
X180800000Y-36460147D01*
X180803427Y-36451874D01*
X180810045Y-36448565D01*
X181486684Y-36351902D01*
X181495358Y-36354124D01*
G37*
%TD.AperFunction*%
%TD*%
%TA.AperFunction,Conductor*%
%TO.N,+5V*%
G36*
X167936449Y-42370092D02*
G01*
X168246191Y-42497436D01*
X168252540Y-42503751D01*
X168252563Y-42503808D01*
X168379906Y-42813549D01*
X168379883Y-42822504D01*
X168374573Y-42828331D01*
X167868734Y-43096981D01*
X167859820Y-43097835D01*
X167854973Y-43094921D01*
X167655078Y-42895026D01*
X167651651Y-42886753D01*
X167653016Y-42881269D01*
X167921668Y-42375425D01*
X167928575Y-42369727D01*
X167936449Y-42370092D01*
G37*
%TD.AperFunction*%
%TD*%
%TA.AperFunction,Conductor*%
%TO.N,+5V*%
G36*
X164991726Y-43747466D02*
G01*
X164998633Y-43753165D01*
X165000000Y-43758653D01*
X165000000Y-44041346D01*
X164996573Y-44049619D01*
X164991726Y-44052533D01*
X164444079Y-44220252D01*
X164435165Y-44219398D01*
X164429855Y-44213571D01*
X164300880Y-43904506D01*
X164300857Y-43895551D01*
X164300880Y-43895494D01*
X164361596Y-43750000D01*
X164429855Y-43586427D01*
X164436204Y-43580113D01*
X164444077Y-43579747D01*
X164991726Y-43747466D01*
G37*
%TD.AperFunction*%
%TD*%
%TA.AperFunction,Conductor*%
%TO.N,Net-(Q1-G)*%
G36*
X162591726Y-52647466D02*
G01*
X162598633Y-52653165D01*
X162600000Y-52658653D01*
X162600000Y-52941346D01*
X162596573Y-52949619D01*
X162591726Y-52952533D01*
X162044079Y-53120252D01*
X162035165Y-53119398D01*
X162029855Y-53113571D01*
X161900880Y-52804506D01*
X161900857Y-52795551D01*
X161900880Y-52795494D01*
X161961596Y-52650000D01*
X162029855Y-52486427D01*
X162036204Y-52480113D01*
X162044077Y-52479747D01*
X162591726Y-52647466D01*
G37*
%TD.AperFunction*%
%TD*%
%TA.AperFunction,Conductor*%
%TO.N,Net-(Q1-G)*%
G36*
X163864834Y-52480601D02*
G01*
X163870144Y-52486428D01*
X163999119Y-52795494D01*
X163999142Y-52804449D01*
X163999119Y-52804506D01*
X163870144Y-53113571D01*
X163863795Y-53119886D01*
X163855920Y-53120252D01*
X163308274Y-52952533D01*
X163301367Y-52946834D01*
X163300000Y-52941346D01*
X163300000Y-52658653D01*
X163303427Y-52650380D01*
X163308274Y-52647466D01*
X163855921Y-52479747D01*
X163864834Y-52480601D01*
G37*
%TD.AperFunction*%
%TD*%
%TA.AperFunction,Conductor*%
%TO.N,Net-(U1-STDBY)*%
G36*
X168798396Y-66416108D02*
G01*
X168804387Y-66421731D01*
X169098041Y-67017099D01*
X169098627Y-67026035D01*
X169095821Y-67030548D01*
X168895548Y-67230821D01*
X168887275Y-67234248D01*
X168882099Y-67233041D01*
X168286731Y-66939387D01*
X168280828Y-66932654D01*
X168281087Y-66924442D01*
X168427437Y-66568802D01*
X168433753Y-66562457D01*
X168789442Y-66416087D01*
X168798396Y-66416108D01*
G37*
%TD.AperFunction*%
%TD*%
%TA.AperFunction,Conductor*%
%TO.N,Net-(U1-STDBY)*%
G36*
X172533720Y-70452532D02*
G01*
X173142728Y-70725806D01*
X173148873Y-70732320D01*
X173148758Y-70740933D01*
X173002563Y-71096195D01*
X172996245Y-71102542D01*
X172996195Y-71102563D01*
X172640232Y-71249046D01*
X172631278Y-71249025D01*
X172625461Y-71243741D01*
X172351150Y-70730448D01*
X172318318Y-70669013D01*
X172317442Y-70660102D01*
X172320363Y-70655228D01*
X172520658Y-70454933D01*
X172528930Y-70451507D01*
X172533720Y-70452532D01*
G37*
%TD.AperFunction*%
%TD*%
%TA.AperFunction,Conductor*%
%TO.N,Net-(U1-CHRG)*%
G36*
X170745874Y-69934894D02*
G01*
X171343192Y-70225638D01*
X171349131Y-70232340D01*
X171348891Y-70240610D01*
X171202563Y-70596195D01*
X171196245Y-70602542D01*
X171196195Y-70602563D01*
X170840510Y-70748932D01*
X170831556Y-70748911D01*
X170825590Y-70743337D01*
X170530006Y-70150915D01*
X170529380Y-70141984D01*
X170532201Y-70137422D01*
X170732482Y-69937141D01*
X170740754Y-69933715D01*
X170745874Y-69934894D01*
G37*
%TD.AperFunction*%
%TD*%
%TA.AperFunction,Conductor*%
%TO.N,Net-(U1-CHRG)*%
G36*
X168798396Y-67686108D02*
G01*
X168804387Y-67691731D01*
X169098041Y-68287099D01*
X169098627Y-68296035D01*
X169095821Y-68300548D01*
X168895548Y-68500821D01*
X168887275Y-68504248D01*
X168882099Y-68503041D01*
X168286731Y-68209387D01*
X168280828Y-68202654D01*
X168281087Y-68194442D01*
X168427437Y-67838802D01*
X168433753Y-67832457D01*
X168789442Y-67686087D01*
X168798396Y-67686108D01*
G37*
%TD.AperFunction*%
%TD*%
%TA.AperFunction,Conductor*%
%TO.N,Net-(D5-A)*%
G36*
X114319919Y-25665927D02*
G01*
X114322712Y-25670402D01*
X114536780Y-26294162D01*
X114536225Y-26303100D01*
X114534621Y-26305547D01*
X114078907Y-26840543D01*
X114070933Y-26844619D01*
X114062413Y-26841863D01*
X114061093Y-26840543D01*
X113605378Y-26305547D01*
X113602622Y-26297027D01*
X113603219Y-26294162D01*
X113817288Y-25670402D01*
X113823214Y-25663689D01*
X113828354Y-25662500D01*
X114311646Y-25662500D01*
X114319919Y-25665927D01*
G37*
%TD.AperFunction*%
%TD*%
%TA.AperFunction,Conductor*%
%TO.N,Net-(D5-A)*%
G36*
X114633402Y-24999982D02*
G01*
X114641671Y-25003418D01*
X114645089Y-25011695D01*
X114644886Y-25013851D01*
X114321798Y-26726318D01*
X114316897Y-26733813D01*
X114310301Y-26735849D01*
X113826351Y-26735849D01*
X113818078Y-26732422D01*
X113816540Y-26730523D01*
X112923665Y-25356199D01*
X112922031Y-25347395D01*
X112927102Y-25340014D01*
X112928979Y-25339024D01*
X113745342Y-24999894D01*
X113749836Y-24999000D01*
X114633402Y-24999982D01*
G37*
%TD.AperFunction*%
%TD*%
%TA.AperFunction,Conductor*%
%TO.N,Net-(D15-A)*%
G36*
X117989919Y-45685927D02*
G01*
X117992712Y-45690402D01*
X118206780Y-46314162D01*
X118206225Y-46323100D01*
X118204621Y-46325547D01*
X117748907Y-46860543D01*
X117740933Y-46864619D01*
X117732413Y-46861863D01*
X117731093Y-46860543D01*
X117275378Y-46325547D01*
X117272622Y-46317027D01*
X117273219Y-46314162D01*
X117487288Y-45690402D01*
X117493214Y-45683689D01*
X117498354Y-45682500D01*
X117981646Y-45682500D01*
X117989919Y-45685927D01*
G37*
%TD.AperFunction*%
%TD*%
%TA.AperFunction,Conductor*%
%TO.N,Net-(D15-A)*%
G36*
X118303402Y-45019982D02*
G01*
X118311671Y-45023418D01*
X118315089Y-45031695D01*
X118314886Y-45033851D01*
X117991798Y-46746318D01*
X117986897Y-46753813D01*
X117980301Y-46755849D01*
X117496351Y-46755849D01*
X117488078Y-46752422D01*
X117486540Y-46750523D01*
X116593665Y-45376199D01*
X116592031Y-45367395D01*
X116597102Y-45360014D01*
X116598979Y-45359024D01*
X117415342Y-45019894D01*
X117419836Y-45019000D01*
X118303402Y-45019982D01*
G37*
%TD.AperFunction*%
%TD*%
%TA.AperFunction,Conductor*%
%TO.N,Net-(D15-A)*%
G36*
X129339919Y-37995927D02*
G01*
X129342712Y-38000402D01*
X129556780Y-38624162D01*
X129556225Y-38633100D01*
X129554621Y-38635547D01*
X129098907Y-39170543D01*
X129090933Y-39174619D01*
X129082413Y-39171863D01*
X129081093Y-39170543D01*
X128625378Y-38635547D01*
X128622622Y-38627027D01*
X128623219Y-38624162D01*
X128837288Y-38000402D01*
X128843214Y-37993689D01*
X128848354Y-37992500D01*
X129331646Y-37992500D01*
X129339919Y-37995927D01*
G37*
%TD.AperFunction*%
%TD*%
%TA.AperFunction,Conductor*%
%TO.N,Net-(D15-A)*%
G36*
X129653402Y-37329982D02*
G01*
X129661671Y-37333418D01*
X129665089Y-37341695D01*
X129664886Y-37343851D01*
X129341798Y-39056318D01*
X129336897Y-39063813D01*
X129330301Y-39065849D01*
X128846351Y-39065849D01*
X128838078Y-39062422D01*
X128836540Y-39060523D01*
X127943665Y-37686199D01*
X127942031Y-37677395D01*
X127947102Y-37670014D01*
X127948979Y-37669024D01*
X128765342Y-37329894D01*
X128769836Y-37329000D01*
X129653402Y-37329982D01*
G37*
%TD.AperFunction*%
%TD*%
%TA.AperFunction,Conductor*%
%TO.N,Net-(D5-A)*%
G36*
X135319919Y-25665927D02*
G01*
X135322712Y-25670402D01*
X135536780Y-26294162D01*
X135536225Y-26303100D01*
X135534621Y-26305547D01*
X135078907Y-26840543D01*
X135070933Y-26844619D01*
X135062413Y-26841863D01*
X135061093Y-26840543D01*
X134605378Y-26305547D01*
X134602622Y-26297027D01*
X134603219Y-26294162D01*
X134817288Y-25670402D01*
X134823214Y-25663689D01*
X134828354Y-25662500D01*
X135311646Y-25662500D01*
X135319919Y-25665927D01*
G37*
%TD.AperFunction*%
%TD*%
%TA.AperFunction,Conductor*%
%TO.N,Net-(D5-A)*%
G36*
X135633402Y-24999982D02*
G01*
X135641671Y-25003418D01*
X135645089Y-25011695D01*
X135644886Y-25013851D01*
X135321798Y-26726318D01*
X135316897Y-26733813D01*
X135310301Y-26735849D01*
X134826351Y-26735849D01*
X134818078Y-26732422D01*
X134816540Y-26730523D01*
X133923665Y-25356199D01*
X133922031Y-25347395D01*
X133927102Y-25340014D01*
X133928979Y-25339024D01*
X134745342Y-24999894D01*
X134749836Y-24999000D01*
X135633402Y-24999982D01*
G37*
%TD.AperFunction*%
%TD*%
%TA.AperFunction,Conductor*%
%TO.N,Net-(D5-A)*%
G36*
X156319919Y-25665927D02*
G01*
X156322712Y-25670402D01*
X156536780Y-26294162D01*
X156536225Y-26303100D01*
X156534621Y-26305547D01*
X156078907Y-26840543D01*
X156070933Y-26844619D01*
X156062413Y-26841863D01*
X156061093Y-26840543D01*
X155605378Y-26305547D01*
X155602622Y-26297027D01*
X155603219Y-26294162D01*
X155817288Y-25670402D01*
X155823214Y-25663689D01*
X155828354Y-25662500D01*
X156311646Y-25662500D01*
X156319919Y-25665927D01*
G37*
%TD.AperFunction*%
%TD*%
%TA.AperFunction,Conductor*%
%TO.N,Net-(D5-A)*%
G36*
X156633402Y-24999982D02*
G01*
X156641671Y-25003418D01*
X156645089Y-25011695D01*
X156644886Y-25013851D01*
X156321798Y-26726318D01*
X156316897Y-26733813D01*
X156310301Y-26735849D01*
X155826351Y-26735849D01*
X155818078Y-26732422D01*
X155816540Y-26730523D01*
X154923665Y-25356199D01*
X154922031Y-25347395D01*
X154927102Y-25340014D01*
X154928979Y-25339024D01*
X155745342Y-24999894D01*
X155749836Y-24999000D01*
X156633402Y-24999982D01*
G37*
%TD.AperFunction*%
%TD*%
%TA.AperFunction,Conductor*%
%TO.N,Net-(D5-A)*%
G36*
X152469919Y-39945927D02*
G01*
X152472712Y-39950402D01*
X152686780Y-40574162D01*
X152686225Y-40583100D01*
X152684621Y-40585547D01*
X152228907Y-41120543D01*
X152220933Y-41124619D01*
X152212413Y-41121863D01*
X152211093Y-41120543D01*
X151755378Y-40585547D01*
X151752622Y-40577027D01*
X151753219Y-40574162D01*
X151967288Y-39950402D01*
X151973214Y-39943689D01*
X151978354Y-39942500D01*
X152461646Y-39942500D01*
X152469919Y-39945927D01*
G37*
%TD.AperFunction*%
%TD*%
%TA.AperFunction,Conductor*%
%TO.N,Net-(D5-A)*%
G36*
X152783402Y-39279982D02*
G01*
X152791671Y-39283418D01*
X152795089Y-39291695D01*
X152794886Y-39293851D01*
X152471798Y-41006318D01*
X152466897Y-41013813D01*
X152460301Y-41015849D01*
X151976351Y-41015849D01*
X151968078Y-41012422D01*
X151966540Y-41010523D01*
X151073665Y-39636199D01*
X151072031Y-39627395D01*
X151077102Y-39620014D01*
X151078979Y-39619024D01*
X151895342Y-39279894D01*
X151899836Y-39279000D01*
X152783402Y-39279982D01*
G37*
%TD.AperFunction*%
%TD*%
%TA.AperFunction,Conductor*%
%TO.N,Net-(D15-A)*%
G36*
X144399919Y-52335927D02*
G01*
X144402712Y-52340402D01*
X144616780Y-52964162D01*
X144616225Y-52973100D01*
X144614621Y-52975547D01*
X144158907Y-53510543D01*
X144150933Y-53514619D01*
X144142413Y-53511863D01*
X144141093Y-53510543D01*
X143685378Y-52975547D01*
X143682622Y-52967027D01*
X143683219Y-52964162D01*
X143897288Y-52340402D01*
X143903214Y-52333689D01*
X143908354Y-52332500D01*
X144391646Y-52332500D01*
X144399919Y-52335927D01*
G37*
%TD.AperFunction*%
%TD*%
%TA.AperFunction,Conductor*%
%TO.N,Net-(D15-A)*%
G36*
X144713402Y-51669982D02*
G01*
X144721671Y-51673418D01*
X144725089Y-51681695D01*
X144724886Y-51683851D01*
X144401798Y-53396318D01*
X144396897Y-53403813D01*
X144390301Y-53405849D01*
X143906351Y-53405849D01*
X143898078Y-53402422D01*
X143896540Y-53400523D01*
X143003665Y-52026199D01*
X143002031Y-52017395D01*
X143007102Y-52010014D01*
X143008979Y-52009024D01*
X143825342Y-51669894D01*
X143829836Y-51669000D01*
X144713402Y-51669982D01*
G37*
%TD.AperFunction*%
%TD*%
%TA.AperFunction,Conductor*%
%TO.N,Net-(D15-A)*%
G36*
X132899919Y-61625927D02*
G01*
X132902712Y-61630402D01*
X133116780Y-62254162D01*
X133116225Y-62263100D01*
X133114621Y-62265547D01*
X132658907Y-62800543D01*
X132650933Y-62804619D01*
X132642413Y-62801863D01*
X132641093Y-62800543D01*
X132185378Y-62265547D01*
X132182622Y-62257027D01*
X132183219Y-62254162D01*
X132397288Y-61630402D01*
X132403214Y-61623689D01*
X132408354Y-61622500D01*
X132891646Y-61622500D01*
X132899919Y-61625927D01*
G37*
%TD.AperFunction*%
%TD*%
%TA.AperFunction,Conductor*%
%TO.N,Net-(D15-A)*%
G36*
X133213402Y-60959982D02*
G01*
X133221671Y-60963418D01*
X133225089Y-60971695D01*
X133224886Y-60973851D01*
X132901798Y-62686318D01*
X132896897Y-62693813D01*
X132890301Y-62695849D01*
X132406351Y-62695849D01*
X132398078Y-62692422D01*
X132396540Y-62690523D01*
X131503665Y-61316199D01*
X131502031Y-61307395D01*
X131507102Y-61300014D01*
X131508979Y-61299024D01*
X132325342Y-60959894D01*
X132329836Y-60959000D01*
X133213402Y-60959982D01*
G37*
%TD.AperFunction*%
%TD*%
%TA.AperFunction,Conductor*%
%TO.N,Net-(D15-A)*%
G36*
X119089919Y-66905927D02*
G01*
X119092712Y-66910402D01*
X119306780Y-67534162D01*
X119306225Y-67543100D01*
X119304621Y-67545547D01*
X118848907Y-68080543D01*
X118840933Y-68084619D01*
X118832413Y-68081863D01*
X118831093Y-68080543D01*
X118375378Y-67545547D01*
X118372622Y-67537027D01*
X118373219Y-67534162D01*
X118587288Y-66910402D01*
X118593214Y-66903689D01*
X118598354Y-66902500D01*
X119081646Y-66902500D01*
X119089919Y-66905927D01*
G37*
%TD.AperFunction*%
%TD*%
%TA.AperFunction,Conductor*%
%TO.N,Net-(D15-A)*%
G36*
X119403402Y-66239982D02*
G01*
X119411671Y-66243418D01*
X119415089Y-66251695D01*
X119414886Y-66253851D01*
X119091798Y-67966318D01*
X119086897Y-67973813D01*
X119080301Y-67975849D01*
X118596351Y-67975849D01*
X118588078Y-67972422D01*
X118586540Y-67970523D01*
X117693665Y-66596199D01*
X117692031Y-66587395D01*
X117697102Y-66580014D01*
X117698979Y-66579024D01*
X118515342Y-66239894D01*
X118519836Y-66239000D01*
X119403402Y-66239982D01*
G37*
%TD.AperFunction*%
%TD*%
%TA.AperFunction,Conductor*%
%TO.N,Net-(D21-A)*%
G36*
X162699919Y-92055927D02*
G01*
X162702712Y-92060402D01*
X162916780Y-92684162D01*
X162916225Y-92693100D01*
X162914621Y-92695547D01*
X162458907Y-93230543D01*
X162450933Y-93234619D01*
X162442413Y-93231863D01*
X162441093Y-93230543D01*
X161985378Y-92695547D01*
X161982622Y-92687027D01*
X161983219Y-92684162D01*
X162197288Y-92060402D01*
X162203214Y-92053689D01*
X162208354Y-92052500D01*
X162691646Y-92052500D01*
X162699919Y-92055927D01*
G37*
%TD.AperFunction*%
%TD*%
%TA.AperFunction,Conductor*%
%TO.N,Net-(D21-A)*%
G36*
X163013402Y-91389982D02*
G01*
X163021671Y-91393418D01*
X163025089Y-91401695D01*
X163024886Y-91403851D01*
X162701798Y-93116318D01*
X162696897Y-93123813D01*
X162690301Y-93125849D01*
X162206351Y-93125849D01*
X162198078Y-93122422D01*
X162196540Y-93120523D01*
X161303665Y-91746199D01*
X161302031Y-91737395D01*
X161307102Y-91730014D01*
X161308979Y-91729024D01*
X162125342Y-91389894D01*
X162129836Y-91389000D01*
X163013402Y-91389982D01*
G37*
%TD.AperFunction*%
%TD*%
%TA.AperFunction,Conductor*%
%TO.N,Net-(D20-A)*%
G36*
X149489919Y-100245927D02*
G01*
X149492712Y-100250402D01*
X149706780Y-100874162D01*
X149706225Y-100883100D01*
X149704621Y-100885547D01*
X149248907Y-101420543D01*
X149240933Y-101424619D01*
X149232413Y-101421863D01*
X149231093Y-101420543D01*
X148775378Y-100885547D01*
X148772622Y-100877027D01*
X148773219Y-100874162D01*
X148987288Y-100250402D01*
X148993214Y-100243689D01*
X148998354Y-100242500D01*
X149481646Y-100242500D01*
X149489919Y-100245927D01*
G37*
%TD.AperFunction*%
%TD*%
%TA.AperFunction,Conductor*%
%TO.N,Net-(D20-A)*%
G36*
X149803402Y-99579982D02*
G01*
X149811671Y-99583418D01*
X149815089Y-99591695D01*
X149814886Y-99593851D01*
X149491798Y-101306318D01*
X149486897Y-101313813D01*
X149480301Y-101315849D01*
X148996351Y-101315849D01*
X148988078Y-101312422D01*
X148986540Y-101310523D01*
X148093665Y-99936199D01*
X148092031Y-99927395D01*
X148097102Y-99920014D01*
X148098979Y-99919024D01*
X148915342Y-99579894D01*
X148919836Y-99579000D01*
X149803402Y-99579982D01*
G37*
%TD.AperFunction*%
%TD*%
%TA.AperFunction,Conductor*%
%TO.N,Net-(D20-A)*%
G36*
X135373402Y-105339982D02*
G01*
X135381671Y-105343418D01*
X135385089Y-105351695D01*
X135384886Y-105353851D01*
X135061798Y-107066318D01*
X135056897Y-107073813D01*
X135050301Y-107075849D01*
X134566351Y-107075849D01*
X134558078Y-107072422D01*
X134556540Y-107070523D01*
X133663665Y-105696199D01*
X133662031Y-105687395D01*
X133667102Y-105680014D01*
X133668979Y-105679024D01*
X134485342Y-105339894D01*
X134489836Y-105339000D01*
X135373402Y-105339982D01*
G37*
%TD.AperFunction*%
%TD*%
%TA.AperFunction,Conductor*%
%TO.N,Net-(D20-A)*%
G36*
X135059919Y-106005927D02*
G01*
X135062712Y-106010402D01*
X135276780Y-106634162D01*
X135276225Y-106643100D01*
X135274621Y-106645547D01*
X134818907Y-107180543D01*
X134810933Y-107184619D01*
X134802413Y-107181863D01*
X134801093Y-107180543D01*
X134345378Y-106645547D01*
X134342622Y-106637027D01*
X134343219Y-106634162D01*
X134557288Y-106010402D01*
X134563214Y-106003689D01*
X134568354Y-106002500D01*
X135051646Y-106002500D01*
X135059919Y-106005927D01*
G37*
%TD.AperFunction*%
%TD*%
%TA.AperFunction,Conductor*%
%TO.N,Net-(D20-A)*%
G36*
X119849919Y-109185927D02*
G01*
X119852712Y-109190402D01*
X120066780Y-109814162D01*
X120066225Y-109823100D01*
X120064621Y-109825547D01*
X119608907Y-110360543D01*
X119600933Y-110364619D01*
X119592413Y-110361863D01*
X119591093Y-110360543D01*
X119135378Y-109825547D01*
X119132622Y-109817027D01*
X119133219Y-109814162D01*
X119347288Y-109190402D01*
X119353214Y-109183689D01*
X119358354Y-109182500D01*
X119841646Y-109182500D01*
X119849919Y-109185927D01*
G37*
%TD.AperFunction*%
%TD*%
%TA.AperFunction,Conductor*%
%TO.N,Net-(D20-A)*%
G36*
X120163402Y-108519982D02*
G01*
X120171671Y-108523418D01*
X120175089Y-108531695D01*
X120174886Y-108533851D01*
X119851798Y-110246318D01*
X119846897Y-110253813D01*
X119840301Y-110255849D01*
X119356351Y-110255849D01*
X119348078Y-110252422D01*
X119346540Y-110250523D01*
X118453665Y-108876199D01*
X118452031Y-108867395D01*
X118457102Y-108860014D01*
X118458979Y-108859024D01*
X119275342Y-108519894D01*
X119279836Y-108519000D01*
X120163402Y-108519982D01*
G37*
%TD.AperFunction*%
%TD*%
%TA.AperFunction,Conductor*%
%TO.N,Net-(D20-A)*%
G36*
X119893402Y-87409982D02*
G01*
X119901671Y-87413418D01*
X119905089Y-87421695D01*
X119904886Y-87423851D01*
X119581798Y-89136318D01*
X119576897Y-89143813D01*
X119570301Y-89145849D01*
X119086351Y-89145849D01*
X119078078Y-89142422D01*
X119076540Y-89140523D01*
X118183665Y-87766199D01*
X118182031Y-87757395D01*
X118187102Y-87750014D01*
X118188979Y-87749024D01*
X119005342Y-87409894D01*
X119009836Y-87409000D01*
X119893402Y-87409982D01*
G37*
%TD.AperFunction*%
%TD*%
%TA.AperFunction,Conductor*%
%TO.N,Net-(D20-A)*%
G36*
X119579919Y-88075927D02*
G01*
X119582712Y-88080402D01*
X119796780Y-88704162D01*
X119796225Y-88713100D01*
X119794621Y-88715547D01*
X119338907Y-89250543D01*
X119330933Y-89254619D01*
X119322413Y-89251863D01*
X119321093Y-89250543D01*
X118865378Y-88715547D01*
X118862622Y-88707027D01*
X118863219Y-88704162D01*
X119077288Y-88080402D01*
X119083214Y-88073689D01*
X119088354Y-88072500D01*
X119571646Y-88072500D01*
X119579919Y-88075927D01*
G37*
%TD.AperFunction*%
%TD*%
%TA.AperFunction,Conductor*%
%TO.N,Net-(D20-A)*%
G36*
X134633402Y-83439982D02*
G01*
X134641671Y-83443418D01*
X134645089Y-83451695D01*
X134644886Y-83453851D01*
X134321798Y-85166318D01*
X134316897Y-85173813D01*
X134310301Y-85175849D01*
X133826351Y-85175849D01*
X133818078Y-85172422D01*
X133816540Y-85170523D01*
X132923665Y-83796199D01*
X132922031Y-83787395D01*
X132927102Y-83780014D01*
X132928979Y-83779024D01*
X133745342Y-83439894D01*
X133749836Y-83439000D01*
X134633402Y-83439982D01*
G37*
%TD.AperFunction*%
%TD*%
%TA.AperFunction,Conductor*%
%TO.N,Net-(D20-A)*%
G36*
X134319919Y-84105927D02*
G01*
X134322712Y-84110402D01*
X134536780Y-84734162D01*
X134536225Y-84743100D01*
X134534621Y-84745547D01*
X134078907Y-85280543D01*
X134070933Y-85284619D01*
X134062413Y-85281863D01*
X134061093Y-85280543D01*
X133605378Y-84745547D01*
X133602622Y-84737027D01*
X133603219Y-84734162D01*
X133817288Y-84110402D01*
X133823214Y-84103689D01*
X133828354Y-84102500D01*
X134311646Y-84102500D01*
X134319919Y-84105927D01*
G37*
%TD.AperFunction*%
%TD*%
%TA.AperFunction,Conductor*%
%TO.N,Net-(D21-A)*%
G36*
X147809919Y-76945927D02*
G01*
X147812712Y-76950402D01*
X148026780Y-77574162D01*
X148026225Y-77583100D01*
X148024621Y-77585547D01*
X147568907Y-78120543D01*
X147560933Y-78124619D01*
X147552413Y-78121863D01*
X147551093Y-78120543D01*
X147095378Y-77585547D01*
X147092622Y-77577027D01*
X147093219Y-77574162D01*
X147307288Y-76950402D01*
X147313214Y-76943689D01*
X147318354Y-76942500D01*
X147801646Y-76942500D01*
X147809919Y-76945927D01*
G37*
%TD.AperFunction*%
%TD*%
%TA.AperFunction,Conductor*%
%TO.N,Net-(D21-A)*%
G36*
X148123402Y-76279982D02*
G01*
X148131671Y-76283418D01*
X148135089Y-76291695D01*
X148134886Y-76293851D01*
X147811798Y-78006318D01*
X147806897Y-78013813D01*
X147800301Y-78015849D01*
X147316351Y-78015849D01*
X147308078Y-78012422D01*
X147306540Y-78010523D01*
X146413665Y-76636199D01*
X146412031Y-76627395D01*
X146417102Y-76620014D01*
X146418979Y-76619024D01*
X147235342Y-76279894D01*
X147239836Y-76279000D01*
X148123402Y-76279982D01*
G37*
%TD.AperFunction*%
%TD*%
%TA.AperFunction,Conductor*%
%TO.N,Net-(D21-A)*%
G36*
X159369919Y-66975927D02*
G01*
X159372712Y-66980402D01*
X159586780Y-67604162D01*
X159586225Y-67613100D01*
X159584621Y-67615547D01*
X159128907Y-68150543D01*
X159120933Y-68154619D01*
X159112413Y-68151863D01*
X159111093Y-68150543D01*
X158655378Y-67615547D01*
X158652622Y-67607027D01*
X158653219Y-67604162D01*
X158867288Y-66980402D01*
X158873214Y-66973689D01*
X158878354Y-66972500D01*
X159361646Y-66972500D01*
X159369919Y-66975927D01*
G37*
%TD.AperFunction*%
%TD*%
%TA.AperFunction,Conductor*%
%TO.N,Net-(D21-A)*%
G36*
X159683402Y-66309982D02*
G01*
X159691671Y-66313418D01*
X159695089Y-66321695D01*
X159694886Y-66323851D01*
X159371798Y-68036318D01*
X159366897Y-68043813D01*
X159360301Y-68045849D01*
X158876351Y-68045849D01*
X158868078Y-68042422D01*
X158866540Y-68040523D01*
X157973665Y-66666199D01*
X157972031Y-66657395D01*
X157977102Y-66650014D01*
X157978979Y-66649024D01*
X158795342Y-66309894D01*
X158799836Y-66309000D01*
X159683402Y-66309982D01*
G37*
%TD.AperFunction*%
%TD*%
%TA.AperFunction,Conductor*%
%TO.N,Net-(D5-A)*%
G36*
X168419919Y-54675927D02*
G01*
X168422712Y-54680402D01*
X168636780Y-55304162D01*
X168636225Y-55313100D01*
X168634621Y-55315547D01*
X168178907Y-55850543D01*
X168170933Y-55854619D01*
X168162413Y-55851863D01*
X168161093Y-55850543D01*
X167705378Y-55315547D01*
X167702622Y-55307027D01*
X167703219Y-55304162D01*
X167917288Y-54680402D01*
X167923214Y-54673689D01*
X167928354Y-54672500D01*
X168411646Y-54672500D01*
X168419919Y-54675927D01*
G37*
%TD.AperFunction*%
%TD*%
%TA.AperFunction,Conductor*%
%TO.N,Net-(D5-A)*%
G36*
X168733402Y-54009982D02*
G01*
X168741671Y-54013418D01*
X168745089Y-54021695D01*
X168744886Y-54023851D01*
X168421798Y-55736318D01*
X168416897Y-55743813D01*
X168410301Y-55745849D01*
X167926351Y-55745849D01*
X167918078Y-55742422D01*
X167916540Y-55740523D01*
X167023665Y-54366199D01*
X167022031Y-54357395D01*
X167027102Y-54350014D01*
X167028979Y-54349024D01*
X167845342Y-54009894D01*
X167849836Y-54009000D01*
X168733402Y-54009982D01*
G37*
%TD.AperFunction*%
%TD*%
%TA.AperFunction,Conductor*%
%TO.N,Net-(D10-A)*%
G36*
X174499919Y-40675927D02*
G01*
X174502712Y-40680402D01*
X174716780Y-41304162D01*
X174716225Y-41313100D01*
X174714621Y-41315547D01*
X174258907Y-41850543D01*
X174250933Y-41854619D01*
X174242413Y-41851863D01*
X174241093Y-41850543D01*
X173785378Y-41315547D01*
X173782622Y-41307027D01*
X173783219Y-41304162D01*
X173997288Y-40680402D01*
X174003214Y-40673689D01*
X174008354Y-40672500D01*
X174491646Y-40672500D01*
X174499919Y-40675927D01*
G37*
%TD.AperFunction*%
%TD*%
%TA.AperFunction,Conductor*%
%TO.N,Net-(D10-A)*%
G36*
X174813402Y-40009982D02*
G01*
X174821671Y-40013418D01*
X174825089Y-40021695D01*
X174824886Y-40023851D01*
X174501798Y-41736318D01*
X174496897Y-41743813D01*
X174490301Y-41745849D01*
X174006351Y-41745849D01*
X173998078Y-41742422D01*
X173996540Y-41740523D01*
X173103665Y-40366199D01*
X173102031Y-40357395D01*
X173107102Y-40350014D01*
X173108979Y-40349024D01*
X173925342Y-40009894D01*
X173929836Y-40009000D01*
X174813402Y-40009982D01*
G37*
%TD.AperFunction*%
%TD*%
%TA.AperFunction,Conductor*%
%TO.N,Net-(D10-A)*%
G36*
X177319919Y-25665927D02*
G01*
X177322712Y-25670402D01*
X177536780Y-26294162D01*
X177536225Y-26303100D01*
X177534621Y-26305547D01*
X177078907Y-26840543D01*
X177070933Y-26844619D01*
X177062413Y-26841863D01*
X177061093Y-26840543D01*
X176605378Y-26305547D01*
X176602622Y-26297027D01*
X176603219Y-26294162D01*
X176817288Y-25670402D01*
X176823214Y-25663689D01*
X176828354Y-25662500D01*
X177311646Y-25662500D01*
X177319919Y-25665927D01*
G37*
%TD.AperFunction*%
%TD*%
%TA.AperFunction,Conductor*%
%TO.N,Net-(D10-A)*%
G36*
X177633402Y-24999982D02*
G01*
X177641671Y-25003418D01*
X177645089Y-25011695D01*
X177644886Y-25013851D01*
X177321798Y-26726318D01*
X177316897Y-26733813D01*
X177310301Y-26735849D01*
X176826351Y-26735849D01*
X176818078Y-26732422D01*
X176816540Y-26730523D01*
X175923665Y-25356199D01*
X175922031Y-25347395D01*
X175927102Y-25340014D01*
X175928979Y-25339024D01*
X176745342Y-24999894D01*
X176749836Y-24999000D01*
X177633402Y-24999982D01*
G37*
%TD.AperFunction*%
%TD*%
%TA.AperFunction,Conductor*%
%TO.N,Net-(D10-A)*%
G36*
X198319919Y-25665927D02*
G01*
X198322712Y-25670402D01*
X198536780Y-26294162D01*
X198536225Y-26303100D01*
X198534621Y-26305547D01*
X198078907Y-26840543D01*
X198070933Y-26844619D01*
X198062413Y-26841863D01*
X198061093Y-26840543D01*
X197605378Y-26305547D01*
X197602622Y-26297027D01*
X197603219Y-26294162D01*
X197817288Y-25670402D01*
X197823214Y-25663689D01*
X197828354Y-25662500D01*
X198311646Y-25662500D01*
X198319919Y-25665927D01*
G37*
%TD.AperFunction*%
%TD*%
%TA.AperFunction,Conductor*%
%TO.N,Net-(D10-A)*%
G36*
X198633402Y-24999982D02*
G01*
X198641671Y-25003418D01*
X198645089Y-25011695D01*
X198644886Y-25013851D01*
X198321798Y-26726318D01*
X198316897Y-26733813D01*
X198310301Y-26735849D01*
X197826351Y-26735849D01*
X197818078Y-26732422D01*
X197816540Y-26730523D01*
X196923665Y-25356199D01*
X196922031Y-25347395D01*
X196927102Y-25340014D01*
X196928979Y-25339024D01*
X197745342Y-24999894D01*
X197749836Y-24999000D01*
X198633402Y-24999982D01*
G37*
%TD.AperFunction*%
%TD*%
%TA.AperFunction,Conductor*%
%TO.N,Net-(D10-A)*%
G36*
X196099919Y-41045927D02*
G01*
X196102712Y-41050402D01*
X196316780Y-41674162D01*
X196316225Y-41683100D01*
X196314621Y-41685547D01*
X195858907Y-42220543D01*
X195850933Y-42224619D01*
X195842413Y-42221863D01*
X195841093Y-42220543D01*
X195385378Y-41685547D01*
X195382622Y-41677027D01*
X195383219Y-41674162D01*
X195597288Y-41050402D01*
X195603214Y-41043689D01*
X195608354Y-41042500D01*
X196091646Y-41042500D01*
X196099919Y-41045927D01*
G37*
%TD.AperFunction*%
%TD*%
%TA.AperFunction,Conductor*%
%TO.N,Net-(D10-A)*%
G36*
X196413402Y-40379982D02*
G01*
X196421671Y-40383418D01*
X196425089Y-40391695D01*
X196424886Y-40393851D01*
X196101798Y-42106318D01*
X196096897Y-42113813D01*
X196090301Y-42115849D01*
X195606351Y-42115849D01*
X195598078Y-42112422D01*
X195596540Y-42110523D01*
X194703665Y-40736199D01*
X194702031Y-40727395D01*
X194707102Y-40720014D01*
X194708979Y-40719024D01*
X195525342Y-40379894D01*
X195529836Y-40379000D01*
X196413402Y-40379982D01*
G37*
%TD.AperFunction*%
%TD*%
%TA.AperFunction,Conductor*%
%TO.N,Net-(D10-A)*%
G36*
X191239919Y-55805927D02*
G01*
X191242712Y-55810402D01*
X191456780Y-56434162D01*
X191456225Y-56443100D01*
X191454621Y-56445547D01*
X190998907Y-56980543D01*
X190990933Y-56984619D01*
X190982413Y-56981863D01*
X190981093Y-56980543D01*
X190525378Y-56445547D01*
X190522622Y-56437027D01*
X190523219Y-56434162D01*
X190737288Y-55810402D01*
X190743214Y-55803689D01*
X190748354Y-55802500D01*
X191231646Y-55802500D01*
X191239919Y-55805927D01*
G37*
%TD.AperFunction*%
%TD*%
%TA.AperFunction,Conductor*%
%TO.N,Net-(D10-A)*%
G36*
X191553402Y-55139982D02*
G01*
X191561671Y-55143418D01*
X191565089Y-55151695D01*
X191564886Y-55153851D01*
X191241798Y-56866318D01*
X191236897Y-56873813D01*
X191230301Y-56875849D01*
X190746351Y-56875849D01*
X190738078Y-56872422D01*
X190736540Y-56870523D01*
X189843665Y-55496199D01*
X189842031Y-55487395D01*
X189847102Y-55480014D01*
X189848979Y-55479024D01*
X190665342Y-55139894D01*
X190669836Y-55139000D01*
X191553402Y-55139982D01*
G37*
%TD.AperFunction*%
%TD*%
%TA.AperFunction,Conductor*%
%TO.N,Net-(D21-A)*%
G36*
X183899919Y-69495927D02*
G01*
X183902712Y-69500402D01*
X184116780Y-70124162D01*
X184116225Y-70133100D01*
X184114621Y-70135547D01*
X183658907Y-70670543D01*
X183650933Y-70674619D01*
X183642413Y-70671863D01*
X183641093Y-70670543D01*
X183185378Y-70135547D01*
X183182622Y-70127027D01*
X183183219Y-70124162D01*
X183397288Y-69500402D01*
X183403214Y-69493689D01*
X183408354Y-69492500D01*
X183891646Y-69492500D01*
X183899919Y-69495927D01*
G37*
%TD.AperFunction*%
%TD*%
%TA.AperFunction,Conductor*%
%TO.N,Net-(D21-A)*%
G36*
X184213402Y-68829982D02*
G01*
X184221671Y-68833418D01*
X184225089Y-68841695D01*
X184224886Y-68843851D01*
X183901798Y-70556318D01*
X183896897Y-70563813D01*
X183890301Y-70565849D01*
X183406351Y-70565849D01*
X183398078Y-70562422D01*
X183396540Y-70560523D01*
X182503665Y-69186199D01*
X182502031Y-69177395D01*
X182507102Y-69170014D01*
X182508979Y-69169024D01*
X183325342Y-68829894D01*
X183329836Y-68829000D01*
X184213402Y-68829982D01*
G37*
%TD.AperFunction*%
%TD*%
%TA.AperFunction,Conductor*%
%TO.N,Net-(D21-A)*%
G36*
X173279919Y-80705927D02*
G01*
X173282712Y-80710402D01*
X173496780Y-81334162D01*
X173496225Y-81343100D01*
X173494621Y-81345547D01*
X173038907Y-81880543D01*
X173030933Y-81884619D01*
X173022413Y-81881863D01*
X173021093Y-81880543D01*
X172565378Y-81345547D01*
X172562622Y-81337027D01*
X172563219Y-81334162D01*
X172777288Y-80710402D01*
X172783214Y-80703689D01*
X172788354Y-80702500D01*
X173271646Y-80702500D01*
X173279919Y-80705927D01*
G37*
%TD.AperFunction*%
%TD*%
%TA.AperFunction,Conductor*%
%TO.N,Net-(D21-A)*%
G36*
X173593402Y-80039982D02*
G01*
X173601671Y-80043418D01*
X173605089Y-80051695D01*
X173604886Y-80053851D01*
X173281798Y-81766318D01*
X173276897Y-81773813D01*
X173270301Y-81775849D01*
X172786351Y-81775849D01*
X172778078Y-81772422D01*
X172776540Y-81770523D01*
X171883665Y-80396199D01*
X171882031Y-80387395D01*
X171887102Y-80380014D01*
X171888979Y-80379024D01*
X172705342Y-80039894D01*
X172709836Y-80039000D01*
X173593402Y-80039982D01*
G37*
%TD.AperFunction*%
%TD*%
M02*
