%TF.GenerationSoftware,KiCad,Pcbnew,7.0.8*%
%TF.CreationDate,2025-01-10T21:38:43+01:00*%
%TF.ProjectId,UV_Disc_Charger,55565f44-6973-4635-9f43-686172676572,rev?*%
%TF.SameCoordinates,Original*%
%TF.FileFunction,Legend,Bot*%
%TF.FilePolarity,Positive*%
%FSLAX46Y46*%
G04 Gerber Fmt 4.6, Leading zero omitted, Abs format (unit mm)*
G04 Created by KiCad (PCBNEW 7.0.8) date 2025-01-10 21:38:43*
%MOMM*%
%LPD*%
G01*
G04 APERTURE LIST*
%ADD10C,0.120000*%
%ADD11C,0.100000*%
G04 APERTURE END LIST*
D10*
%TO.C,D29*%
X187157500Y-67284998D02*
X187157500Y-70374998D01*
D11*
X184937500Y-70080000D02*
X184237500Y-70080000D01*
X184937500Y-71280000D02*
X184237500Y-71280000D01*
D10*
X187157500Y-67285168D02*
G75*
G03*
X181607500Y-68830460I-2560000J-1544830D01*
G01*
D11*
X186223763Y-70702341D02*
G75*
G03*
X182117500Y-68829998I-1626263J1872343D01*
G01*
X182117501Y-68829998D02*
G75*
G03*
X182853982Y-70593672I2479996J-2D01*
G01*
D10*
X181607501Y-68829536D02*
G75*
G03*
X187157499Y-70374828I2989999J-462D01*
G01*
%TO.C,D28*%
X132767501Y-105339536D02*
G75*
G03*
X138317499Y-106884828I2989999J-462D01*
G01*
D11*
X133277501Y-105339998D02*
G75*
G03*
X134013982Y-107103672I2479996J-2D01*
G01*
X137383763Y-107212341D02*
G75*
G03*
X133277500Y-105339998I-1626263J1872343D01*
G01*
D10*
X138317500Y-103795168D02*
G75*
G03*
X132767500Y-105340460I-2560000J-1544830D01*
G01*
D11*
X136097500Y-107790000D02*
X135397500Y-107790000D01*
X136097500Y-106590000D02*
X135397500Y-106590000D01*
D10*
X138317500Y-103794998D02*
X138317500Y-106884998D01*
%TO.C,D27*%
X165957500Y-89844998D02*
X165957500Y-92934998D01*
D11*
X163737500Y-92640000D02*
X163037500Y-92640000D01*
X163737500Y-93840000D02*
X163037500Y-93840000D01*
D10*
X165957500Y-89845168D02*
G75*
G03*
X160407500Y-91390460I-2560000J-1544830D01*
G01*
D11*
X165023763Y-93262341D02*
G75*
G03*
X160917500Y-91389998I-1626263J1872343D01*
G01*
X160917501Y-91389998D02*
G75*
G03*
X161653982Y-93153672I2479996J-2D01*
G01*
D10*
X160407501Y-91389536D02*
G75*
G03*
X165957499Y-92934828I2989999J-462D01*
G01*
%TO.C,D26*%
X132027501Y-83439536D02*
G75*
G03*
X137577499Y-84984828I2989999J-462D01*
G01*
D11*
X132537501Y-83439998D02*
G75*
G03*
X133273982Y-85203672I2479996J-2D01*
G01*
X136643763Y-85312341D02*
G75*
G03*
X132537500Y-83439998I-1626263J1872343D01*
G01*
D10*
X137577500Y-81895168D02*
G75*
G03*
X132027500Y-83440460I-2560000J-1544830D01*
G01*
D11*
X135357500Y-85890000D02*
X134657500Y-85890000D01*
X135357500Y-84690000D02*
X134657500Y-84690000D01*
D10*
X137577500Y-81894998D02*
X137577500Y-84984998D01*
%TO.C,D25*%
X151067500Y-74734998D02*
X151067500Y-77824998D01*
D11*
X148847500Y-77530000D02*
X148147500Y-77530000D01*
X148847500Y-78730000D02*
X148147500Y-78730000D01*
D10*
X151067500Y-74735168D02*
G75*
G03*
X145517500Y-76280460I-2560000J-1544830D01*
G01*
D11*
X150133763Y-78152341D02*
G75*
G03*
X146027500Y-76279998I-1626263J1872343D01*
G01*
X146027501Y-76279998D02*
G75*
G03*
X146763982Y-78043672I2479996J-2D01*
G01*
D10*
X145517501Y-76279536D02*
G75*
G03*
X151067499Y-77824828I2989999J-462D01*
G01*
%TO.C,D24*%
X152747500Y-98034998D02*
X152747500Y-101124998D01*
D11*
X150527500Y-100830000D02*
X149827500Y-100830000D01*
X150527500Y-102030000D02*
X149827500Y-102030000D01*
D10*
X152747500Y-98035168D02*
G75*
G03*
X147197500Y-99580460I-2560000J-1544830D01*
G01*
D11*
X151813763Y-101452341D02*
G75*
G03*
X147707500Y-99579998I-1626263J1872343D01*
G01*
X147707501Y-99579998D02*
G75*
G03*
X148443982Y-101343672I2479996J-2D01*
G01*
D10*
X147197501Y-99579536D02*
G75*
G03*
X152747499Y-101124828I2989999J-462D01*
G01*
%TO.C,D23*%
X176537500Y-78494998D02*
X176537500Y-81584998D01*
D11*
X174317500Y-81290000D02*
X173617500Y-81290000D01*
X174317500Y-82490000D02*
X173617500Y-82490000D01*
D10*
X176537500Y-78495168D02*
G75*
G03*
X170987500Y-80040460I-2560000J-1544830D01*
G01*
D11*
X175603763Y-81912341D02*
G75*
G03*
X171497500Y-80039998I-1626263J1872343D01*
G01*
X171497501Y-80039998D02*
G75*
G03*
X172233982Y-81803672I2479996J-2D01*
G01*
D10*
X170987501Y-80039536D02*
G75*
G03*
X176537499Y-81584828I2989999J-462D01*
G01*
%TO.C,D22*%
X123107500Y-106974998D02*
X123107500Y-110064998D01*
D11*
X120887500Y-109770000D02*
X120187500Y-109770000D01*
X120887500Y-110970000D02*
X120187500Y-110970000D01*
D10*
X123107500Y-106975168D02*
G75*
G03*
X117557500Y-108520460I-2560000J-1544830D01*
G01*
D11*
X122173763Y-110392341D02*
G75*
G03*
X118067500Y-108519998I-1626263J1872343D01*
G01*
X118067501Y-108519998D02*
G75*
G03*
X118803982Y-110283672I2479996J-2D01*
G01*
D10*
X117557501Y-108519536D02*
G75*
G03*
X123107499Y-110064828I2989999J-462D01*
G01*
%TO.C,D21*%
X162627500Y-64764998D02*
X162627500Y-67854998D01*
D11*
X160407500Y-67560000D02*
X159707500Y-67560000D01*
X160407500Y-68760000D02*
X159707500Y-68760000D01*
D10*
X162627500Y-64765168D02*
G75*
G03*
X157077500Y-66310460I-2560000J-1544830D01*
G01*
D11*
X161693763Y-68182341D02*
G75*
G03*
X157587500Y-66309998I-1626263J1872343D01*
G01*
X157587501Y-66309998D02*
G75*
G03*
X158323982Y-68073672I2479996J-2D01*
G01*
D10*
X157077501Y-66309536D02*
G75*
G03*
X162627499Y-67854828I2989999J-462D01*
G01*
%TO.C,D20*%
X117287501Y-87409536D02*
G75*
G03*
X122837499Y-88954828I2989999J-462D01*
G01*
D11*
X117797501Y-87409998D02*
G75*
G03*
X118533982Y-89173672I2479996J-2D01*
G01*
X121903763Y-89282341D02*
G75*
G03*
X117797500Y-87409998I-1626263J1872343D01*
G01*
D10*
X122837500Y-85865168D02*
G75*
G03*
X117287500Y-87410460I-2560000J-1544830D01*
G01*
D11*
X120617500Y-89860000D02*
X119917500Y-89860000D01*
X120617500Y-88660000D02*
X119917500Y-88660000D01*
D10*
X122837500Y-85864998D02*
X122837500Y-88954998D01*
%TO.C,D19*%
X147657500Y-50124998D02*
X147657500Y-53214998D01*
D11*
X145437500Y-52920000D02*
X144737500Y-52920000D01*
X145437500Y-54120000D02*
X144737500Y-54120000D01*
D10*
X147657500Y-50125168D02*
G75*
G03*
X142107500Y-51670460I-2560000J-1544830D01*
G01*
D11*
X146723763Y-53542341D02*
G75*
G03*
X142617500Y-51669998I-1626263J1872343D01*
G01*
X142617501Y-51669998D02*
G75*
G03*
X143353982Y-53433672I2479996J-2D01*
G01*
D10*
X142107501Y-51669536D02*
G75*
G03*
X147657499Y-53214828I2989999J-462D01*
G01*
%TO.C,D18*%
X136157500Y-59414998D02*
X136157500Y-62504998D01*
D11*
X133937500Y-62210000D02*
X133237500Y-62210000D01*
X133937500Y-63410000D02*
X133237500Y-63410000D01*
D10*
X136157500Y-59415168D02*
G75*
G03*
X130607500Y-60960460I-2560000J-1544830D01*
G01*
D11*
X135223763Y-62832341D02*
G75*
G03*
X131117500Y-60959998I-1626263J1872343D01*
G01*
X131117501Y-60959998D02*
G75*
G03*
X131853982Y-62723672I2479996J-2D01*
G01*
D10*
X130607501Y-60959536D02*
G75*
G03*
X136157499Y-62504828I2989999J-462D01*
G01*
%TO.C,D17*%
X122347500Y-64694998D02*
X122347500Y-67784998D01*
D11*
X120127500Y-67490000D02*
X119427500Y-67490000D01*
X120127500Y-68690000D02*
X119427500Y-68690000D01*
D10*
X122347500Y-64695168D02*
G75*
G03*
X116797500Y-66240460I-2560000J-1544830D01*
G01*
D11*
X121413763Y-68112341D02*
G75*
G03*
X117307500Y-66239998I-1626263J1872343D01*
G01*
X117307501Y-66239998D02*
G75*
G03*
X118043982Y-68003672I2479996J-2D01*
G01*
D10*
X116797501Y-66239536D02*
G75*
G03*
X122347499Y-67784828I2989999J-462D01*
G01*
%TO.C,D16*%
X132597500Y-35784998D02*
X132597500Y-38874998D01*
D11*
X130377500Y-38580000D02*
X129677500Y-38580000D01*
X130377500Y-39780000D02*
X129677500Y-39780000D01*
D10*
X132597500Y-35785168D02*
G75*
G03*
X127047500Y-37330460I-2560000J-1544830D01*
G01*
D11*
X131663763Y-39202341D02*
G75*
G03*
X127557500Y-37329998I-1626263J1872343D01*
G01*
X127557501Y-37329998D02*
G75*
G03*
X128293982Y-39093672I2479996J-2D01*
G01*
D10*
X127047501Y-37329536D02*
G75*
G03*
X132597499Y-38874828I2989999J-462D01*
G01*
%TO.C,D15*%
X121247500Y-43474998D02*
X121247500Y-46564998D01*
D11*
X119027500Y-46270000D02*
X118327500Y-46270000D01*
X119027500Y-47470000D02*
X118327500Y-47470000D01*
D10*
X121247500Y-43475168D02*
G75*
G03*
X115697500Y-45020460I-2560000J-1544830D01*
G01*
D11*
X120313763Y-46892341D02*
G75*
G03*
X116207500Y-45019998I-1626263J1872343D01*
G01*
X116207501Y-45019998D02*
G75*
G03*
X116943982Y-46783672I2479996J-2D01*
G01*
D10*
X115697501Y-45019536D02*
G75*
G03*
X121247499Y-46564828I2989999J-462D01*
G01*
%TO.C,D14*%
X194497500Y-53594998D02*
X194497500Y-56684998D01*
D11*
X192277500Y-56390000D02*
X191577500Y-56390000D01*
X192277500Y-57590000D02*
X191577500Y-57590000D01*
D10*
X194497500Y-53595168D02*
G75*
G03*
X188947500Y-55140460I-2560000J-1544830D01*
G01*
D11*
X193563763Y-57012341D02*
G75*
G03*
X189457500Y-55139998I-1626263J1872343D01*
G01*
X189457501Y-55139998D02*
G75*
G03*
X190193982Y-56903672I2479996J-2D01*
G01*
D10*
X188947501Y-55139536D02*
G75*
G03*
X194497499Y-56684828I2989999J-462D01*
G01*
%TO.C,D13*%
X199357500Y-38834998D02*
X199357500Y-41924998D01*
D11*
X197137500Y-41630000D02*
X196437500Y-41630000D01*
X197137500Y-42830000D02*
X196437500Y-42830000D01*
D10*
X199357500Y-38835168D02*
G75*
G03*
X193807500Y-40380460I-2560000J-1544830D01*
G01*
D11*
X198423763Y-42252341D02*
G75*
G03*
X194317500Y-40379998I-1626263J1872343D01*
G01*
X194317501Y-40379998D02*
G75*
G03*
X195053982Y-42143672I2479996J-2D01*
G01*
D10*
X193807501Y-40379536D02*
G75*
G03*
X199357499Y-41924828I2989999J-462D01*
G01*
%TO.C,D12*%
X177757500Y-38464998D02*
X177757500Y-41554998D01*
D11*
X175537500Y-41260000D02*
X174837500Y-41260000D01*
X175537500Y-42460000D02*
X174837500Y-42460000D01*
D10*
X177757500Y-38465168D02*
G75*
G03*
X172207500Y-40010460I-2560000J-1544830D01*
G01*
D11*
X176823763Y-41882341D02*
G75*
G03*
X172717500Y-40009998I-1626263J1872343D01*
G01*
X172717501Y-40009998D02*
G75*
G03*
X173453982Y-41773672I2479996J-2D01*
G01*
D10*
X172207501Y-40009536D02*
G75*
G03*
X177757499Y-41554828I2989999J-462D01*
G01*
%TO.C,D11*%
X201577500Y-23454998D02*
X201577500Y-26544998D01*
D11*
X199357500Y-26250000D02*
X198657500Y-26250000D01*
X199357500Y-27450000D02*
X198657500Y-27450000D01*
D10*
X201577500Y-23455168D02*
G75*
G03*
X196027500Y-25000460I-2560000J-1544830D01*
G01*
D11*
X200643763Y-26872341D02*
G75*
G03*
X196537500Y-24999998I-1626263J1872343D01*
G01*
X196537501Y-24999998D02*
G75*
G03*
X197273982Y-26763672I2479996J-2D01*
G01*
D10*
X196027501Y-24999536D02*
G75*
G03*
X201577499Y-26544828I2989999J-462D01*
G01*
%TO.C,D10*%
X180577500Y-23454998D02*
X180577500Y-26544998D01*
D11*
X178357500Y-26250000D02*
X177657500Y-26250000D01*
X178357500Y-27450000D02*
X177657500Y-27450000D01*
D10*
X180577500Y-23455168D02*
G75*
G03*
X175027500Y-25000460I-2560000J-1544830D01*
G01*
D11*
X179643763Y-26872341D02*
G75*
G03*
X175537500Y-24999998I-1626263J1872343D01*
G01*
X175537501Y-24999998D02*
G75*
G03*
X176273982Y-26763672I2479996J-2D01*
G01*
D10*
X175027501Y-24999536D02*
G75*
G03*
X180577499Y-26544828I2989999J-462D01*
G01*
%TO.C,D9*%
X171677500Y-52464998D02*
X171677500Y-55554998D01*
D11*
X169457500Y-55260000D02*
X168757500Y-55260000D01*
X169457500Y-56460000D02*
X168757500Y-56460000D01*
D10*
X171677500Y-52465168D02*
G75*
G03*
X166127500Y-54010460I-2560000J-1544830D01*
G01*
D11*
X170743763Y-55882341D02*
G75*
G03*
X166637500Y-54009998I-1626263J1872343D01*
G01*
X166637501Y-54009998D02*
G75*
G03*
X167373982Y-55773672I2479996J-2D01*
G01*
D10*
X166127501Y-54009536D02*
G75*
G03*
X171677499Y-55554828I2989999J-462D01*
G01*
%TO.C,D8*%
X155727500Y-37734998D02*
X155727500Y-40824998D01*
D11*
X153507500Y-40530000D02*
X152807500Y-40530000D01*
X153507500Y-41730000D02*
X152807500Y-41730000D01*
D10*
X155727500Y-37735168D02*
G75*
G03*
X150177500Y-39280460I-2560000J-1544830D01*
G01*
D11*
X154793763Y-41152341D02*
G75*
G03*
X150687500Y-39279998I-1626263J1872343D01*
G01*
X150687501Y-39279998D02*
G75*
G03*
X151423982Y-41043672I2479996J-2D01*
G01*
D10*
X150177501Y-39279536D02*
G75*
G03*
X155727499Y-40824828I2989999J-462D01*
G01*
%TO.C,D7*%
X159577500Y-23454998D02*
X159577500Y-26544998D01*
D11*
X157357500Y-26250000D02*
X156657500Y-26250000D01*
X157357500Y-27450000D02*
X156657500Y-27450000D01*
D10*
X159577500Y-23455168D02*
G75*
G03*
X154027500Y-25000460I-2560000J-1544830D01*
G01*
D11*
X158643763Y-26872341D02*
G75*
G03*
X154537500Y-24999998I-1626263J1872343D01*
G01*
X154537501Y-24999998D02*
G75*
G03*
X155273982Y-26763672I2479996J-2D01*
G01*
D10*
X154027501Y-24999536D02*
G75*
G03*
X159577499Y-26544828I2989999J-462D01*
G01*
%TO.C,D6*%
X138577500Y-23454998D02*
X138577500Y-26544998D01*
D11*
X136357500Y-26250000D02*
X135657500Y-26250000D01*
X136357500Y-27450000D02*
X135657500Y-27450000D01*
D10*
X138577500Y-23455168D02*
G75*
G03*
X133027500Y-25000460I-2560000J-1544830D01*
G01*
D11*
X137643763Y-26872341D02*
G75*
G03*
X133537500Y-24999998I-1626263J1872343D01*
G01*
X133537501Y-24999998D02*
G75*
G03*
X134273982Y-26763672I2479996J-2D01*
G01*
D10*
X133027501Y-24999536D02*
G75*
G03*
X138577499Y-26544828I2989999J-462D01*
G01*
%TO.C,D5*%
X117577500Y-23454998D02*
X117577500Y-26544998D01*
D11*
X115357500Y-26250000D02*
X114657500Y-26250000D01*
X115357500Y-27450000D02*
X114657500Y-27450000D01*
D10*
X117577500Y-23455168D02*
G75*
G03*
X112027500Y-25000460I-2560000J-1544830D01*
G01*
D11*
X116643763Y-26872341D02*
G75*
G03*
X112537500Y-24999998I-1626263J1872343D01*
G01*
X112537501Y-24999998D02*
G75*
G03*
X113273982Y-26763672I2479996J-2D01*
G01*
D10*
X112027501Y-24999536D02*
G75*
G03*
X117577499Y-26544828I2989999J-462D01*
G01*
%TD*%
M02*
